<?xml version="1.0" encoding="utf-8" standalone="no"?>
<!DOCTYPE svg PUBLIC "-//W3C//DTD SVG 1.1//EN"
  "http://www.w3.org/Graphics/SVG/1.1/DTD/svg11.dtd">
<!-- Created with matplotlib (https://matplotlib.org/) -->
<svg height="263.693492pt" version="1.1" viewBox="0 0 395.328125 263.693492" width="395.328125pt" xmlns="http://www.w3.org/2000/svg" xmlns:xlink="http://www.w3.org/1999/xlink">
 <defs>
  <style type="text/css">
*{stroke-linecap:butt;stroke-linejoin:round;}
  </style>
 </defs>
 <g id="figure_1">
  <g id="patch_1">
   <path d="M 0 263.693492 
L 395.328125 263.693492 
L 395.328125 0 
L 0 0 
z
"/>
  </g>
  <g id="axes_1">
   <g id="patch_2">
    <path d="M 53.328125 226.137242 
L 388.128125 226.137242 
L 388.128125 8.697242 
L 53.328125 8.697242 
z
"/>
   </g>
   <g id="patch_3">
    <path clip-path="url(#pa58382315b)" d="M 132.34717 226.137242 
L 133.40818 226.137242 
L 133.40818 226.014306 
L 132.34717 226.014306 
z
" style="fill:#8dd3c7;"/>
   </g>
   <g id="patch_4">
    <path clip-path="url(#pa58382315b)" d="M 133.40818 226.137242 
L 134.46919 226.137242 
L 134.46919 226.014306 
L 133.40818 226.014306 
z
" style="fill:#8dd3c7;"/>
   </g>
   <g id="patch_5">
    <path clip-path="url(#pa58382315b)" d="M 134.46919 226.137242 
L 135.5302 226.137242 
L 135.5302 225.952838 
L 134.46919 225.952838 
z
" style="fill:#8dd3c7;"/>
   </g>
   <g id="patch_6">
    <path clip-path="url(#pa58382315b)" d="M 135.5302 226.137242 
L 136.59121 226.137242 
L 136.59121 225.89137 
L 135.5302 225.89137 
z
" style="fill:#8dd3c7;"/>
   </g>
   <g id="patch_7">
    <path clip-path="url(#pa58382315b)" d="M 136.59121 226.137242 
L 137.65222 226.137242 
L 137.65222 225.706966 
L 136.59121 225.706966 
z
" style="fill:#8dd3c7;"/>
   </g>
   <g id="patch_8">
    <path clip-path="url(#pa58382315b)" d="M 137.65222 226.137242 
L 138.71323 226.137242 
L 138.71323 225.706966 
L 137.65222 225.706966 
z
" style="fill:#8dd3c7;"/>
   </g>
   <g id="patch_9">
    <path clip-path="url(#pa58382315b)" d="M 138.71323 226.137242 
L 139.77424 226.137242 
L 139.77424 225.153754 
L 138.71323 225.153754 
z
" style="fill:#8dd3c7;"/>
   </g>
   <g id="patch_10">
    <path clip-path="url(#pa58382315b)" d="M 139.77424 226.137242 
L 140.83525 226.137242 
L 140.83525 224.723478 
L 139.77424 224.723478 
z
" style="fill:#8dd3c7;"/>
   </g>
   <g id="patch_11">
    <path clip-path="url(#pa58382315b)" d="M 140.83525 226.137242 
L 141.896259 226.137242 
L 141.896259 224.35467 
L 140.83525 224.35467 
z
" style="fill:#8dd3c7;"/>
   </g>
   <g id="patch_12">
    <path clip-path="url(#pa58382315b)" d="M 141.896259 226.137242 
L 142.957269 226.137242 
L 142.957269 223.862926 
L 141.896259 223.862926 
z
" style="fill:#8dd3c7;"/>
   </g>
   <g id="patch_13">
    <path clip-path="url(#pa58382315b)" d="M 142.957269 226.137242 
L 144.018279 226.137242 
L 144.018279 222.264757 
L 142.957269 222.264757 
z
" style="fill:#8dd3c7;"/>
   </g>
   <g id="patch_14">
    <path clip-path="url(#pa58382315b)" d="M 144.018279 226.137242 
L 145.079289 226.137242 
L 145.079289 220.482185 
L 144.018279 220.482185 
z
" style="fill:#8dd3c7;"/>
   </g>
   <g id="patch_15">
    <path clip-path="url(#pa58382315b)" d="M 145.079289 226.137242 
L 146.140299 226.137242 
L 146.140299 220.113377 
L 145.079289 220.113377 
z
" style="fill:#8dd3c7;"/>
   </g>
   <g id="patch_16">
    <path clip-path="url(#pa58382315b)" d="M 146.140299 226.137242 
L 147.201309 226.137242 
L 147.201309 217.408785 
L 146.140299 217.408785 
z
" style="fill:#8dd3c7;"/>
   </g>
   <g id="patch_17">
    <path clip-path="url(#pa58382315b)" d="M 147.201309 226.137242 
L 148.262319 226.137242 
L 148.262319 215.073001 
L 147.201309 215.073001 
z
" style="fill:#8dd3c7;"/>
   </g>
   <g id="patch_18">
    <path clip-path="url(#pa58382315b)" d="M 148.262319 226.137242 
L 149.323329 226.137242 
L 149.323329 211.876664 
L 148.262319 211.876664 
z
" style="fill:#8dd3c7;"/>
   </g>
   <g id="patch_19">
    <path clip-path="url(#pa58382315b)" d="M 149.323329 226.137242 
L 150.384339 226.137242 
L 150.384339 208.741796 
L 149.323329 208.741796 
z
" style="fill:#8dd3c7;"/>
   </g>
   <g id="patch_20">
    <path clip-path="url(#pa58382315b)" d="M 150.384339 226.137242 
L 151.445349 226.137242 
L 151.445349 201.242699 
L 150.384339 201.242699 
z
" style="fill:#8dd3c7;"/>
   </g>
   <g id="patch_21">
    <path clip-path="url(#pa58382315b)" d="M 151.445349 226.137242 
L 152.506359 226.137242 
L 152.506359 196.140855 
L 151.445349 196.140855 
z
" style="fill:#8dd3c7;"/>
   </g>
   <g id="patch_22">
    <path clip-path="url(#pa58382315b)" d="M 152.506359 226.137242 
L 153.567368 226.137242 
L 153.567368 191.776626 
L 152.506359 191.776626 
z
" style="fill:#8dd3c7;"/>
   </g>
   <g id="patch_23">
    <path clip-path="url(#pa58382315b)" d="M 153.567368 226.137242 
L 154.628378 226.137242 
L 154.628378 185.998634 
L 153.567368 185.998634 
z
" style="fill:#8dd3c7;"/>
   </g>
   <g id="patch_24">
    <path clip-path="url(#pa58382315b)" d="M 154.628378 226.137242 
L 155.689388 226.137242 
L 155.689388 180.527981 
L 154.628378 180.527981 
z
" style="fill:#8dd3c7;"/>
   </g>
   <g id="patch_25">
    <path clip-path="url(#pa58382315b)" d="M 155.689388 226.137242 
L 156.750398 226.137242 
L 156.750398 166.267403 
L 155.689388 166.267403 
z
" style="fill:#8dd3c7;"/>
   </g>
   <g id="patch_26">
    <path clip-path="url(#pa58382315b)" d="M 156.750398 226.137242 
L 157.811408 226.137242 
L 157.811408 160.243539 
L 156.750398 160.243539 
z
" style="fill:#8dd3c7;"/>
   </g>
   <g id="patch_27">
    <path clip-path="url(#pa58382315b)" d="M 157.811408 226.137242 
L 158.872418 226.137242 
L 158.872418 155.26463 
L 157.811408 155.26463 
z
" style="fill:#8dd3c7;"/>
   </g>
   <g id="patch_28">
    <path clip-path="url(#pa58382315b)" d="M 158.872418 226.137242 
L 159.933428 226.137242 
L 159.933428 149.73251 
L 158.872418 149.73251 
z
" style="fill:#8dd3c7;"/>
   </g>
   <g id="patch_29">
    <path clip-path="url(#pa58382315b)" d="M 159.933428 226.137242 
L 160.994438 226.137242 
L 160.994438 140.696713 
L 159.933428 140.696713 
z
" style="fill:#8dd3c7;"/>
   </g>
   <g id="patch_30">
    <path clip-path="url(#pa58382315b)" d="M 160.994438 226.137242 
L 162.055448 226.137242 
L 162.055448 135.348996 
L 160.994438 135.348996 
z
" style="fill:#8dd3c7;"/>
   </g>
   <g id="patch_31">
    <path clip-path="url(#pa58382315b)" d="M 162.055448 226.137242 
L 163.116458 226.137242 
L 163.116458 119.367314 
L 162.055448 119.367314 
z
" style="fill:#8dd3c7;"/>
   </g>
   <g id="patch_32">
    <path clip-path="url(#pa58382315b)" d="M 163.116458 226.137242 
L 164.177468 226.137242 
L 164.177468 110.147113 
L 163.116458 110.147113 
z
" style="fill:#8dd3c7;"/>
   </g>
   <g id="patch_33">
    <path clip-path="url(#pa58382315b)" d="M 164.177468 226.137242 
L 165.238477 226.137242 
L 165.238477 109.102157 
L 164.177468 109.102157 
z
" style="fill:#8dd3c7;"/>
   </g>
   <g id="patch_34">
    <path clip-path="url(#pa58382315b)" d="M 165.238477 226.137242 
L 166.299487 226.137242 
L 166.299487 93.550752 
L 165.238477 93.550752 
z
" style="fill:#8dd3c7;"/>
   </g>
   <g id="patch_35">
    <path clip-path="url(#pa58382315b)" d="M 166.299487 226.137242 
L 167.360497 226.137242 
L 167.360497 78.368154 
L 166.299487 78.368154 
z
" style="fill:#8dd3c7;"/>
   </g>
   <g id="patch_36">
    <path clip-path="url(#pa58382315b)" d="M 167.360497 226.137242 
L 168.421507 226.137242 
L 168.421507 81.011278 
L 167.360497 81.011278 
z
" style="fill:#8dd3c7;"/>
   </g>
   <g id="patch_37">
    <path clip-path="url(#pa58382315b)" d="M 168.421507 226.137242 
L 169.482517 226.137242 
L 169.482517 66.136021 
L 168.421507 66.136021 
z
" style="fill:#8dd3c7;"/>
   </g>
   <g id="patch_38">
    <path clip-path="url(#pa58382315b)" d="M 169.482517 226.137242 
L 170.543527 226.137242 
L 170.543527 64.046108 
L 169.482517 64.046108 
z
" style="fill:#8dd3c7;"/>
   </g>
   <g id="patch_39">
    <path clip-path="url(#pa58382315b)" d="M 170.543527 226.137242 
L 171.604537 226.137242 
L 171.604537 60.849772 
L 170.543527 60.849772 
z
" style="fill:#8dd3c7;"/>
   </g>
   <g id="patch_40">
    <path clip-path="url(#pa58382315b)" d="M 171.604537 226.137242 
L 172.665547 226.137242 
L 172.665547 57.22316 
L 171.604537 57.22316 
z
" style="fill:#8dd3c7;"/>
   </g>
   <g id="patch_41">
    <path clip-path="url(#pa58382315b)" d="M 172.665547 226.137242 
L 173.726557 226.137242 
L 173.726557 43.146986 
L 172.665547 43.146986 
z
" style="fill:#8dd3c7;"/>
   </g>
   <g id="patch_42">
    <path clip-path="url(#pa58382315b)" d="M 173.726557 226.137242 
L 174.787567 226.137242 
L 174.787567 44.191942 
L 173.726557 44.191942 
z
" style="fill:#8dd3c7;"/>
   </g>
   <g id="patch_43">
    <path clip-path="url(#pa58382315b)" d="M 174.787567 226.137242 
L 175.848576 226.137242 
L 175.848576 40.934138 
L 174.787567 40.934138 
z
" style="fill:#8dd3c7;"/>
   </g>
   <g id="patch_44">
    <path clip-path="url(#pa58382315b)" d="M 175.848576 226.137242 
L 176.909586 226.137242 
L 176.909586 44.437814 
L 175.848576 44.437814 
z
" style="fill:#8dd3c7;"/>
   </g>
   <g id="patch_45">
    <path clip-path="url(#pa58382315b)" d="M 176.909586 226.137242 
L 177.970596 226.137242 
L 177.970596 45.236898 
L 176.909586 45.236898 
z
" style="fill:#8dd3c7;"/>
   </g>
   <g id="patch_46">
    <path clip-path="url(#pa58382315b)" d="M 177.970596 226.137242 
L 179.031606 226.137242 
L 179.031606 38.782758 
L 177.970596 38.782758 
z
" style="fill:#8dd3c7;"/>
   </g>
   <g id="patch_47">
    <path clip-path="url(#pa58382315b)" d="M 179.031606 226.137242 
L 180.092616 226.137242 
L 180.092616 37.553398 
L 179.031606 37.553398 
z
" style="fill:#8dd3c7;"/>
   </g>
   <g id="patch_48">
    <path clip-path="url(#pa58382315b)" d="M 180.092616 226.137242 
L 181.153626 226.137242 
L 181.153626 39.397438 
L 180.092616 39.397438 
z
" style="fill:#8dd3c7;"/>
   </g>
   <g id="patch_49">
    <path clip-path="url(#pa58382315b)" d="M 181.153626 226.137242 
L 182.214636 226.137242 
L 182.214636 47.511215 
L 181.153626 47.511215 
z
" style="fill:#8dd3c7;"/>
   </g>
   <g id="patch_50">
    <path clip-path="url(#pa58382315b)" d="M 182.214636 226.137242 
L 183.275646 226.137242 
L 183.275646 45.79011 
L 182.214636 45.79011 
z
" style="fill:#8dd3c7;"/>
   </g>
   <g id="patch_51">
    <path clip-path="url(#pa58382315b)" d="M 183.275646 226.137242 
L 184.336656 226.137242 
L 184.336656 54.580035 
L 183.275646 54.580035 
z
" style="fill:#8dd3c7;"/>
   </g>
   <g id="patch_52">
    <path clip-path="url(#pa58382315b)" d="M 184.336656 226.137242 
L 185.397666 226.137242 
L 185.397666 59.436008 
L 184.336656 59.436008 
z
" style="fill:#8dd3c7;"/>
   </g>
   <g id="patch_53">
    <path clip-path="url(#pa58382315b)" d="M 185.397666 226.137242 
L 186.458676 226.137242 
L 186.458676 66.258957 
L 185.397666 66.258957 
z
" style="fill:#8dd3c7;"/>
   </g>
   <g id="patch_54">
    <path clip-path="url(#pa58382315b)" d="M 186.458676 226.137242 
L 187.519685 226.137242 
L 187.519685 76.155306 
L 186.458676 76.155306 
z
" style="fill:#8dd3c7;"/>
   </g>
   <g id="patch_55">
    <path clip-path="url(#pa58382315b)" d="M 187.519685 226.137242 
L 188.580695 226.137242 
L 188.580695 85.682847 
L 187.519685 85.682847 
z
" style="fill:#8dd3c7;"/>
   </g>
   <g id="patch_56">
    <path clip-path="url(#pa58382315b)" d="M 188.580695 226.137242 
L 189.641705 226.137242 
L 189.641705 88.633311 
L 188.580695 88.633311 
z
" style="fill:#8dd3c7;"/>
   </g>
   <g id="patch_57">
    <path clip-path="url(#pa58382315b)" d="M 189.641705 226.137242 
L 190.702715 226.137242 
L 190.702715 98.099384 
L 189.641705 98.099384 
z
" style="fill:#8dd3c7;"/>
   </g>
   <g id="patch_58">
    <path clip-path="url(#pa58382315b)" d="M 190.702715 226.137242 
L 191.763725 226.137242 
L 191.763725 108.241605 
L 190.702715 108.241605 
z
" style="fill:#8dd3c7;"/>
   </g>
   <g id="patch_59">
    <path clip-path="url(#pa58382315b)" d="M 191.763725 226.137242 
L 192.824735 226.137242 
L 192.824735 113.896662 
L 191.763725 113.896662 
z
" style="fill:#8dd3c7;"/>
   </g>
   <g id="patch_60">
    <path clip-path="url(#pa58382315b)" d="M 192.824735 226.137242 
L 193.885745 226.137242 
L 193.885745 120.965483 
L 192.824735 120.965483 
z
" style="fill:#8dd3c7;"/>
   </g>
   <g id="patch_61">
    <path clip-path="url(#pa58382315b)" d="M 193.885745 226.137242 
L 194.946755 226.137242 
L 194.946755 127.849899 
L 193.885745 127.849899 
z
" style="fill:#8dd3c7;"/>
   </g>
   <g id="patch_62">
    <path clip-path="url(#pa58382315b)" d="M 194.946755 226.137242 
L 196.007765 226.137242 
L 196.007765 141.004053 
L 194.946755 141.004053 
z
" style="fill:#8dd3c7;"/>
   </g>
   <g id="patch_63">
    <path clip-path="url(#pa58382315b)" d="M 196.007765 226.137242 
L 197.068775 226.137242 
L 197.068775 145.921493 
L 196.007765 145.921493 
z
" style="fill:#8dd3c7;"/>
   </g>
   <g id="patch_64">
    <path clip-path="url(#pa58382315b)" d="M 197.068775 226.137242 
L 198.129785 226.137242 
L 198.129785 154.465546 
L 197.068775 154.465546 
z
" style="fill:#8dd3c7;"/>
   </g>
   <g id="patch_65">
    <path clip-path="url(#pa58382315b)" d="M 198.129785 226.137242 
L 199.190794 226.137242 
L 199.190794 156.985734 
L 198.129785 156.985734 
z
" style="fill:#8dd3c7;"/>
   </g>
   <g id="patch_66">
    <path clip-path="url(#pa58382315b)" d="M 199.190794 226.137242 
L 200.251804 226.137242 
L 200.251804 169.279336 
L 199.190794 169.279336 
z
" style="fill:#8dd3c7;"/>
   </g>
   <g id="patch_67">
    <path clip-path="url(#pa58382315b)" d="M 200.251804 226.137242 
L 201.312814 226.137242 
L 201.312814 173.643564 
L 200.251804 173.643564 
z
" style="fill:#8dd3c7;"/>
   </g>
   <g id="patch_68">
    <path clip-path="url(#pa58382315b)" d="M 201.312814 226.137242 
L 202.373824 226.137242 
L 202.373824 182.310553 
L 201.312814 182.310553 
z
" style="fill:#8dd3c7;"/>
   </g>
   <g id="patch_69">
    <path clip-path="url(#pa58382315b)" d="M 202.373824 226.137242 
L 203.434834 226.137242 
L 203.434834 186.42891 
L 202.373824 186.42891 
z
" style="fill:#8dd3c7;"/>
   </g>
   <g id="patch_70">
    <path clip-path="url(#pa58382315b)" d="M 203.434834 226.137242 
L 204.495844 226.137242 
L 204.495844 192.637178 
L 203.434834 192.637178 
z
" style="fill:#8dd3c7;"/>
   </g>
   <g id="patch_71">
    <path clip-path="url(#pa58382315b)" d="M 204.495844 226.137242 
L 205.556854 226.137242 
L 205.556854 196.079387 
L 204.495844 196.079387 
z
" style="fill:#8dd3c7;"/>
   </g>
   <g id="patch_72">
    <path clip-path="url(#pa58382315b)" d="M 205.556854 226.137242 
L 206.617864 226.137242 
L 206.617864 200.689487 
L 205.556854 200.689487 
z
" style="fill:#8dd3c7;"/>
   </g>
   <g id="patch_73">
    <path clip-path="url(#pa58382315b)" d="M 206.617864 226.137242 
L 207.678874 226.137242 
L 207.678874 204.439036 
L 206.617864 204.439036 
z
" style="fill:#8dd3c7;"/>
   </g>
   <g id="patch_74">
    <path clip-path="url(#pa58382315b)" d="M 207.678874 226.137242 
L 208.739884 226.137242 
L 208.739884 206.590416 
L 207.678874 206.590416 
z
" style="fill:#8dd3c7;"/>
   </g>
   <g id="patch_75">
    <path clip-path="url(#pa58382315b)" d="M 208.739884 226.137242 
L 209.800894 226.137242 
L 209.800894 212.429876 
L 208.739884 212.429876 
z
" style="fill:#8dd3c7;"/>
   </g>
   <g id="patch_76">
    <path clip-path="url(#pa58382315b)" d="M 209.800894 226.137242 
L 210.861903 226.137242 
L 210.861903 212.860152 
L 209.800894 212.860152 
z
" style="fill:#8dd3c7;"/>
   </g>
   <g id="patch_77">
    <path clip-path="url(#pa58382315b)" d="M 210.861903 226.137242 
L 211.922913 226.137242 
L 211.922913 216.671169 
L 210.861903 216.671169 
z
" style="fill:#8dd3c7;"/>
   </g>
   <g id="patch_78">
    <path clip-path="url(#pa58382315b)" d="M 211.922913 226.137242 
L 212.983923 226.137242 
L 212.983923 219.068421 
L 211.922913 219.068421 
z
" style="fill:#8dd3c7;"/>
   </g>
   <g id="patch_79">
    <path clip-path="url(#pa58382315b)" d="M 212.983923 226.137242 
L 214.044933 226.137242 
L 214.044933 218.699613 
L 212.983923 218.699613 
z
" style="fill:#8dd3c7;"/>
   </g>
   <g id="patch_80">
    <path clip-path="url(#pa58382315b)" d="M 214.044933 226.137242 
L 215.105943 226.137242 
L 215.105943 220.051909 
L 214.044933 220.051909 
z
" style="fill:#8dd3c7;"/>
   </g>
   <g id="patch_81">
    <path clip-path="url(#pa58382315b)" d="M 215.105943 226.137242 
L 216.166953 226.137242 
L 216.166953 221.527141 
L 215.105943 221.527141 
z
" style="fill:#8dd3c7;"/>
   </g>
   <g id="patch_82">
    <path clip-path="url(#pa58382315b)" d="M 216.166953 226.137242 
L 217.227963 226.137242 
L 217.227963 223.309714 
L 216.166953 223.309714 
z
" style="fill:#8dd3c7;"/>
   </g>
   <g id="patch_83">
    <path clip-path="url(#pa58382315b)" d="M 217.227963 226.137242 
L 218.288973 226.137242 
L 218.288973 222.940906 
L 217.227963 222.940906 
z
" style="fill:#8dd3c7;"/>
   </g>
   <g id="patch_84">
    <path clip-path="url(#pa58382315b)" d="M 218.288973 226.137242 
L 219.349983 226.137242 
L 219.349983 224.35467 
L 218.288973 224.35467 
z
" style="fill:#8dd3c7;"/>
   </g>
   <g id="patch_85">
    <path clip-path="url(#pa58382315b)" d="M 219.349983 226.137242 
L 220.410993 226.137242 
L 220.410993 224.35467 
L 219.349983 224.35467 
z
" style="fill:#8dd3c7;"/>
   </g>
   <g id="patch_86">
    <path clip-path="url(#pa58382315b)" d="M 220.410993 226.137242 
L 221.472003 226.137242 
L 221.472003 225.399626 
L 220.410993 225.399626 
z
" style="fill:#8dd3c7;"/>
   </g>
   <g id="patch_87">
    <path clip-path="url(#pa58382315b)" d="M 221.472003 226.137242 
L 222.533012 226.137242 
L 222.533012 225.215222 
L 221.472003 225.215222 
z
" style="fill:#8dd3c7;"/>
   </g>
   <g id="patch_88">
    <path clip-path="url(#pa58382315b)" d="M 222.533012 226.137242 
L 223.594022 226.137242 
L 223.594022 225.706966 
L 222.533012 225.706966 
z
" style="fill:#8dd3c7;"/>
   </g>
   <g id="patch_89">
    <path clip-path="url(#pa58382315b)" d="M 223.594022 226.137242 
L 224.655032 226.137242 
L 224.655032 225.58403 
L 223.594022 225.58403 
z
" style="fill:#8dd3c7;"/>
   </g>
   <g id="patch_90">
    <path clip-path="url(#pa58382315b)" d="M 224.655032 226.137242 
L 225.716042 226.137242 
L 225.716042 225.829902 
L 224.655032 225.829902 
z
" style="fill:#8dd3c7;"/>
   </g>
   <g id="patch_91">
    <path clip-path="url(#pa58382315b)" d="M 225.716042 226.137242 
L 226.777052 226.137242 
L 226.777052 225.952838 
L 225.716042 225.952838 
z
" style="fill:#8dd3c7;"/>
   </g>
   <g id="patch_92">
    <path clip-path="url(#pa58382315b)" d="M 226.777052 226.137242 
L 227.838062 226.137242 
L 227.838062 226.075774 
L 226.777052 226.075774 
z
" style="fill:#8dd3c7;"/>
   </g>
   <g id="patch_93">
    <path clip-path="url(#pa58382315b)" d="M 227.838062 226.137242 
L 228.899072 226.137242 
L 228.899072 226.137242 
L 227.838062 226.137242 
z
" style="fill:#8dd3c7;"/>
   </g>
   <g id="patch_94">
    <path clip-path="url(#pa58382315b)" d="M 228.899072 226.137242 
L 229.960082 226.137242 
L 229.960082 226.137242 
L 228.899072 226.137242 
z
" style="fill:#8dd3c7;"/>
   </g>
   <g id="patch_95">
    <path clip-path="url(#pa58382315b)" d="M 229.960082 226.137242 
L 231.021092 226.137242 
L 231.021092 226.137242 
L 229.960082 226.137242 
z
" style="fill:#8dd3c7;"/>
   </g>
   <g id="patch_96">
    <path clip-path="url(#pa58382315b)" d="M 231.021092 226.137242 
L 232.082102 226.137242 
L 232.082102 226.137242 
L 231.021092 226.137242 
z
" style="fill:#8dd3c7;"/>
   </g>
   <g id="patch_97">
    <path clip-path="url(#pa58382315b)" d="M 232.082102 226.137242 
L 233.143112 226.137242 
L 233.143112 226.137242 
L 232.082102 226.137242 
z
" style="fill:#8dd3c7;"/>
   </g>
   <g id="patch_98">
    <path clip-path="url(#pa58382315b)" d="M 233.143112 226.137242 
L 234.204121 226.137242 
L 234.204121 226.137242 
L 233.143112 226.137242 
z
" style="fill:#8dd3c7;"/>
   </g>
   <g id="patch_99">
    <path clip-path="url(#pa58382315b)" d="M 234.204121 226.137242 
L 235.265131 226.137242 
L 235.265131 226.137242 
L 234.204121 226.137242 
z
" style="fill:#8dd3c7;"/>
   </g>
   <g id="patch_100">
    <path clip-path="url(#pa58382315b)" d="M 235.265131 226.137242 
L 236.326141 226.137242 
L 236.326141 226.075774 
L 235.265131 226.075774 
z
" style="fill:#8dd3c7;"/>
   </g>
   <g id="patch_101">
    <path clip-path="url(#pa58382315b)" d="M 236.326141 226.137242 
L 237.387151 226.137242 
L 237.387151 226.137242 
L 236.326141 226.137242 
z
" style="fill:#8dd3c7;"/>
   </g>
   <g id="patch_102">
    <path clip-path="url(#pa58382315b)" d="M 237.387151 226.137242 
L 238.448161 226.137242 
L 238.448161 226.075774 
L 237.387151 226.075774 
z
" style="fill:#8dd3c7;"/>
   </g>
   <g id="patch_103">
    <path clip-path="url(#pa58382315b)" d="M 209.372984 226.137242 
L 211.008353 226.137242 
L 211.008353 226.075774 
L 209.372984 226.075774 
z
" style="fill:#feffb3;"/>
   </g>
   <g id="patch_104">
    <path clip-path="url(#pa58382315b)" d="M 211.008353 226.137242 
L 212.643723 226.137242 
L 212.643723 226.137242 
L 211.008353 226.137242 
z
" style="fill:#feffb3;"/>
   </g>
   <g id="patch_105">
    <path clip-path="url(#pa58382315b)" d="M 212.643723 226.137242 
L 214.279092 226.137242 
L 214.279092 226.075774 
L 212.643723 226.075774 
z
" style="fill:#feffb3;"/>
   </g>
   <g id="patch_106">
    <path clip-path="url(#pa58382315b)" d="M 214.279092 226.137242 
L 215.914462 226.137242 
L 215.914462 226.075774 
L 214.279092 226.075774 
z
" style="fill:#feffb3;"/>
   </g>
   <g id="patch_107">
    <path clip-path="url(#pa58382315b)" d="M 215.914462 226.137242 
L 217.549832 226.137242 
L 217.549832 226.137242 
L 215.914462 226.137242 
z
" style="fill:#feffb3;"/>
   </g>
   <g id="patch_108">
    <path clip-path="url(#pa58382315b)" d="M 217.549832 226.137242 
L 219.185201 226.137242 
L 219.185201 226.137242 
L 217.549832 226.137242 
z
" style="fill:#feffb3;"/>
   </g>
   <g id="patch_109">
    <path clip-path="url(#pa58382315b)" d="M 219.185201 226.137242 
L 220.820571 226.137242 
L 220.820571 226.137242 
L 219.185201 226.137242 
z
" style="fill:#feffb3;"/>
   </g>
   <g id="patch_110">
    <path clip-path="url(#pa58382315b)" d="M 220.820571 226.137242 
L 222.45594 226.137242 
L 222.45594 226.075774 
L 220.820571 226.075774 
z
" style="fill:#feffb3;"/>
   </g>
   <g id="patch_111">
    <path clip-path="url(#pa58382315b)" d="M 222.45594 226.137242 
L 224.09131 226.137242 
L 224.09131 226.137242 
L 222.45594 226.137242 
z
" style="fill:#feffb3;"/>
   </g>
   <g id="patch_112">
    <path clip-path="url(#pa58382315b)" d="M 224.09131 226.137242 
L 225.726679 226.137242 
L 225.726679 225.89137 
L 224.09131 225.89137 
z
" style="fill:#feffb3;"/>
   </g>
   <g id="patch_113">
    <path clip-path="url(#pa58382315b)" d="M 225.726679 226.137242 
L 227.362049 226.137242 
L 227.362049 225.829902 
L 225.726679 225.829902 
z
" style="fill:#feffb3;"/>
   </g>
   <g id="patch_114">
    <path clip-path="url(#pa58382315b)" d="M 227.362049 226.137242 
L 228.997419 226.137242 
L 228.997419 226.014306 
L 227.362049 226.014306 
z
" style="fill:#feffb3;"/>
   </g>
   <g id="patch_115">
    <path clip-path="url(#pa58382315b)" d="M 228.997419 226.137242 
L 230.632788 226.137242 
L 230.632788 225.399626 
L 228.997419 225.399626 
z
" style="fill:#feffb3;"/>
   </g>
   <g id="patch_116">
    <path clip-path="url(#pa58382315b)" d="M 230.632788 226.137242 
L 232.268158 226.137242 
L 232.268158 225.030818 
L 230.632788 225.030818 
z
" style="fill:#feffb3;"/>
   </g>
   <g id="patch_117">
    <path clip-path="url(#pa58382315b)" d="M 232.268158 226.137242 
L 233.903527 226.137242 
L 233.903527 225.092286 
L 232.268158 225.092286 
z
" style="fill:#feffb3;"/>
   </g>
   <g id="patch_118">
    <path clip-path="url(#pa58382315b)" d="M 233.903527 226.137242 
L 235.538897 226.137242 
L 235.538897 223.985862 
L 233.903527 223.985862 
z
" style="fill:#feffb3;"/>
   </g>
   <g id="patch_119">
    <path clip-path="url(#pa58382315b)" d="M 235.538897 226.137242 
L 237.174267 226.137242 
L 237.174267 223.12531 
L 235.538897 223.12531 
z
" style="fill:#feffb3;"/>
   </g>
   <g id="patch_120">
    <path clip-path="url(#pa58382315b)" d="M 237.174267 226.137242 
L 238.809636 226.137242 
L 238.809636 222.449162 
L 237.174267 222.449162 
z
" style="fill:#feffb3;"/>
   </g>
   <g id="patch_121">
    <path clip-path="url(#pa58382315b)" d="M 238.809636 226.137242 
L 240.445006 226.137242 
L 240.445006 220.482185 
L 238.809636 220.482185 
z
" style="fill:#feffb3;"/>
   </g>
   <g id="patch_122">
    <path clip-path="url(#pa58382315b)" d="M 240.445006 226.137242 
L 242.080375 226.137242 
L 242.080375 218.576677 
L 240.445006 218.576677 
z
" style="fill:#feffb3;"/>
   </g>
   <g id="patch_123">
    <path clip-path="url(#pa58382315b)" d="M 242.080375 226.137242 
L 243.715745 226.137242 
L 243.715745 216.363829 
L 242.080375 216.363829 
z
" style="fill:#feffb3;"/>
   </g>
   <g id="patch_124">
    <path clip-path="url(#pa58382315b)" d="M 243.715745 226.137242 
L 245.351115 226.137242 
L 245.351115 213.474833 
L 243.715745 213.474833 
z
" style="fill:#feffb3;"/>
   </g>
   <g id="patch_125">
    <path clip-path="url(#pa58382315b)" d="M 245.351115 226.137242 
L 246.986484 226.137242 
L 246.986484 210.585836 
L 245.351115 210.585836 
z
" style="fill:#feffb3;"/>
   </g>
   <g id="patch_126">
    <path clip-path="url(#pa58382315b)" d="M 246.986484 226.137242 
L 248.621854 226.137242 
L 248.621854 204.561972 
L 246.986484 204.561972 
z
" style="fill:#feffb3;"/>
   </g>
   <g id="patch_127">
    <path clip-path="url(#pa58382315b)" d="M 248.621854 226.137242 
L 250.257223 226.137242 
L 250.257223 201.181231 
L 248.621854 201.181231 
z
" style="fill:#feffb3;"/>
   </g>
   <g id="patch_128">
    <path clip-path="url(#pa58382315b)" d="M 250.257223 226.137242 
L 251.892593 226.137242 
L 251.892593 194.972963 
L 250.257223 194.972963 
z
" style="fill:#feffb3;"/>
   </g>
   <g id="patch_129">
    <path clip-path="url(#pa58382315b)" d="M 251.892593 226.137242 
L 253.527963 226.137242 
L 253.527963 189.625246 
L 251.892593 189.625246 
z
" style="fill:#feffb3;"/>
   </g>
   <g id="patch_130">
    <path clip-path="url(#pa58382315b)" d="M 253.527963 226.137242 
L 255.163332 226.137242 
L 255.163332 181.081193 
L 253.527963 181.081193 
z
" style="fill:#feffb3;"/>
   </g>
   <g id="patch_131">
    <path clip-path="url(#pa58382315b)" d="M 255.163332 226.137242 
L 256.798702 226.137242 
L 256.798702 174.07384 
L 255.163332 174.07384 
z
" style="fill:#feffb3;"/>
   </g>
   <g id="patch_132">
    <path clip-path="url(#pa58382315b)" d="M 256.798702 226.137242 
L 258.434071 226.137242 
L 258.434071 165.283915 
L 256.798702 165.283915 
z
" style="fill:#feffb3;"/>
   </g>
   <g id="patch_133">
    <path clip-path="url(#pa58382315b)" d="M 258.434071 226.137242 
L 260.069441 226.137242 
L 260.069441 155.326098 
L 258.434071 155.326098 
z
" style="fill:#feffb3;"/>
   </g>
   <g id="patch_134">
    <path clip-path="url(#pa58382315b)" d="M 260.069441 226.137242 
L 261.704811 226.137242 
L 261.704811 146.659109 
L 260.069441 146.659109 
z
" style="fill:#feffb3;"/>
   </g>
   <g id="patch_135">
    <path clip-path="url(#pa58382315b)" d="M 261.704811 226.137242 
L 263.34018 226.137242 
L 263.34018 136.025144 
L 261.704811 136.025144 
z
" style="fill:#feffb3;"/>
   </g>
   <g id="patch_136">
    <path clip-path="url(#pa58382315b)" d="M 263.34018 226.137242 
L 264.97555 226.137242 
L 264.97555 123.239799 
L 263.34018 123.239799 
z
" style="fill:#feffb3;"/>
   </g>
   <g id="patch_137">
    <path clip-path="url(#pa58382315b)" d="M 264.97555 226.137242 
L 266.610919 226.137242 
L 266.610919 116.10951 
L 264.97555 116.10951 
z
" style="fill:#feffb3;"/>
   </g>
   <g id="patch_138">
    <path clip-path="url(#pa58382315b)" d="M 266.610919 226.137242 
L 268.246289 226.137242 
L 268.246289 109.102157 
L 266.610919 109.102157 
z
" style="fill:#feffb3;"/>
   </g>
   <g id="patch_139">
    <path clip-path="url(#pa58382315b)" d="M 268.246289 226.137242 
L 269.881659 226.137242 
L 269.881659 86.912207 
L 268.246289 86.912207 
z
" style="fill:#feffb3;"/>
   </g>
   <g id="patch_140">
    <path clip-path="url(#pa58382315b)" d="M 269.881659 226.137242 
L 271.517028 226.137242 
L 271.517028 86.912207 
L 269.881659 86.912207 
z
" style="fill:#feffb3;"/>
   </g>
   <g id="patch_141">
    <path clip-path="url(#pa58382315b)" d="M 271.517028 226.137242 
L 273.152398 226.137242 
L 273.152398 71.176397 
L 271.517028 71.176397 
z
" style="fill:#feffb3;"/>
   </g>
   <g id="patch_142">
    <path clip-path="url(#pa58382315b)" d="M 273.152398 226.137242 
L 274.787767 226.137242 
L 274.787767 63.615832 
L 273.152398 63.615832 
z
" style="fill:#feffb3;"/>
   </g>
   <g id="patch_143">
    <path clip-path="url(#pa58382315b)" d="M 274.787767 226.137242 
L 276.423137 226.137242 
L 276.423137 56.116736 
L 274.787767 56.116736 
z
" style="fill:#feffb3;"/>
   </g>
   <g id="patch_144">
    <path clip-path="url(#pa58382315b)" d="M 276.423137 226.137242 
L 278.058507 226.137242 
L 278.058507 46.097451 
L 276.423137 46.097451 
z
" style="fill:#feffb3;"/>
   </g>
   <g id="patch_145">
    <path clip-path="url(#pa58382315b)" d="M 278.058507 226.137242 
L 279.693876 226.137242 
L 279.693876 40.135054 
L 278.058507 40.135054 
z
" style="fill:#feffb3;"/>
   </g>
   <g id="patch_146">
    <path clip-path="url(#pa58382315b)" d="M 279.693876 226.137242 
L 281.329246 226.137242 
L 281.329246 34.541465 
L 279.693876 34.541465 
z
" style="fill:#feffb3;"/>
   </g>
   <g id="patch_147">
    <path clip-path="url(#pa58382315b)" d="M 281.329246 226.137242 
L 282.964615 226.137242 
L 282.964615 29.316685 
L 281.329246 29.316685 
z
" style="fill:#feffb3;"/>
   </g>
   <g id="patch_148">
    <path clip-path="url(#pa58382315b)" d="M 282.964615 226.137242 
L 284.599985 226.137242 
L 284.599985 29.193749 
L 282.964615 29.193749 
z
" style="fill:#feffb3;"/>
   </g>
   <g id="patch_149">
    <path clip-path="url(#pa58382315b)" d="M 284.599985 226.137242 
L 286.235355 226.137242 
L 286.235355 22.862544 
L 284.599985 22.862544 
z
" style="fill:#feffb3;"/>
   </g>
   <g id="patch_150">
    <path clip-path="url(#pa58382315b)" d="M 286.235355 226.137242 
L 287.870724 226.137242 
L 287.870724 19.051528 
L 286.235355 19.051528 
z
" style="fill:#feffb3;"/>
   </g>
   <g id="patch_151">
    <path clip-path="url(#pa58382315b)" d="M 287.870724 226.137242 
L 289.506094 226.137242 
L 289.506094 25.198328 
L 287.870724 25.198328 
z
" style="fill:#feffb3;"/>
   </g>
   <g id="patch_152">
    <path clip-path="url(#pa58382315b)" d="M 289.506094 226.137242 
L 291.141463 226.137242 
L 291.141463 27.349709 
L 289.506094 27.349709 
z
" style="fill:#feffb3;"/>
   </g>
   <g id="patch_153">
    <path clip-path="url(#pa58382315b)" d="M 291.141463 226.137242 
L 292.776833 226.137242 
L 292.776833 25.75154 
L 291.141463 25.75154 
z
" style="fill:#feffb3;"/>
   </g>
   <g id="patch_154">
    <path clip-path="url(#pa58382315b)" d="M 292.776833 226.137242 
L 294.412203 226.137242 
L 294.412203 34.111189 
L 292.776833 34.111189 
z
" style="fill:#feffb3;"/>
   </g>
   <g id="patch_155">
    <path clip-path="url(#pa58382315b)" d="M 294.412203 226.137242 
L 296.047572 226.137242 
L 296.047572 37.061654 
L 294.412203 37.061654 
z
" style="fill:#feffb3;"/>
   </g>
   <g id="patch_156">
    <path clip-path="url(#pa58382315b)" d="M 296.047572 226.137242 
L 297.682942 226.137242 
L 297.682942 41.48735 
L 296.047572 41.48735 
z
" style="fill:#feffb3;"/>
   </g>
   <g id="patch_157">
    <path clip-path="url(#pa58382315b)" d="M 297.682942 226.137242 
L 299.318311 226.137242 
L 299.318311 51.691039 
L 297.682942 51.691039 
z
" style="fill:#feffb3;"/>
   </g>
   <g id="patch_158">
    <path clip-path="url(#pa58382315b)" d="M 299.318311 226.137242 
L 300.953681 226.137242 
L 300.953681 60.29656 
L 299.318311 60.29656 
z
" style="fill:#feffb3;"/>
   </g>
   <g id="patch_159">
    <path clip-path="url(#pa58382315b)" d="M 300.953681 226.137242 
L 302.589051 226.137242 
L 302.589051 67.119509 
L 300.953681 67.119509 
z
" style="fill:#feffb3;"/>
   </g>
   <g id="patch_160">
    <path clip-path="url(#pa58382315b)" d="M 302.589051 226.137242 
L 304.22442 226.137242 
L 304.22442 73.88099 
L 302.589051 73.88099 
z
" style="fill:#feffb3;"/>
   </g>
   <g id="patch_161">
    <path clip-path="url(#pa58382315b)" d="M 304.22442 226.137242 
L 305.85979 226.137242 
L 305.85979 82.425042 
L 304.22442 82.425042 
z
" style="fill:#feffb3;"/>
   </g>
   <g id="patch_162">
    <path clip-path="url(#pa58382315b)" d="M 305.85979 226.137242 
L 307.495159 226.137242 
L 307.495159 96.501216 
L 305.85979 96.501216 
z
" style="fill:#feffb3;"/>
   </g>
   <g id="patch_163">
    <path clip-path="url(#pa58382315b)" d="M 307.495159 226.137242 
L 309.130529 226.137242 
L 309.130529 109.655369 
L 307.495159 109.655369 
z
" style="fill:#feffb3;"/>
   </g>
   <g id="patch_164">
    <path clip-path="url(#pa58382315b)" d="M 309.130529 226.137242 
L 310.765899 226.137242 
L 310.765899 110.884729 
L 309.130529 110.884729 
z
" style="fill:#feffb3;"/>
   </g>
   <g id="patch_165">
    <path clip-path="url(#pa58382315b)" d="M 310.765899 226.137242 
L 312.401268 226.137242 
L 312.401268 123.547139 
L 310.765899 123.547139 
z
" style="fill:#feffb3;"/>
   </g>
   <g id="patch_166">
    <path clip-path="url(#pa58382315b)" d="M 312.401268 226.137242 
L 314.036638 226.137242 
L 314.036638 132.029724 
L 312.401268 132.029724 
z
" style="fill:#feffb3;"/>
   </g>
   <g id="patch_167">
    <path clip-path="url(#pa58382315b)" d="M 314.036638 226.137242 
L 315.672007 226.137242 
L 315.672007 142.663689 
L 314.036638 142.663689 
z
" style="fill:#feffb3;"/>
   </g>
   <g id="patch_168">
    <path clip-path="url(#pa58382315b)" d="M 315.672007 226.137242 
L 317.307377 226.137242 
L 317.307377 147.704065 
L 315.672007 147.704065 
z
" style="fill:#feffb3;"/>
   </g>
   <g id="patch_169">
    <path clip-path="url(#pa58382315b)" d="M 317.307377 226.137242 
L 318.942746 226.137242 
L 318.942746 162.026111 
L 317.307377 162.026111 
z
" style="fill:#feffb3;"/>
   </g>
   <g id="patch_170">
    <path clip-path="url(#pa58382315b)" d="M 318.942746 226.137242 
L 320.578116 226.137242 
L 320.578116 168.971996 
L 318.942746 168.971996 
z
" style="fill:#feffb3;"/>
   </g>
   <g id="patch_171">
    <path clip-path="url(#pa58382315b)" d="M 320.578116 226.137242 
L 322.213486 226.137242 
L 322.213486 175.426136 
L 320.578116 175.426136 
z
" style="fill:#feffb3;"/>
   </g>
   <g id="patch_172">
    <path clip-path="url(#pa58382315b)" d="M 322.213486 226.137242 
L 323.848855 226.137242 
L 323.848855 182.617893 
L 322.213486 182.617893 
z
" style="fill:#feffb3;"/>
   </g>
   <g id="patch_173">
    <path clip-path="url(#pa58382315b)" d="M 323.848855 226.137242 
L 325.484225 226.137242 
L 325.484225 190.854606 
L 323.848855 190.854606 
z
" style="fill:#feffb3;"/>
   </g>
   <g id="patch_174">
    <path clip-path="url(#pa58382315b)" d="M 325.484225 226.137242 
L 327.119594 226.137242 
L 327.119594 193.251858 
L 325.484225 193.251858 
z
" style="fill:#feffb3;"/>
   </g>
   <g id="patch_175">
    <path clip-path="url(#pa58382315b)" d="M 327.119594 226.137242 
L 328.754964 226.137242 
L 328.754964 197.739023 
L 327.119594 197.739023 
z
" style="fill:#feffb3;"/>
   </g>
   <g id="patch_176">
    <path clip-path="url(#pa58382315b)" d="M 328.754964 226.137242 
L 330.390334 226.137242 
L 330.390334 202.226187 
L 328.754964 202.226187 
z
" style="fill:#feffb3;"/>
   </g>
   <g id="patch_177">
    <path clip-path="url(#pa58382315b)" d="M 330.390334 226.137242 
L 332.025703 226.137242 
L 332.025703 206.959224 
L 330.390334 206.959224 
z
" style="fill:#feffb3;"/>
   </g>
   <g id="patch_178">
    <path clip-path="url(#pa58382315b)" d="M 332.025703 226.137242 
L 333.661073 226.137242 
L 333.661073 210.094092 
L 332.025703 210.094092 
z
" style="fill:#feffb3;"/>
   </g>
   <g id="patch_179">
    <path clip-path="url(#pa58382315b)" d="M 333.661073 226.137242 
L 335.296442 226.137242 
L 335.296442 213.905109 
L 333.661073 213.905109 
z
" style="fill:#feffb3;"/>
   </g>
   <g id="patch_180">
    <path clip-path="url(#pa58382315b)" d="M 335.296442 226.137242 
L 336.931812 226.137242 
L 336.931812 216.056489 
L 335.296442 216.056489 
z
" style="fill:#feffb3;"/>
   </g>
   <g id="patch_181">
    <path clip-path="url(#pa58382315b)" d="M 336.931812 226.137242 
L 338.567182 226.137242 
L 338.567182 219.191357 
L 336.931812 219.191357 
z
" style="fill:#feffb3;"/>
   </g>
   <g id="patch_182">
    <path clip-path="url(#pa58382315b)" d="M 338.567182 226.137242 
L 340.202551 226.137242 
L 340.202551 219.621633 
L 338.567182 219.621633 
z
" style="fill:#feffb3;"/>
   </g>
   <g id="patch_183">
    <path clip-path="url(#pa58382315b)" d="M 340.202551 226.137242 
L 341.837921 226.137242 
L 341.837921 220.789525 
L 340.202551 220.789525 
z
" style="fill:#feffb3;"/>
   </g>
   <g id="patch_184">
    <path clip-path="url(#pa58382315b)" d="M 341.837921 226.137242 
L 343.47329 226.137242 
L 343.47329 222.264757 
L 341.837921 222.264757 
z
" style="fill:#feffb3;"/>
   </g>
   <g id="patch_185">
    <path clip-path="url(#pa58382315b)" d="M 343.47329 226.137242 
L 345.10866 226.137242 
L 345.10866 222.51063 
L 343.47329 222.51063 
z
" style="fill:#feffb3;"/>
   </g>
   <g id="patch_186">
    <path clip-path="url(#pa58382315b)" d="M 345.10866 226.137242 
L 346.74403 226.137242 
L 346.74403 223.002374 
L 345.10866 223.002374 
z
" style="fill:#feffb3;"/>
   </g>
   <g id="patch_187">
    <path clip-path="url(#pa58382315b)" d="M 346.74403 226.137242 
L 348.379399 226.137242 
L 348.379399 223.555586 
L 346.74403 223.555586 
z
" style="fill:#feffb3;"/>
   </g>
   <g id="patch_188">
    <path clip-path="url(#pa58382315b)" d="M 348.379399 226.137242 
L 350.014769 226.137242 
L 350.014769 224.231734 
L 348.379399 224.231734 
z
" style="fill:#feffb3;"/>
   </g>
   <g id="patch_189">
    <path clip-path="url(#pa58382315b)" d="M 350.014769 226.137242 
L 351.650138 226.137242 
L 351.650138 224.477606 
L 350.014769 224.477606 
z
" style="fill:#feffb3;"/>
   </g>
   <g id="patch_190">
    <path clip-path="url(#pa58382315b)" d="M 351.650138 226.137242 
L 353.285508 226.137242 
L 353.285508 225.522562 
L 351.650138 225.522562 
z
" style="fill:#feffb3;"/>
   </g>
   <g id="patch_191">
    <path clip-path="url(#pa58382315b)" d="M 353.285508 226.137242 
L 354.920878 226.137242 
L 354.920878 225.768434 
L 353.285508 225.768434 
z
" style="fill:#feffb3;"/>
   </g>
   <g id="patch_192">
    <path clip-path="url(#pa58382315b)" d="M 354.920878 226.137242 
L 356.556247 226.137242 
L 356.556247 225.89137 
L 354.920878 225.89137 
z
" style="fill:#feffb3;"/>
   </g>
   <g id="patch_193">
    <path clip-path="url(#pa58382315b)" d="M 356.556247 226.137242 
L 358.191617 226.137242 
L 358.191617 225.952838 
L 356.556247 225.952838 
z
" style="fill:#feffb3;"/>
   </g>
   <g id="patch_194">
    <path clip-path="url(#pa58382315b)" d="M 358.191617 226.137242 
L 359.826986 226.137242 
L 359.826986 225.768434 
L 358.191617 225.768434 
z
" style="fill:#feffb3;"/>
   </g>
   <g id="patch_195">
    <path clip-path="url(#pa58382315b)" d="M 359.826986 226.137242 
L 361.462356 226.137242 
L 361.462356 226.075774 
L 359.826986 226.075774 
z
" style="fill:#feffb3;"/>
   </g>
   <g id="patch_196">
    <path clip-path="url(#pa58382315b)" d="M 361.462356 226.137242 
L 363.097726 226.137242 
L 363.097726 225.89137 
L 361.462356 225.89137 
z
" style="fill:#feffb3;"/>
   </g>
   <g id="patch_197">
    <path clip-path="url(#pa58382315b)" d="M 363.097726 226.137242 
L 364.733095 226.137242 
L 364.733095 226.014306 
L 363.097726 226.014306 
z
" style="fill:#feffb3;"/>
   </g>
   <g id="patch_198">
    <path clip-path="url(#pa58382315b)" d="M 364.733095 226.137242 
L 366.368465 226.137242 
L 366.368465 226.137242 
L 364.733095 226.137242 
z
" style="fill:#feffb3;"/>
   </g>
   <g id="patch_199">
    <path clip-path="url(#pa58382315b)" d="M 366.368465 226.137242 
L 368.003834 226.137242 
L 368.003834 225.952838 
L 366.368465 225.952838 
z
" style="fill:#feffb3;"/>
   </g>
   <g id="patch_200">
    <path clip-path="url(#pa58382315b)" d="M 368.003834 226.137242 
L 369.639204 226.137242 
L 369.639204 226.137242 
L 368.003834 226.137242 
z
" style="fill:#feffb3;"/>
   </g>
   <g id="patch_201">
    <path clip-path="url(#pa58382315b)" d="M 369.639204 226.137242 
L 371.274574 226.137242 
L 371.274574 226.137242 
L 369.639204 226.137242 
z
" style="fill:#feffb3;"/>
   </g>
   <g id="patch_202">
    <path clip-path="url(#pa58382315b)" d="M 371.274574 226.137242 
L 372.909943 226.137242 
L 372.909943 226.075774 
L 371.274574 226.075774 
z
" style="fill:#feffb3;"/>
   </g>
   <g id="patch_203">
    <path clip-path="url(#pa58382315b)" d="M 68.546307 226.137242 
L 69.050394 226.137242 
L 69.050394 225.952838 
L 68.546307 225.952838 
z
" style="fill:#bfbbd9;"/>
   </g>
   <g id="patch_204">
    <path clip-path="url(#pa58382315b)" d="M 69.050394 226.137242 
L 69.554481 226.137242 
L 69.554481 226.075774 
L 69.050394 226.075774 
z
" style="fill:#bfbbd9;"/>
   </g>
   <g id="patch_205">
    <path clip-path="url(#pa58382315b)" d="M 69.554481 226.137242 
L 70.058568 226.137242 
L 70.058568 225.89137 
L 69.554481 225.89137 
z
" style="fill:#bfbbd9;"/>
   </g>
   <g id="patch_206">
    <path clip-path="url(#pa58382315b)" d="M 70.058568 226.137242 
L 70.562655 226.137242 
L 70.562655 225.829902 
L 70.058568 225.829902 
z
" style="fill:#bfbbd9;"/>
   </g>
   <g id="patch_207">
    <path clip-path="url(#pa58382315b)" d="M 70.562655 226.137242 
L 71.066742 226.137242 
L 71.066742 225.768434 
L 70.562655 225.768434 
z
" style="fill:#bfbbd9;"/>
   </g>
   <g id="patch_208">
    <path clip-path="url(#pa58382315b)" d="M 71.066742 226.137242 
L 71.570829 226.137242 
L 71.570829 225.706966 
L 71.066742 225.706966 
z
" style="fill:#bfbbd9;"/>
   </g>
   <g id="patch_209">
    <path clip-path="url(#pa58382315b)" d="M 71.570829 226.137242 
L 72.074916 226.137242 
L 72.074916 225.338158 
L 71.570829 225.338158 
z
" style="fill:#bfbbd9;"/>
   </g>
   <g id="patch_210">
    <path clip-path="url(#pa58382315b)" d="M 72.074916 226.137242 
L 72.579004 226.137242 
L 72.579004 225.092286 
L 72.074916 225.092286 
z
" style="fill:#bfbbd9;"/>
   </g>
   <g id="patch_211">
    <path clip-path="url(#pa58382315b)" d="M 72.579004 226.137242 
L 73.083091 226.137242 
L 73.083091 224.231734 
L 72.579004 224.231734 
z
" style="fill:#bfbbd9;"/>
   </g>
   <g id="patch_212">
    <path clip-path="url(#pa58382315b)" d="M 73.083091 226.137242 
L 73.587178 226.137242 
L 73.587178 224.170266 
L 73.083091 224.170266 
z
" style="fill:#bfbbd9;"/>
   </g>
   <g id="patch_213">
    <path clip-path="url(#pa58382315b)" d="M 73.587178 226.137242 
L 74.091265 226.137242 
L 74.091265 222.879438 
L 73.587178 222.879438 
z
" style="fill:#bfbbd9;"/>
   </g>
   <g id="patch_214">
    <path clip-path="url(#pa58382315b)" d="M 74.091265 226.137242 
L 74.595352 226.137242 
L 74.595352 221.711545 
L 74.091265 221.711545 
z
" style="fill:#bfbbd9;"/>
   </g>
   <g id="patch_215">
    <path clip-path="url(#pa58382315b)" d="M 74.595352 226.137242 
L 75.099439 226.137242 
L 75.099439 221.834481 
L 74.595352 221.834481 
z
" style="fill:#bfbbd9;"/>
   </g>
   <g id="patch_216">
    <path clip-path="url(#pa58382315b)" d="M 75.099439 226.137242 
L 75.603526 226.137242 
L 75.603526 219.314293 
L 75.099439 219.314293 
z
" style="fill:#bfbbd9;"/>
   </g>
   <g id="patch_217">
    <path clip-path="url(#pa58382315b)" d="M 75.603526 226.137242 
L 76.107613 226.137242 
L 76.107613 218.269337 
L 75.603526 218.269337 
z
" style="fill:#bfbbd9;"/>
   </g>
   <g id="patch_218">
    <path clip-path="url(#pa58382315b)" d="M 76.107613 226.137242 
L 76.6117 226.137242 
L 76.6117 215.564745 
L 76.107613 215.564745 
z
" style="fill:#bfbbd9;"/>
   </g>
   <g id="patch_219">
    <path clip-path="url(#pa58382315b)" d="M 76.6117 226.137242 
L 77.115787 226.137242 
L 77.115787 213.167493 
L 76.6117 213.167493 
z
" style="fill:#bfbbd9;"/>
   </g>
   <g id="patch_220">
    <path clip-path="url(#pa58382315b)" d="M 77.115787 226.137242 
L 77.619875 226.137242 
L 77.619875 209.786752 
L 77.115787 209.786752 
z
" style="fill:#bfbbd9;"/>
   </g>
   <g id="patch_221">
    <path clip-path="url(#pa58382315b)" d="M 77.619875 226.137242 
L 78.123962 226.137242 
L 78.123962 204.684908 
L 77.619875 204.684908 
z
" style="fill:#bfbbd9;"/>
   </g>
   <g id="patch_222">
    <path clip-path="url(#pa58382315b)" d="M 78.123962 226.137242 
L 78.628049 226.137242 
L 78.628049 200.136275 
L 78.123962 200.136275 
z
" style="fill:#bfbbd9;"/>
   </g>
   <g id="patch_223">
    <path clip-path="url(#pa58382315b)" d="M 78.628049 226.137242 
L 79.132136 226.137242 
L 79.132136 198.169299 
L 78.628049 198.169299 
z
" style="fill:#bfbbd9;"/>
   </g>
   <g id="patch_224">
    <path clip-path="url(#pa58382315b)" d="M 79.132136 226.137242 
L 79.636223 226.137242 
L 79.636223 190.178458 
L 79.132136 190.178458 
z
" style="fill:#bfbbd9;"/>
   </g>
   <g id="patch_225">
    <path clip-path="url(#pa58382315b)" d="M 79.636223 226.137242 
L 80.14031 226.137242 
L 80.14031 183.232573 
L 79.636223 183.232573 
z
" style="fill:#bfbbd9;"/>
   </g>
   <g id="patch_226">
    <path clip-path="url(#pa58382315b)" d="M 80.14031 226.137242 
L 80.644397 226.137242 
L 80.644397 178.069261 
L 80.14031 178.069261 
z
" style="fill:#bfbbd9;"/>
   </g>
   <g id="patch_227">
    <path clip-path="url(#pa58382315b)" d="M 80.644397 226.137242 
L 81.148484 226.137242 
L 81.148484 174.565584 
L 80.644397 174.565584 
z
" style="fill:#bfbbd9;"/>
   </g>
   <g id="patch_228">
    <path clip-path="url(#pa58382315b)" d="M 81.148484 226.137242 
L 81.652571 226.137242 
L 81.652571 167.127956 
L 81.148484 167.127956 
z
" style="fill:#bfbbd9;"/>
   </g>
   <g id="patch_229">
    <path clip-path="url(#pa58382315b)" d="M 81.652571 226.137242 
L 82.156658 226.137242 
L 82.156658 159.198583 
L 81.652571 159.198583 
z
" style="fill:#bfbbd9;"/>
   </g>
   <g id="patch_230">
    <path clip-path="url(#pa58382315b)" d="M 82.156658 226.137242 
L 82.660745 226.137242 
L 82.660745 152.867378 
L 82.156658 152.867378 
z
" style="fill:#bfbbd9;"/>
   </g>
   <g id="patch_231">
    <path clip-path="url(#pa58382315b)" d="M 82.660745 226.137242 
L 83.164833 226.137242 
L 83.164833 147.027917 
L 82.660745 147.027917 
z
" style="fill:#bfbbd9;"/>
   </g>
   <g id="patch_232">
    <path clip-path="url(#pa58382315b)" d="M 83.164833 226.137242 
L 83.66892 226.137242 
L 83.66892 136.516888 
L 83.164833 136.516888 
z
" style="fill:#bfbbd9;"/>
   </g>
   <g id="patch_233">
    <path clip-path="url(#pa58382315b)" d="M 83.66892 226.137242 
L 84.173007 226.137242 
L 84.173007 127.050815 
L 83.66892 127.050815 
z
" style="fill:#bfbbd9;"/>
   </g>
   <g id="patch_234">
    <path clip-path="url(#pa58382315b)" d="M 84.173007 226.137242 
L 84.677094 226.137242 
L 84.677094 119.551718 
L 84.173007 119.551718 
z
" style="fill:#bfbbd9;"/>
   </g>
   <g id="patch_235">
    <path clip-path="url(#pa58382315b)" d="M 84.677094 226.137242 
L 85.181181 226.137242 
L 85.181181 112.913174 
L 84.677094 112.913174 
z
" style="fill:#bfbbd9;"/>
   </g>
   <g id="patch_236">
    <path clip-path="url(#pa58382315b)" d="M 85.181181 226.137242 
L 85.685268 226.137242 
L 85.685268 101.664529 
L 85.181181 101.664529 
z
" style="fill:#bfbbd9;"/>
   </g>
   <g id="patch_237">
    <path clip-path="url(#pa58382315b)" d="M 85.685268 226.137242 
L 86.189355 226.137242 
L 86.189355 103.877377 
L 85.685268 103.877377 
z
" style="fill:#bfbbd9;"/>
   </g>
   <g id="patch_238">
    <path clip-path="url(#pa58382315b)" d="M 86.189355 226.137242 
L 86.693442 226.137242 
L 86.693442 96.501216 
L 86.189355 96.501216 
z
" style="fill:#bfbbd9;"/>
   </g>
   <g id="patch_239">
    <path clip-path="url(#pa58382315b)" d="M 86.693442 226.137242 
L 87.197529 226.137242 
L 87.197529 83.715871 
L 86.693442 83.715871 
z
" style="fill:#bfbbd9;"/>
   </g>
   <g id="patch_240">
    <path clip-path="url(#pa58382315b)" d="M 87.197529 226.137242 
L 87.701616 226.137242 
L 87.701616 82.117702 
L 87.197529 82.117702 
z
" style="fill:#bfbbd9;"/>
   </g>
   <g id="patch_241">
    <path clip-path="url(#pa58382315b)" d="M 87.701616 226.137242 
L 88.205704 226.137242 
L 88.205704 79.72045 
L 87.701616 79.72045 
z
" style="fill:#bfbbd9;"/>
   </g>
   <g id="patch_242">
    <path clip-path="url(#pa58382315b)" d="M 88.205704 226.137242 
L 88.709791 226.137242 
L 88.709791 66.750701 
L 88.205704 66.750701 
z
" style="fill:#bfbbd9;"/>
   </g>
   <g id="patch_243">
    <path clip-path="url(#pa58382315b)" d="M 88.709791 226.137242 
L 89.213878 226.137242 
L 89.213878 62.878216 
L 88.709791 62.878216 
z
" style="fill:#bfbbd9;"/>
   </g>
   <g id="patch_244">
    <path clip-path="url(#pa58382315b)" d="M 89.213878 226.137242 
L 89.717965 226.137242 
L 89.717965 59.866284 
L 89.213878 59.866284 
z
" style="fill:#bfbbd9;"/>
   </g>
   <g id="patch_245">
    <path clip-path="url(#pa58382315b)" d="M 89.717965 226.137242 
L 90.222052 226.137242 
L 90.222052 61.21858 
L 89.717965 61.21858 
z
" style="fill:#bfbbd9;"/>
   </g>
   <g id="patch_246">
    <path clip-path="url(#pa58382315b)" d="M 90.222052 226.137242 
L 90.726139 226.137242 
L 90.726139 56.669948 
L 90.222052 56.669948 
z
" style="fill:#bfbbd9;"/>
   </g>
   <g id="patch_247">
    <path clip-path="url(#pa58382315b)" d="M 90.726139 226.137242 
L 91.230226 226.137242 
L 91.230226 54.334163 
L 90.726139 54.334163 
z
" style="fill:#bfbbd9;"/>
   </g>
   <g id="patch_248">
    <path clip-path="url(#pa58382315b)" d="M 91.230226 226.137242 
L 91.734313 226.137242 
L 91.734313 48.986447 
L 91.230226 48.986447 
z
" style="fill:#bfbbd9;"/>
   </g>
   <g id="patch_249">
    <path clip-path="url(#pa58382315b)" d="M 91.734313 226.137242 
L 92.2384 226.137242 
L 92.2384 51.445167 
L 91.734313 51.445167 
z
" style="fill:#bfbbd9;"/>
   </g>
   <g id="patch_250">
    <path clip-path="url(#pa58382315b)" d="M 92.2384 226.137242 
L 92.742487 226.137242 
L 92.742487 57.038756 
L 92.2384 57.038756 
z
" style="fill:#bfbbd9;"/>
   </g>
   <g id="patch_251">
    <path clip-path="url(#pa58382315b)" d="M 92.742487 226.137242 
L 93.246575 226.137242 
L 93.246575 59.68188 
L 92.742487 59.68188 
z
" style="fill:#bfbbd9;"/>
   </g>
   <g id="patch_252">
    <path clip-path="url(#pa58382315b)" d="M 93.246575 226.137242 
L 93.750662 226.137242 
L 93.750662 61.341516 
L 93.246575 61.341516 
z
" style="fill:#bfbbd9;"/>
   </g>
   <g id="patch_253">
    <path clip-path="url(#pa58382315b)" d="M 93.750662 226.137242 
L 94.254749 226.137242 
L 94.254749 59.436008 
L 93.750662 59.436008 
z
" style="fill:#bfbbd9;"/>
   </g>
   <g id="patch_254">
    <path clip-path="url(#pa58382315b)" d="M 94.254749 226.137242 
L 94.758836 226.137242 
L 94.758836 69.762633 
L 94.254749 69.762633 
z
" style="fill:#bfbbd9;"/>
   </g>
   <g id="patch_255">
    <path clip-path="url(#pa58382315b)" d="M 94.758836 226.137242 
L 95.262923 226.137242 
L 95.262923 78.736962 
L 94.758836 78.736962 
z
" style="fill:#bfbbd9;"/>
   </g>
   <g id="patch_256">
    <path clip-path="url(#pa58382315b)" d="M 95.262923 226.137242 
L 95.76701 226.137242 
L 95.76701 73.327777 
L 95.262923 73.327777 
z
" style="fill:#bfbbd9;"/>
   </g>
   <g id="patch_257">
    <path clip-path="url(#pa58382315b)" d="M 95.76701 226.137242 
L 96.271097 226.137242 
L 96.271097 78.736962 
L 95.76701 78.736962 
z
" style="fill:#bfbbd9;"/>
   </g>
   <g id="patch_258">
    <path clip-path="url(#pa58382315b)" d="M 96.271097 226.137242 
L 96.775184 226.137242 
L 96.775184 86.604867 
L 96.271097 86.604867 
z
" style="fill:#bfbbd9;"/>
   </g>
   <g id="patch_259">
    <path clip-path="url(#pa58382315b)" d="M 96.775184 226.137242 
L 97.279271 226.137242 
L 97.279271 91.276435 
L 96.775184 91.276435 
z
" style="fill:#bfbbd9;"/>
   </g>
   <g id="patch_260">
    <path clip-path="url(#pa58382315b)" d="M 97.279271 226.137242 
L 97.783358 226.137242 
L 97.783358 104.307653 
L 97.279271 104.307653 
z
" style="fill:#bfbbd9;"/>
   </g>
   <g id="patch_261">
    <path clip-path="url(#pa58382315b)" d="M 97.783358 226.137242 
L 98.287445 226.137242 
L 98.287445 103.508569 
L 97.783358 103.508569 
z
" style="fill:#bfbbd9;"/>
   </g>
   <g id="patch_262">
    <path clip-path="url(#pa58382315b)" d="M 98.287445 226.137242 
L 98.791533 226.137242 
L 98.791533 108.241605 
L 98.287445 108.241605 
z
" style="fill:#bfbbd9;"/>
   </g>
   <g id="patch_263">
    <path clip-path="url(#pa58382315b)" d="M 98.791533 226.137242 
L 99.29562 226.137242 
L 99.29562 121.395759 
L 98.791533 121.395759 
z
" style="fill:#bfbbd9;"/>
   </g>
   <g id="patch_264">
    <path clip-path="url(#pa58382315b)" d="M 99.29562 226.137242 
L 99.799707 226.137242 
L 99.799707 126.743475 
L 99.29562 126.743475 
z
" style="fill:#bfbbd9;"/>
   </g>
   <g id="patch_265">
    <path clip-path="url(#pa58382315b)" d="M 99.799707 226.137242 
L 100.303794 226.137242 
L 100.303794 133.873764 
L 99.799707 133.873764 
z
" style="fill:#bfbbd9;"/>
   </g>
   <g id="patch_266">
    <path clip-path="url(#pa58382315b)" d="M 100.303794 226.137242 
L 100.807881 226.137242 
L 100.807881 136.393952 
L 100.303794 136.393952 
z
" style="fill:#bfbbd9;"/>
   </g>
   <g id="patch_267">
    <path clip-path="url(#pa58382315b)" d="M 100.807881 226.137242 
L 101.311968 226.137242 
L 101.311968 142.417817 
L 100.807881 142.417817 
z
" style="fill:#bfbbd9;"/>
   </g>
   <g id="patch_268">
    <path clip-path="url(#pa58382315b)" d="M 101.311968 226.137242 
L 101.816055 226.137242 
L 101.816055 156.555458 
L 101.311968 156.555458 
z
" style="fill:#bfbbd9;"/>
   </g>
   <g id="patch_269">
    <path clip-path="url(#pa58382315b)" d="M 101.816055 226.137242 
L 102.320142 226.137242 
L 102.320142 162.579323 
L 101.816055 162.579323 
z
" style="fill:#bfbbd9;"/>
   </g>
   <g id="patch_270">
    <path clip-path="url(#pa58382315b)" d="M 102.320142 226.137242 
L 102.824229 226.137242 
L 102.824229 166.882084 
L 102.320142 166.882084 
z
" style="fill:#bfbbd9;"/>
   </g>
   <g id="patch_271">
    <path clip-path="url(#pa58382315b)" d="M 102.824229 226.137242 
L 103.328316 226.137242 
L 103.328316 173.090352 
L 102.824229 173.090352 
z
" style="fill:#bfbbd9;"/>
   </g>
   <g id="patch_272">
    <path clip-path="url(#pa58382315b)" d="M 103.328316 226.137242 
L 103.832404 226.137242 
L 103.832404 178.868345 
L 103.328316 178.868345 
z
" style="fill:#bfbbd9;"/>
   </g>
   <g id="patch_273">
    <path clip-path="url(#pa58382315b)" d="M 103.832404 226.137242 
L 104.336491 226.137242 
L 104.336491 181.142661 
L 103.832404 181.142661 
z
" style="fill:#bfbbd9;"/>
   </g>
   <g id="patch_274">
    <path clip-path="url(#pa58382315b)" d="M 104.336491 226.137242 
L 104.840578 226.137242 
L 104.840578 189.256438 
L 104.336491 189.256438 
z
" style="fill:#bfbbd9;"/>
   </g>
   <g id="patch_275">
    <path clip-path="url(#pa58382315b)" d="M 104.840578 226.137242 
L 105.344665 226.137242 
L 105.344665 194.11241 
L 104.840578 194.11241 
z
" style="fill:#bfbbd9;"/>
   </g>
   <g id="patch_276">
    <path clip-path="url(#pa58382315b)" d="M 105.344665 226.137242 
L 105.848752 226.137242 
L 105.848752 196.694067 
L 105.344665 196.694067 
z
" style="fill:#bfbbd9;"/>
   </g>
   <g id="patch_277">
    <path clip-path="url(#pa58382315b)" d="M 105.848752 226.137242 
L 106.352839 226.137242 
L 106.352839 200.628019 
L 105.848752 200.628019 
z
" style="fill:#bfbbd9;"/>
   </g>
   <g id="patch_278">
    <path clip-path="url(#pa58382315b)" d="M 106.352839 226.137242 
L 106.856926 226.137242 
L 106.856926 202.349123 
L 106.352839 202.349123 
z
" style="fill:#bfbbd9;"/>
   </g>
   <g id="patch_279">
    <path clip-path="url(#pa58382315b)" d="M 106.856926 226.137242 
L 107.361013 226.137242 
L 107.361013 206.406012 
L 106.856926 206.406012 
z
" style="fill:#bfbbd9;"/>
   </g>
   <g id="patch_280">
    <path clip-path="url(#pa58382315b)" d="M 107.361013 226.137242 
L 107.8651 226.137242 
L 107.8651 208.250052 
L 107.361013 208.250052 
z
" style="fill:#bfbbd9;"/>
   </g>
   <g id="patch_281">
    <path clip-path="url(#pa58382315b)" d="M 107.8651 226.137242 
L 108.369187 226.137242 
L 108.369187 211.938132 
L 107.8651 211.938132 
z
" style="fill:#bfbbd9;"/>
   </g>
   <g id="patch_282">
    <path clip-path="url(#pa58382315b)" d="M 108.369187 226.137242 
L 108.873274 226.137242 
L 108.873274 213.597769 
L 108.369187 213.597769 
z
" style="fill:#bfbbd9;"/>
   </g>
   <g id="patch_283">
    <path clip-path="url(#pa58382315b)" d="M 108.873274 226.137242 
L 109.377362 226.137242 
L 109.377362 215.441809 
L 108.873274 215.441809 
z
" style="fill:#bfbbd9;"/>
   </g>
   <g id="patch_284">
    <path clip-path="url(#pa58382315b)" d="M 109.377362 226.137242 
L 109.881449 226.137242 
L 109.881449 219.129889 
L 109.377362 219.129889 
z
" style="fill:#bfbbd9;"/>
   </g>
   <g id="patch_285">
    <path clip-path="url(#pa58382315b)" d="M 109.881449 226.137242 
L 110.385536 226.137242 
L 110.385536 219.744569 
L 109.881449 219.744569 
z
" style="fill:#bfbbd9;"/>
   </g>
   <g id="patch_286">
    <path clip-path="url(#pa58382315b)" d="M 110.385536 226.137242 
L 110.889623 226.137242 
L 110.889623 219.498697 
L 110.385536 219.498697 
z
" style="fill:#bfbbd9;"/>
   </g>
   <g id="patch_287">
    <path clip-path="url(#pa58382315b)" d="M 110.889623 226.137242 
L 111.39371 226.137242 
L 111.39371 222.51063 
L 110.889623 222.51063 
z
" style="fill:#bfbbd9;"/>
   </g>
   <g id="patch_288">
    <path clip-path="url(#pa58382315b)" d="M 111.39371 226.137242 
L 111.897797 226.137242 
L 111.897797 222.695034 
L 111.39371 222.695034 
z
" style="fill:#bfbbd9;"/>
   </g>
   <g id="patch_289">
    <path clip-path="url(#pa58382315b)" d="M 111.897797 226.137242 
L 112.401884 226.137242 
L 112.401884 223.309714 
L 111.897797 223.309714 
z
" style="fill:#bfbbd9;"/>
   </g>
   <g id="patch_290">
    <path clip-path="url(#pa58382315b)" d="M 112.401884 226.137242 
L 112.905971 226.137242 
L 112.905971 224.231734 
L 112.401884 224.231734 
z
" style="fill:#bfbbd9;"/>
   </g>
   <g id="patch_291">
    <path clip-path="url(#pa58382315b)" d="M 112.905971 226.137242 
L 113.410058 226.137242 
L 113.410058 224.477606 
L 112.905971 224.477606 
z
" style="fill:#bfbbd9;"/>
   </g>
   <g id="patch_292">
    <path clip-path="url(#pa58382315b)" d="M 113.410058 226.137242 
L 113.914145 226.137242 
L 113.914145 225.338158 
L 113.410058 225.338158 
z
" style="fill:#bfbbd9;"/>
   </g>
   <g id="patch_293">
    <path clip-path="url(#pa58382315b)" d="M 113.914145 226.137242 
L 114.418233 226.137242 
L 114.418233 225.030818 
L 113.914145 225.030818 
z
" style="fill:#bfbbd9;"/>
   </g>
   <g id="patch_294">
    <path clip-path="url(#pa58382315b)" d="M 114.418233 226.137242 
L 114.92232 226.137242 
L 114.92232 225.645498 
L 114.418233 225.645498 
z
" style="fill:#bfbbd9;"/>
   </g>
   <g id="patch_295">
    <path clip-path="url(#pa58382315b)" d="M 114.92232 226.137242 
L 115.426407 226.137242 
L 115.426407 225.706966 
L 114.92232 225.706966 
z
" style="fill:#bfbbd9;"/>
   </g>
   <g id="patch_296">
    <path clip-path="url(#pa58382315b)" d="M 115.426407 226.137242 
L 115.930494 226.137242 
L 115.930494 225.706966 
L 115.426407 225.706966 
z
" style="fill:#bfbbd9;"/>
   </g>
   <g id="patch_297">
    <path clip-path="url(#pa58382315b)" d="M 115.930494 226.137242 
L 116.434581 226.137242 
L 116.434581 225.768434 
L 115.930494 225.768434 
z
" style="fill:#bfbbd9;"/>
   </g>
   <g id="patch_298">
    <path clip-path="url(#pa58382315b)" d="M 116.434581 226.137242 
L 116.938668 226.137242 
L 116.938668 225.89137 
L 116.434581 225.89137 
z
" style="fill:#bfbbd9;"/>
   </g>
   <g id="patch_299">
    <path clip-path="url(#pa58382315b)" d="M 116.938668 226.137242 
L 117.442755 226.137242 
L 117.442755 225.952838 
L 116.938668 225.952838 
z
" style="fill:#bfbbd9;"/>
   </g>
   <g id="patch_300">
    <path clip-path="url(#pa58382315b)" d="M 117.442755 226.137242 
L 117.946842 226.137242 
L 117.946842 226.075774 
L 117.442755 226.075774 
z
" style="fill:#bfbbd9;"/>
   </g>
   <g id="patch_301">
    <path clip-path="url(#pa58382315b)" d="M 117.946842 226.137242 
L 118.450929 226.137242 
L 118.450929 225.952838 
L 117.946842 225.952838 
z
" style="fill:#bfbbd9;"/>
   </g>
   <g id="patch_302">
    <path clip-path="url(#pa58382315b)" d="M 118.450929 226.137242 
L 118.955016 226.137242 
L 118.955016 226.014306 
L 118.450929 226.014306 
z
" style="fill:#bfbbd9;"/>
   </g>
   <g id="matplotlib.axis_1">
    <g id="xtick_1">
     <g id="line2d_1">
      <defs>
       <path d="M 0 0 
L 0 3.5 
" id="m96eadf6dbc" style="stroke:#ffffff;stroke-width:0.8;"/>
      </defs>
      <g>
       <use style="fill:#ffffff;stroke:#ffffff;stroke-width:0.8;" x="58.975315" xlink:href="#m96eadf6dbc" y="226.137242"/>
      </g>
     </g>
     <g id="text_1">
      <!-- 0.1 -->
      <defs>
       <path d="M 31.78125 66.40625 
Q 24.171875 66.40625 20.328125 58.90625 
Q 16.5 51.421875 16.5 36.375 
Q 16.5 21.390625 20.328125 13.890625 
Q 24.171875 6.390625 31.78125 6.390625 
Q 39.453125 6.390625 43.28125 13.890625 
Q 47.125 21.390625 47.125 36.375 
Q 47.125 51.421875 43.28125 58.90625 
Q 39.453125 66.40625 31.78125 66.40625 
z
M 31.78125 74.21875 
Q 44.046875 74.21875 50.515625 64.515625 
Q 56.984375 54.828125 56.984375 36.375 
Q 56.984375 17.96875 50.515625 8.265625 
Q 44.046875 -1.421875 31.78125 -1.421875 
Q 19.53125 -1.421875 13.0625 8.265625 
Q 6.59375 17.96875 6.59375 36.375 
Q 6.59375 54.828125 13.0625 64.515625 
Q 19.53125 74.21875 31.78125 74.21875 
z
" id="DejaVuSans-48"/>
       <path d="M 10.6875 12.40625 
L 21 12.40625 
L 21 0 
L 10.6875 0 
z
" id="DejaVuSans-46"/>
       <path d="M 12.40625 8.296875 
L 28.515625 8.296875 
L 28.515625 63.921875 
L 10.984375 60.40625 
L 10.984375 69.390625 
L 28.421875 72.90625 
L 38.28125 72.90625 
L 38.28125 8.296875 
L 54.390625 8.296875 
L 54.390625 0 
L 12.40625 0 
z
" id="DejaVuSans-49"/>
      </defs>
      <g style="fill:#ffffff;" transform="translate(51.023752 240.735679)scale(0.1 -0.1)">
       <use xlink:href="#DejaVuSans-48"/>
       <use x="63.623047" xlink:href="#DejaVuSans-46"/>
       <use x="95.410156" xlink:href="#DejaVuSans-49"/>
      </g>
     </g>
    </g>
    <g id="xtick_2">
     <g id="line2d_2">
      <g>
       <use style="fill:#ffffff;stroke:#ffffff;stroke-width:0.8;" x="115.245018" xlink:href="#m96eadf6dbc" y="226.137242"/>
      </g>
     </g>
     <g id="text_2">
      <!-- 0.2 -->
      <defs>
       <path d="M 19.1875 8.296875 
L 53.609375 8.296875 
L 53.609375 0 
L 7.328125 0 
L 7.328125 8.296875 
Q 12.9375 14.109375 22.625 23.890625 
Q 32.328125 33.6875 34.8125 36.53125 
Q 39.546875 41.84375 41.421875 45.53125 
Q 43.3125 49.21875 43.3125 52.78125 
Q 43.3125 58.59375 39.234375 62.25 
Q 35.15625 65.921875 28.609375 65.921875 
Q 23.96875 65.921875 18.8125 64.3125 
Q 13.671875 62.703125 7.8125 59.421875 
L 7.8125 69.390625 
Q 13.765625 71.78125 18.9375 73 
Q 24.125 74.21875 28.421875 74.21875 
Q 39.75 74.21875 46.484375 68.546875 
Q 53.21875 62.890625 53.21875 53.421875 
Q 53.21875 48.921875 51.53125 44.890625 
Q 49.859375 40.875 45.40625 35.40625 
Q 44.1875 33.984375 37.640625 27.21875 
Q 31.109375 20.453125 19.1875 8.296875 
z
" id="DejaVuSans-50"/>
      </defs>
      <g style="fill:#ffffff;" transform="translate(107.293456 240.735679)scale(0.1 -0.1)">
       <use xlink:href="#DejaVuSans-48"/>
       <use x="63.623047" xlink:href="#DejaVuSans-46"/>
       <use x="95.410156" xlink:href="#DejaVuSans-50"/>
      </g>
     </g>
    </g>
    <g id="xtick_3">
     <g id="line2d_3">
      <g>
       <use style="fill:#ffffff;stroke:#ffffff;stroke-width:0.8;" x="171.514722" xlink:href="#m96eadf6dbc" y="226.137242"/>
      </g>
     </g>
     <g id="text_3">
      <!-- 0.3 -->
      <defs>
       <path d="M 40.578125 39.3125 
Q 47.65625 37.796875 51.625 33 
Q 55.609375 28.21875 55.609375 21.1875 
Q 55.609375 10.40625 48.1875 4.484375 
Q 40.765625 -1.421875 27.09375 -1.421875 
Q 22.515625 -1.421875 17.65625 -0.515625 
Q 12.796875 0.390625 7.625 2.203125 
L 7.625 11.71875 
Q 11.71875 9.328125 16.59375 8.109375 
Q 21.484375 6.890625 26.8125 6.890625 
Q 36.078125 6.890625 40.9375 10.546875 
Q 45.796875 14.203125 45.796875 21.1875 
Q 45.796875 27.640625 41.28125 31.265625 
Q 36.765625 34.90625 28.71875 34.90625 
L 20.21875 34.90625 
L 20.21875 43.015625 
L 29.109375 43.015625 
Q 36.375 43.015625 40.234375 45.921875 
Q 44.09375 48.828125 44.09375 54.296875 
Q 44.09375 59.90625 40.109375 62.90625 
Q 36.140625 65.921875 28.71875 65.921875 
Q 24.65625 65.921875 20.015625 65.03125 
Q 15.375 64.15625 9.8125 62.3125 
L 9.8125 71.09375 
Q 15.4375 72.65625 20.34375 73.4375 
Q 25.25 74.21875 29.59375 74.21875 
Q 40.828125 74.21875 47.359375 69.109375 
Q 53.90625 64.015625 53.90625 55.328125 
Q 53.90625 49.265625 50.4375 45.09375 
Q 46.96875 40.921875 40.578125 39.3125 
z
" id="DejaVuSans-51"/>
      </defs>
      <g style="fill:#ffffff;" transform="translate(163.56316 240.735679)scale(0.1 -0.1)">
       <use xlink:href="#DejaVuSans-48"/>
       <use x="63.623047" xlink:href="#DejaVuSans-46"/>
       <use x="95.410156" xlink:href="#DejaVuSans-51"/>
      </g>
     </g>
    </g>
    <g id="xtick_4">
     <g id="line2d_4">
      <g>
       <use style="fill:#ffffff;stroke:#ffffff;stroke-width:0.8;" x="227.784426" xlink:href="#m96eadf6dbc" y="226.137242"/>
      </g>
     </g>
     <g id="text_4">
      <!-- 0.4 -->
      <defs>
       <path d="M 37.796875 64.3125 
L 12.890625 25.390625 
L 37.796875 25.390625 
z
M 35.203125 72.90625 
L 47.609375 72.90625 
L 47.609375 25.390625 
L 58.015625 25.390625 
L 58.015625 17.1875 
L 47.609375 17.1875 
L 47.609375 0 
L 37.796875 0 
L 37.796875 17.1875 
L 4.890625 17.1875 
L 4.890625 26.703125 
z
" id="DejaVuSans-52"/>
      </defs>
      <g style="fill:#ffffff;" transform="translate(219.832864 240.735679)scale(0.1 -0.1)">
       <use xlink:href="#DejaVuSans-48"/>
       <use x="63.623047" xlink:href="#DejaVuSans-46"/>
       <use x="95.410156" xlink:href="#DejaVuSans-52"/>
      </g>
     </g>
    </g>
    <g id="xtick_5">
     <g id="line2d_5">
      <g>
       <use style="fill:#ffffff;stroke:#ffffff;stroke-width:0.8;" x="284.05413" xlink:href="#m96eadf6dbc" y="226.137242"/>
      </g>
     </g>
     <g id="text_5">
      <!-- 0.5 -->
      <defs>
       <path d="M 10.796875 72.90625 
L 49.515625 72.90625 
L 49.515625 64.59375 
L 19.828125 64.59375 
L 19.828125 46.734375 
Q 21.96875 47.46875 24.109375 47.828125 
Q 26.265625 48.1875 28.421875 48.1875 
Q 40.625 48.1875 47.75 41.5 
Q 54.890625 34.8125 54.890625 23.390625 
Q 54.890625 11.625 47.5625 5.09375 
Q 40.234375 -1.421875 26.90625 -1.421875 
Q 22.3125 -1.421875 17.546875 -0.640625 
Q 12.796875 0.140625 7.71875 1.703125 
L 7.71875 11.625 
Q 12.109375 9.234375 16.796875 8.0625 
Q 21.484375 6.890625 26.703125 6.890625 
Q 35.15625 6.890625 40.078125 11.328125 
Q 45.015625 15.765625 45.015625 23.390625 
Q 45.015625 31 40.078125 35.4375 
Q 35.15625 39.890625 26.703125 39.890625 
Q 22.75 39.890625 18.8125 39.015625 
Q 14.890625 38.140625 10.796875 36.28125 
z
" id="DejaVuSans-53"/>
      </defs>
      <g style="fill:#ffffff;" transform="translate(276.102568 240.735679)scale(0.1 -0.1)">
       <use xlink:href="#DejaVuSans-48"/>
       <use x="63.623047" xlink:href="#DejaVuSans-46"/>
       <use x="95.410156" xlink:href="#DejaVuSans-53"/>
      </g>
     </g>
    </g>
    <g id="xtick_6">
     <g id="line2d_6">
      <g>
       <use style="fill:#ffffff;stroke:#ffffff;stroke-width:0.8;" x="340.323834" xlink:href="#m96eadf6dbc" y="226.137242"/>
      </g>
     </g>
     <g id="text_6">
      <!-- 0.6 -->
      <defs>
       <path d="M 33.015625 40.375 
Q 26.375 40.375 22.484375 35.828125 
Q 18.609375 31.296875 18.609375 23.390625 
Q 18.609375 15.53125 22.484375 10.953125 
Q 26.375 6.390625 33.015625 6.390625 
Q 39.65625 6.390625 43.53125 10.953125 
Q 47.40625 15.53125 47.40625 23.390625 
Q 47.40625 31.296875 43.53125 35.828125 
Q 39.65625 40.375 33.015625 40.375 
z
M 52.59375 71.296875 
L 52.59375 62.3125 
Q 48.875 64.0625 45.09375 64.984375 
Q 41.3125 65.921875 37.59375 65.921875 
Q 27.828125 65.921875 22.671875 59.328125 
Q 17.53125 52.734375 16.796875 39.40625 
Q 19.671875 43.65625 24.015625 45.921875 
Q 28.375 48.1875 33.59375 48.1875 
Q 44.578125 48.1875 50.953125 41.515625 
Q 57.328125 34.859375 57.328125 23.390625 
Q 57.328125 12.15625 50.6875 5.359375 
Q 44.046875 -1.421875 33.015625 -1.421875 
Q 20.359375 -1.421875 13.671875 8.265625 
Q 6.984375 17.96875 6.984375 36.375 
Q 6.984375 53.65625 15.1875 63.9375 
Q 23.390625 74.21875 37.203125 74.21875 
Q 40.921875 74.21875 44.703125 73.484375 
Q 48.484375 72.75 52.59375 71.296875 
z
" id="DejaVuSans-54"/>
      </defs>
      <g style="fill:#ffffff;" transform="translate(332.372272 240.735679)scale(0.1 -0.1)">
       <use xlink:href="#DejaVuSans-48"/>
       <use x="63.623047" xlink:href="#DejaVuSans-46"/>
       <use x="95.410156" xlink:href="#DejaVuSans-54"/>
      </g>
     </g>
    </g>
    <g id="text_7">
     <!-- T [$^\circ C$] -->
     <defs>
      <path d="M -0.296875 72.90625 
L 61.375 72.90625 
L 61.375 64.59375 
L 35.5 64.59375 
L 35.5 0 
L 25.59375 0 
L 25.59375 64.59375 
L -0.296875 64.59375 
z
" id="DejaVuSans-84"/>
      <path id="DejaVuSans-32"/>
      <path d="M 8.59375 75.984375 
L 29.296875 75.984375 
L 29.296875 69 
L 17.578125 69 
L 17.578125 -6.203125 
L 29.296875 -6.203125 
L 29.296875 -13.1875 
L 8.59375 -13.1875 
z
" id="DejaVuSans-91"/>
      <path d="M 31.296875 40.671875 
Q 27.390625 40.671875 24.703125 37.953125 
Q 22.015625 35.25 22.015625 31.34375 
Q 22.015625 27.484375 24.703125 24.828125 
Q 27.390625 22.171875 31.296875 22.171875 
Q 35.203125 22.171875 37.890625 24.828125 
Q 40.578125 27.484375 40.578125 31.34375 
Q 40.578125 35.203125 37.859375 37.9375 
Q 35.15625 40.671875 31.296875 40.671875 
z
M 31.296875 46.96875 
Q 34.421875 46.96875 37.296875 45.765625 
Q 40.1875 44.578125 42.28125 42.328125 
Q 44.53125 40.140625 45.65625 37.34375 
Q 46.78125 34.5625 46.78125 31.34375 
Q 46.78125 24.90625 42.265625 20.4375 
Q 37.75 15.96875 31.203125 15.96875 
Q 24.609375 15.96875 20.21875 20.359375 
Q 15.828125 24.75 15.828125 31.34375 
Q 15.828125 37.890625 20.3125 42.421875 
Q 24.8125 46.96875 31.296875 46.96875 
z
" id="DejaVuSans-8728"/>
      <path d="M 69.484375 67.28125 
L 67.484375 56.890625 
Q 62.796875 61.625 57.546875 63.921875 
Q 52.296875 66.21875 46.1875 66.21875 
Q 37.84375 66.21875 31.515625 62.203125 
Q 25.203125 58.203125 20.609375 50 
Q 17.671875 44.734375 16.125 38.84375 
Q 14.59375 32.953125 14.59375 27 
Q 14.59375 17.046875 19.75 11.8125 
Q 24.90625 6.59375 34.71875 6.59375 
Q 41.5 6.59375 47.75 8.765625 
Q 54 10.9375 59.90625 15.28125 
L 57.625 3.609375 
Q 51.8125 1.125 45.875 -0.140625 
Q 39.9375 -1.421875 33.984375 -1.421875 
Q 19.96875 -1.421875 12.078125 6.1875 
Q 4.203125 13.8125 4.203125 27.390625 
Q 4.203125 36.078125 7.203125 44.46875 
Q 10.203125 52.875 15.828125 59.8125 
Q 21.78125 67.1875 29.421875 70.703125 
Q 37.0625 74.21875 47.21875 74.21875 
Q 53.46875 74.21875 59.0625 72.484375 
Q 64.65625 70.75 69.484375 67.28125 
z
" id="DejaVuSans-Oblique-67"/>
      <path d="M 30.421875 75.984375 
L 30.421875 -13.1875 
L 9.71875 -13.1875 
L 9.71875 -6.203125 
L 21.390625 -6.203125 
L 21.390625 69 
L 9.71875 69 
L 9.71875 75.984375 
z
" id="DejaVuSans-93"/>
     </defs>
     <g style="fill:#ffffff;" transform="translate(204.928125 254.413804)scale(0.1 -0.1)">
      <use transform="translate(0 0.015625)" xlink:href="#DejaVuSans-84"/>
      <use transform="translate(61.083984 0.015625)" xlink:href="#DejaVuSans-32"/>
      <use transform="translate(92.871094 0.015625)" xlink:href="#DejaVuSans-91"/>
      <use transform="translate(146.479492 38.296875)scale(0.7)" xlink:href="#DejaVuSans-8728"/>
      <use transform="translate(206.669922 0.015625)" xlink:href="#DejaVuSans-Oblique-67"/>
      <use transform="translate(276.494141 0.015625)" xlink:href="#DejaVuSans-93"/>
     </g>
    </g>
   </g>
   <g id="matplotlib.axis_2">
    <g id="ytick_1">
     <g id="line2d_7">
      <defs>
       <path d="M 0 0 
L -3.5 0 
" id="m267ecd3772" style="stroke:#ffffff;stroke-width:0.8;"/>
      </defs>
      <g>
       <use style="fill:#ffffff;stroke:#ffffff;stroke-width:0.8;" x="53.328125" xlink:href="#m267ecd3772" y="226.137242"/>
      </g>
     </g>
     <g id="text_8">
      <!-- 0 -->
      <g style="fill:#ffffff;" transform="translate(39.965625 229.936461)scale(0.1 -0.1)">
       <use xlink:href="#DejaVuSans-48"/>
      </g>
     </g>
    </g>
    <g id="ytick_2">
     <g id="line2d_8">
      <g>
       <use style="fill:#ffffff;stroke:#ffffff;stroke-width:0.8;" x="53.328125" xlink:href="#m267ecd3772" y="195.403239"/>
      </g>
     </g>
     <g id="text_9">
      <!-- 500 -->
      <g style="fill:#ffffff;" transform="translate(27.240625 199.202457)scale(0.1 -0.1)">
       <use xlink:href="#DejaVuSans-53"/>
       <use x="63.623047" xlink:href="#DejaVuSans-48"/>
       <use x="127.246094" xlink:href="#DejaVuSans-48"/>
      </g>
     </g>
    </g>
    <g id="ytick_3">
     <g id="line2d_9">
      <g>
       <use style="fill:#ffffff;stroke:#ffffff;stroke-width:0.8;" x="53.328125" xlink:href="#m267ecd3772" y="164.669235"/>
      </g>
     </g>
     <g id="text_10">
      <!-- 1000 -->
      <g style="fill:#ffffff;" transform="translate(20.878125 168.468454)scale(0.1 -0.1)">
       <use xlink:href="#DejaVuSans-49"/>
       <use x="63.623047" xlink:href="#DejaVuSans-48"/>
       <use x="127.246094" xlink:href="#DejaVuSans-48"/>
       <use x="190.869141" xlink:href="#DejaVuSans-48"/>
      </g>
     </g>
    </g>
    <g id="ytick_4">
     <g id="line2d_10">
      <g>
       <use style="fill:#ffffff;stroke:#ffffff;stroke-width:0.8;" x="53.328125" xlink:href="#m267ecd3772" y="133.935232"/>
      </g>
     </g>
     <g id="text_11">
      <!-- 1500 -->
      <g style="fill:#ffffff;" transform="translate(20.878125 137.734451)scale(0.1 -0.1)">
       <use xlink:href="#DejaVuSans-49"/>
       <use x="63.623047" xlink:href="#DejaVuSans-53"/>
       <use x="127.246094" xlink:href="#DejaVuSans-48"/>
       <use x="190.869141" xlink:href="#DejaVuSans-48"/>
      </g>
     </g>
    </g>
    <g id="ytick_5">
     <g id="line2d_11">
      <g>
       <use style="fill:#ffffff;stroke:#ffffff;stroke-width:0.8;" x="53.328125" xlink:href="#m267ecd3772" y="103.201229"/>
      </g>
     </g>
     <g id="text_12">
      <!-- 2000 -->
      <g style="fill:#ffffff;" transform="translate(20.878125 107.000447)scale(0.1 -0.1)">
       <use xlink:href="#DejaVuSans-50"/>
       <use x="63.623047" xlink:href="#DejaVuSans-48"/>
       <use x="127.246094" xlink:href="#DejaVuSans-48"/>
       <use x="190.869141" xlink:href="#DejaVuSans-48"/>
      </g>
     </g>
    </g>
    <g id="ytick_6">
     <g id="line2d_12">
      <g>
       <use style="fill:#ffffff;stroke:#ffffff;stroke-width:0.8;" x="53.328125" xlink:href="#m267ecd3772" y="72.467225"/>
      </g>
     </g>
     <g id="text_13">
      <!-- 2500 -->
      <g style="fill:#ffffff;" transform="translate(20.878125 76.266444)scale(0.1 -0.1)">
       <use xlink:href="#DejaVuSans-50"/>
       <use x="63.623047" xlink:href="#DejaVuSans-53"/>
       <use x="127.246094" xlink:href="#DejaVuSans-48"/>
       <use x="190.869141" xlink:href="#DejaVuSans-48"/>
      </g>
     </g>
    </g>
    <g id="ytick_7">
     <g id="line2d_13">
      <g>
       <use style="fill:#ffffff;stroke:#ffffff;stroke-width:0.8;" x="53.328125" xlink:href="#m267ecd3772" y="41.733222"/>
      </g>
     </g>
     <g id="text_14">
      <!-- 3000 -->
      <g style="fill:#ffffff;" transform="translate(20.878125 45.532441)scale(0.1 -0.1)">
       <use xlink:href="#DejaVuSans-51"/>
       <use x="63.623047" xlink:href="#DejaVuSans-48"/>
       <use x="127.246094" xlink:href="#DejaVuSans-48"/>
       <use x="190.869141" xlink:href="#DejaVuSans-48"/>
      </g>
     </g>
    </g>
    <g id="ytick_8">
     <g id="line2d_14">
      <g>
       <use style="fill:#ffffff;stroke:#ffffff;stroke-width:0.8;" x="53.328125" xlink:href="#m267ecd3772" y="10.999219"/>
      </g>
     </g>
     <g id="text_15">
      <!-- 3500 -->
      <g style="fill:#ffffff;" transform="translate(20.878125 14.798437)scale(0.1 -0.1)">
       <use xlink:href="#DejaVuSans-51"/>
       <use x="63.623047" xlink:href="#DejaVuSans-53"/>
       <use x="127.246094" xlink:href="#DejaVuSans-48"/>
       <use x="190.869141" xlink:href="#DejaVuSans-48"/>
      </g>
     </g>
    </g>
    <g id="text_16">
     <!-- Frequenza -->
     <defs>
      <path d="M 9.8125 72.90625 
L 51.703125 72.90625 
L 51.703125 64.59375 
L 19.671875 64.59375 
L 19.671875 43.109375 
L 48.578125 43.109375 
L 48.578125 34.8125 
L 19.671875 34.8125 
L 19.671875 0 
L 9.8125 0 
z
" id="DejaVuSans-70"/>
      <path d="M 41.109375 46.296875 
Q 39.59375 47.171875 37.8125 47.578125 
Q 36.03125 48 33.890625 48 
Q 26.265625 48 22.1875 43.046875 
Q 18.109375 38.09375 18.109375 28.8125 
L 18.109375 0 
L 9.078125 0 
L 9.078125 54.6875 
L 18.109375 54.6875 
L 18.109375 46.1875 
Q 20.953125 51.171875 25.484375 53.578125 
Q 30.03125 56 36.53125 56 
Q 37.453125 56 38.578125 55.875 
Q 39.703125 55.765625 41.0625 55.515625 
z
" id="DejaVuSans-114"/>
      <path d="M 56.203125 29.59375 
L 56.203125 25.203125 
L 14.890625 25.203125 
Q 15.484375 15.921875 20.484375 11.0625 
Q 25.484375 6.203125 34.421875 6.203125 
Q 39.59375 6.203125 44.453125 7.46875 
Q 49.3125 8.734375 54.109375 11.28125 
L 54.109375 2.78125 
Q 49.265625 0.734375 44.1875 -0.34375 
Q 39.109375 -1.421875 33.890625 -1.421875 
Q 20.796875 -1.421875 13.15625 6.1875 
Q 5.515625 13.8125 5.515625 26.8125 
Q 5.515625 40.234375 12.765625 48.109375 
Q 20.015625 56 32.328125 56 
Q 43.359375 56 49.78125 48.890625 
Q 56.203125 41.796875 56.203125 29.59375 
z
M 47.21875 32.234375 
Q 47.125 39.59375 43.09375 43.984375 
Q 39.0625 48.390625 32.421875 48.390625 
Q 24.90625 48.390625 20.390625 44.140625 
Q 15.875 39.890625 15.1875 32.171875 
z
" id="DejaVuSans-101"/>
      <path d="M 14.796875 27.296875 
Q 14.796875 17.390625 18.875 11.75 
Q 22.953125 6.109375 30.078125 6.109375 
Q 37.203125 6.109375 41.296875 11.75 
Q 45.40625 17.390625 45.40625 27.296875 
Q 45.40625 37.203125 41.296875 42.84375 
Q 37.203125 48.484375 30.078125 48.484375 
Q 22.953125 48.484375 18.875 42.84375 
Q 14.796875 37.203125 14.796875 27.296875 
z
M 45.40625 8.203125 
Q 42.578125 3.328125 38.25 0.953125 
Q 33.9375 -1.421875 27.875 -1.421875 
Q 17.96875 -1.421875 11.734375 6.484375 
Q 5.515625 14.40625 5.515625 27.296875 
Q 5.515625 40.1875 11.734375 48.09375 
Q 17.96875 56 27.875 56 
Q 33.9375 56 38.25 53.625 
Q 42.578125 51.265625 45.40625 46.390625 
L 45.40625 54.6875 
L 54.390625 54.6875 
L 54.390625 -20.796875 
L 45.40625 -20.796875 
z
" id="DejaVuSans-113"/>
      <path d="M 8.5 21.578125 
L 8.5 54.6875 
L 17.484375 54.6875 
L 17.484375 21.921875 
Q 17.484375 14.15625 20.5 10.265625 
Q 23.53125 6.390625 29.59375 6.390625 
Q 36.859375 6.390625 41.078125 11.03125 
Q 45.3125 15.671875 45.3125 23.6875 
L 45.3125 54.6875 
L 54.296875 54.6875 
L 54.296875 0 
L 45.3125 0 
L 45.3125 8.40625 
Q 42.046875 3.421875 37.71875 1 
Q 33.40625 -1.421875 27.6875 -1.421875 
Q 18.265625 -1.421875 13.375 4.4375 
Q 8.5 10.296875 8.5 21.578125 
z
M 31.109375 56 
z
" id="DejaVuSans-117"/>
      <path d="M 54.890625 33.015625 
L 54.890625 0 
L 45.90625 0 
L 45.90625 32.71875 
Q 45.90625 40.484375 42.875 44.328125 
Q 39.84375 48.1875 33.796875 48.1875 
Q 26.515625 48.1875 22.3125 43.546875 
Q 18.109375 38.921875 18.109375 30.90625 
L 18.109375 0 
L 9.078125 0 
L 9.078125 54.6875 
L 18.109375 54.6875 
L 18.109375 46.1875 
Q 21.34375 51.125 25.703125 53.5625 
Q 30.078125 56 35.796875 56 
Q 45.21875 56 50.046875 50.171875 
Q 54.890625 44.34375 54.890625 33.015625 
z
" id="DejaVuSans-110"/>
      <path d="M 5.515625 54.6875 
L 48.1875 54.6875 
L 48.1875 46.484375 
L 14.40625 7.171875 
L 48.1875 7.171875 
L 48.1875 0 
L 4.296875 0 
L 4.296875 8.203125 
L 38.09375 47.515625 
L 5.515625 47.515625 
z
" id="DejaVuSans-122"/>
      <path d="M 34.28125 27.484375 
Q 23.390625 27.484375 19.1875 25 
Q 14.984375 22.515625 14.984375 16.5 
Q 14.984375 11.71875 18.140625 8.90625 
Q 21.296875 6.109375 26.703125 6.109375 
Q 34.1875 6.109375 38.703125 11.40625 
Q 43.21875 16.703125 43.21875 25.484375 
L 43.21875 27.484375 
z
M 52.203125 31.203125 
L 52.203125 0 
L 43.21875 0 
L 43.21875 8.296875 
Q 40.140625 3.328125 35.546875 0.953125 
Q 30.953125 -1.421875 24.3125 -1.421875 
Q 15.921875 -1.421875 10.953125 3.296875 
Q 6 8.015625 6 15.921875 
Q 6 25.140625 12.171875 29.828125 
Q 18.359375 34.515625 30.609375 34.515625 
L 43.21875 34.515625 
L 43.21875 35.40625 
Q 43.21875 41.609375 39.140625 45 
Q 35.0625 48.390625 27.6875 48.390625 
Q 23 48.390625 18.546875 47.265625 
Q 14.109375 46.140625 10.015625 43.890625 
L 10.015625 52.203125 
Q 14.9375 54.109375 19.578125 55.046875 
Q 24.21875 56 28.609375 56 
Q 40.484375 56 46.34375 49.84375 
Q 52.203125 43.703125 52.203125 31.203125 
z
" id="DejaVuSans-97"/>
     </defs>
     <g style="fill:#ffffff;" transform="translate(14.798438 143.694586)rotate(-90)scale(0.1 -0.1)">
      <use xlink:href="#DejaVuSans-70"/>
      <use x="57.410156" xlink:href="#DejaVuSans-114"/>
      <use x="98.492188" xlink:href="#DejaVuSans-101"/>
      <use x="160.015625" xlink:href="#DejaVuSans-113"/>
      <use x="223.492188" xlink:href="#DejaVuSans-117"/>
      <use x="286.871094" xlink:href="#DejaVuSans-101"/>
      <use x="348.394531" xlink:href="#DejaVuSans-110"/>
      <use x="411.773438" xlink:href="#DejaVuSans-122"/>
      <use x="464.263672" xlink:href="#DejaVuSans-97"/>
     </g>
    </g>
   </g>
   <g id="patch_303">
    <path d="M 53.328125 226.137242 
L 53.328125 8.697242 
" style="fill:none;stroke:#ffffff;stroke-linecap:square;stroke-linejoin:miter;stroke-width:0.8;"/>
   </g>
   <g id="patch_304">
    <path d="M 388.128125 226.137242 
L 388.128125 8.697242 
" style="fill:none;stroke:#ffffff;stroke-linecap:square;stroke-linejoin:miter;stroke-width:0.8;"/>
   </g>
   <g id="patch_305">
    <path d="M 53.328125 226.137242 
L 388.128125 226.137242 
" style="fill:none;stroke:#ffffff;stroke-linecap:square;stroke-linejoin:miter;stroke-width:0.8;"/>
   </g>
   <g id="patch_306">
    <path d="M 53.328125 8.697242 
L 388.128125 8.697242 
" style="fill:none;stroke:#ffffff;stroke-linecap:square;stroke-linejoin:miter;stroke-width:0.8;"/>
   </g>
  </g>
 </g>
 <defs>
  <clipPath id="pa58382315b">
   <rect height="217.44" width="334.8" x="53.328125" y="8.697242"/>
  </clipPath>
 </defs>
</svg>
