<?xml version="1.0" encoding="utf-8" standalone="no"?>
<!DOCTYPE svg PUBLIC "-//W3C//DTD SVG 1.1//EN"
  "http://www.w3.org/Graphics/SVG/1.1/DTD/svg11.dtd">
<!-- Created with matplotlib (https://matplotlib.org/) -->
<svg height="262.19625pt" version="1.1" viewBox="0 0 395.328125 262.19625" width="395.328125pt" xmlns="http://www.w3.org/2000/svg" xmlns:xlink="http://www.w3.org/1999/xlink">
 <defs>
  <style type="text/css">
*{stroke-linecap:butt;stroke-linejoin:round;}
  </style>
 </defs>
 <g id="figure_1">
  <g id="patch_1">
   <path d="M 0 262.19625 
L 395.328125 262.19625 
L 395.328125 0 
L 0 0 
z
"/>
  </g>
  <g id="axes_1">
   <g id="patch_2">
    <path d="M 53.328125 224.64 
L 388.128125 224.64 
L 388.128125 7.2 
L 53.328125 7.2 
z
"/>
   </g>
   <g id="patch_3">
    <path clip-path="url(#pf64231d4ba)" d="M 68.546307 224.64 
L 71.589943 224.64 
L 71.589943 224.582826 
L 68.546307 224.582826 
z
" style="fill:#8dd3c7;"/>
   </g>
   <g id="patch_4">
    <path clip-path="url(#pf64231d4ba)" d="M 71.589943 224.64 
L 74.63358 224.64 
L 74.63358 224.64 
L 71.589943 224.64 
z
" style="fill:#8dd3c7;"/>
   </g>
   <g id="patch_5">
    <path clip-path="url(#pf64231d4ba)" d="M 74.63358 224.64 
L 77.677216 224.64 
L 77.677216 224.64 
L 74.63358 224.64 
z
" style="fill:#8dd3c7;"/>
   </g>
   <g id="patch_6">
    <path clip-path="url(#pf64231d4ba)" d="M 77.677216 224.64 
L 80.720852 224.64 
L 80.720852 224.64 
L 77.677216 224.64 
z
" style="fill:#8dd3c7;"/>
   </g>
   <g id="patch_7">
    <path clip-path="url(#pf64231d4ba)" d="M 80.720852 224.64 
L 83.764489 224.64 
L 83.764489 224.582826 
L 80.720852 224.582826 
z
" style="fill:#8dd3c7;"/>
   </g>
   <g id="patch_8">
    <path clip-path="url(#pf64231d4ba)" d="M 83.764489 224.64 
L 86.808125 224.64 
L 86.808125 224.525651 
L 83.764489 224.525651 
z
" style="fill:#8dd3c7;"/>
   </g>
   <g id="patch_9">
    <path clip-path="url(#pf64231d4ba)" d="M 86.808125 224.64 
L 89.851761 224.64 
L 89.851761 224.354128 
L 86.808125 224.354128 
z
" style="fill:#8dd3c7;"/>
   </g>
   <g id="patch_10">
    <path clip-path="url(#pf64231d4ba)" d="M 89.851761 224.64 
L 92.895398 224.64 
L 92.895398 224.468477 
L 89.851761 224.468477 
z
" style="fill:#8dd3c7;"/>
   </g>
   <g id="patch_11">
    <path clip-path="url(#pf64231d4ba)" d="M 92.895398 224.64 
L 95.939034 224.64 
L 95.939034 224.468477 
L 92.895398 224.468477 
z
" style="fill:#8dd3c7;"/>
   </g>
   <g id="patch_12">
    <path clip-path="url(#pf64231d4ba)" d="M 95.939034 224.64 
L 98.98267 224.64 
L 98.98267 224.468477 
L 95.939034 224.468477 
z
" style="fill:#8dd3c7;"/>
   </g>
   <g id="patch_13">
    <path clip-path="url(#pf64231d4ba)" d="M 98.98267 224.64 
L 102.026307 224.64 
L 102.026307 224.468477 
L 98.98267 224.468477 
z
" style="fill:#8dd3c7;"/>
   </g>
   <g id="patch_14">
    <path clip-path="url(#pf64231d4ba)" d="M 102.026307 224.64 
L 105.069943 224.64 
L 105.069943 224.182605 
L 102.026307 224.182605 
z
" style="fill:#8dd3c7;"/>
   </g>
   <g id="patch_15">
    <path clip-path="url(#pf64231d4ba)" d="M 105.069943 224.64 
L 108.11358 224.64 
L 108.11358 223.725209 
L 105.069943 223.725209 
z
" style="fill:#8dd3c7;"/>
   </g>
   <g id="patch_16">
    <path clip-path="url(#pf64231d4ba)" d="M 108.11358 224.64 
L 111.157216 224.64 
L 111.157216 223.610861 
L 108.11358 223.610861 
z
" style="fill:#8dd3c7;"/>
   </g>
   <g id="patch_17">
    <path clip-path="url(#pf64231d4ba)" d="M 111.157216 224.64 
L 114.200852 224.64 
L 114.200852 223.21064 
L 111.157216 223.21064 
z
" style="fill:#8dd3c7;"/>
   </g>
   <g id="patch_18">
    <path clip-path="url(#pf64231d4ba)" d="M 114.200852 224.64 
L 117.244489 224.64 
L 117.244489 223.039117 
L 114.200852 223.039117 
z
" style="fill:#8dd3c7;"/>
   </g>
   <g id="patch_19">
    <path clip-path="url(#pf64231d4ba)" d="M 117.244489 224.64 
L 120.288125 224.64 
L 120.288125 223.039117 
L 117.244489 223.039117 
z
" style="fill:#8dd3c7;"/>
   </g>
   <g id="patch_20">
    <path clip-path="url(#pf64231d4ba)" d="M 120.288125 224.64 
L 123.331761 224.64 
L 123.331761 222.353024 
L 120.288125 222.353024 
z
" style="fill:#8dd3c7;"/>
   </g>
   <g id="patch_21">
    <path clip-path="url(#pf64231d4ba)" d="M 123.331761 224.64 
L 126.375398 224.64 
L 126.375398 221.495407 
L 123.331761 221.495407 
z
" style="fill:#8dd3c7;"/>
   </g>
   <g id="patch_22">
    <path clip-path="url(#pf64231d4ba)" d="M 126.375398 224.64 
L 129.419034 224.64 
L 129.419034 220.809315 
L 126.375398 220.809315 
z
" style="fill:#8dd3c7;"/>
   </g>
   <g id="patch_23">
    <path clip-path="url(#pf64231d4ba)" d="M 129.419034 224.64 
L 132.46267 224.64 
L 132.46267 218.350815 
L 129.419034 218.350815 
z
" style="fill:#8dd3c7;"/>
   </g>
   <g id="patch_24">
    <path clip-path="url(#pf64231d4ba)" d="M 132.46267 224.64 
L 135.506307 224.64 
L 135.506307 217.550373 
L 132.46267 217.550373 
z
" style="fill:#8dd3c7;"/>
   </g>
   <g id="patch_25">
    <path clip-path="url(#pf64231d4ba)" d="M 135.506307 224.64 
L 138.549943 224.64 
L 138.549943 214.119908 
L 135.506307 214.119908 
z
" style="fill:#8dd3c7;"/>
   </g>
   <g id="patch_26">
    <path clip-path="url(#pf64231d4ba)" d="M 138.549943 224.64 
L 141.59358 224.64 
L 141.59358 214.119908 
L 138.549943 214.119908 
z
" style="fill:#8dd3c7;"/>
   </g>
   <g id="patch_27">
    <path clip-path="url(#pf64231d4ba)" d="M 141.59358 224.64 
L 144.637216 224.64 
L 144.637216 211.204014 
L 141.59358 211.204014 
z
" style="fill:#8dd3c7;"/>
   </g>
   <g id="patch_28">
    <path clip-path="url(#pf64231d4ba)" d="M 144.637216 224.64 
L 147.680852 224.64 
L 147.680852 209.317258 
L 144.637216 209.317258 
z
" style="fill:#8dd3c7;"/>
   </g>
   <g id="patch_29">
    <path clip-path="url(#pf64231d4ba)" d="M 147.680852 224.64 
L 150.724489 224.64 
L 150.724489 204.000038 
L 147.680852 204.000038 
z
" style="fill:#8dd3c7;"/>
   </g>
   <g id="patch_30">
    <path clip-path="url(#pf64231d4ba)" d="M 150.724489 224.64 
L 153.768125 224.64 
L 153.768125 199.88348 
L 150.724489 199.88348 
z
" style="fill:#8dd3c7;"/>
   </g>
   <g id="patch_31">
    <path clip-path="url(#pf64231d4ba)" d="M 153.768125 224.64 
L 156.811761 224.64 
L 156.811761 193.537121 
L 153.768125 193.537121 
z
" style="fill:#8dd3c7;"/>
   </g>
   <g id="patch_32">
    <path clip-path="url(#pf64231d4ba)" d="M 156.811761 224.64 
L 159.855398 224.64 
L 159.855398 192.050586 
L 156.811761 192.050586 
z
" style="fill:#8dd3c7;"/>
   </g>
   <g id="patch_33">
    <path clip-path="url(#pf64231d4ba)" d="M 159.855398 224.64 
L 162.899034 224.64 
L 162.899034 184.903785 
L 159.855398 184.903785 
z
" style="fill:#8dd3c7;"/>
   </g>
   <g id="patch_34">
    <path clip-path="url(#pf64231d4ba)" d="M 162.899034 224.64 
L 165.94267 224.64 
L 165.94267 176.956542 
L 162.899034 176.956542 
z
" style="fill:#8dd3c7;"/>
   </g>
   <g id="patch_35">
    <path clip-path="url(#pf64231d4ba)" d="M 165.94267 224.64 
L 168.986307 224.64 
L 168.986307 170.724531 
L 165.94267 170.724531 
z
" style="fill:#8dd3c7;"/>
   </g>
   <g id="patch_36">
    <path clip-path="url(#pf64231d4ba)" d="M 168.986307 224.64 
L 172.029943 224.64 
L 172.029943 162.54859 
L 168.986307 162.54859 
z
" style="fill:#8dd3c7;"/>
   </g>
   <g id="patch_37">
    <path clip-path="url(#pf64231d4ba)" d="M 172.029943 224.64 
L 175.07358 224.64 
L 175.07358 150.198918 
L 172.029943 150.198918 
z
" style="fill:#8dd3c7;"/>
   </g>
   <g id="patch_38">
    <path clip-path="url(#pf64231d4ba)" d="M 175.07358 224.64 
L 178.117216 224.64 
L 178.117216 141.165361 
L 175.07358 141.165361 
z
" style="fill:#8dd3c7;"/>
   </g>
   <g id="patch_39">
    <path clip-path="url(#pf64231d4ba)" d="M 178.117216 224.64 
L 181.160852 224.64 
L 181.160852 129.387432 
L 178.117216 129.387432 
z
" style="fill:#8dd3c7;"/>
   </g>
   <g id="patch_40">
    <path clip-path="url(#pf64231d4ba)" d="M 181.160852 224.64 
L 184.204489 224.64 
L 184.204489 123.78434 
L 181.160852 123.78434 
z
" style="fill:#8dd3c7;"/>
   </g>
   <g id="patch_41">
    <path clip-path="url(#pf64231d4ba)" d="M 184.204489 224.64 
L 187.248125 224.64 
L 187.248125 111.777714 
L 184.204489 111.777714 
z
" style="fill:#8dd3c7;"/>
   </g>
   <g id="patch_42">
    <path clip-path="url(#pf64231d4ba)" d="M 187.248125 224.64 
L 190.291761 224.64 
L 190.291761 103.716122 
L 187.248125 103.716122 
z
" style="fill:#8dd3c7;"/>
   </g>
   <g id="patch_43">
    <path clip-path="url(#pf64231d4ba)" d="M 190.291761 224.64 
L 193.335398 224.64 
L 193.335398 85.363136 
L 190.291761 85.363136 
z
" style="fill:#8dd3c7;"/>
   </g>
   <g id="patch_44">
    <path clip-path="url(#pf64231d4ba)" d="M 193.335398 224.64 
L 196.379034 224.64 
L 196.379034 86.678148 
L 193.335398 86.678148 
z
" style="fill:#8dd3c7;"/>
   </g>
   <g id="patch_45">
    <path clip-path="url(#pf64231d4ba)" d="M 196.379034 224.64 
L 199.42267 224.64 
L 199.42267 69.068429 
L 196.379034 69.068429 
z
" style="fill:#8dd3c7;"/>
   </g>
   <g id="patch_46">
    <path clip-path="url(#pf64231d4ba)" d="M 199.42267 224.64 
L 202.466307 224.64 
L 202.466307 61.464233 
L 199.42267 61.464233 
z
" style="fill:#8dd3c7;"/>
   </g>
   <g id="patch_47">
    <path clip-path="url(#pf64231d4ba)" d="M 202.466307 224.64 
L 205.509943 224.64 
L 205.509943 50.715444 
L 202.466307 50.715444 
z
" style="fill:#8dd3c7;"/>
   </g>
   <g id="patch_48">
    <path clip-path="url(#pf64231d4ba)" d="M 205.509943 224.64 
L 208.55358 224.64 
L 208.55358 42.196457 
L 205.509943 42.196457 
z
" style="fill:#8dd3c7;"/>
   </g>
   <g id="patch_49">
    <path clip-path="url(#pf64231d4ba)" d="M 208.55358 224.64 
L 211.597216 224.64 
L 211.597216 35.049655 
L 208.55358 35.049655 
z
" style="fill:#8dd3c7;"/>
   </g>
   <g id="patch_50">
    <path clip-path="url(#pf64231d4ba)" d="M 211.597216 224.64 
L 214.640852 224.64 
L 214.640852 32.991377 
L 211.597216 32.991377 
z
" style="fill:#8dd3c7;"/>
   </g>
   <g id="patch_51">
    <path clip-path="url(#pf64231d4ba)" d="M 214.640852 224.64 
L 217.684489 224.64 
L 217.684489 27.559808 
L 214.640852 27.559808 
z
" style="fill:#8dd3c7;"/>
   </g>
   <g id="patch_52">
    <path clip-path="url(#pf64231d4ba)" d="M 217.684489 224.64 
L 220.728125 224.64 
L 220.728125 20.927576 
L 217.684489 20.927576 
z
" style="fill:#8dd3c7;"/>
   </g>
   <g id="patch_53">
    <path clip-path="url(#pf64231d4ba)" d="M 220.728125 224.64 
L 223.771761 224.64 
L 223.771761 21.442146 
L 220.728125 21.442146 
z
" style="fill:#8dd3c7;"/>
   </g>
   <g id="patch_54">
    <path clip-path="url(#pf64231d4ba)" d="M 223.771761 224.64 
L 226.815398 224.64 
L 226.815398 17.554286 
L 223.771761 17.554286 
z
" style="fill:#8dd3c7;"/>
   </g>
   <g id="patch_55">
    <path clip-path="url(#pf64231d4ba)" d="M 226.815398 224.64 
L 229.859034 224.64 
L 229.859034 20.298657 
L 226.815398 20.298657 
z
" style="fill:#8dd3c7;"/>
   </g>
   <g id="patch_56">
    <path clip-path="url(#pf64231d4ba)" d="M 229.859034 224.64 
L 232.90267 224.64 
L 232.90267 28.017203 
L 229.859034 28.017203 
z
" style="fill:#8dd3c7;"/>
   </g>
   <g id="patch_57">
    <path clip-path="url(#pf64231d4ba)" d="M 232.90267 224.64 
L 235.946307 224.64 
L 235.946307 31.390493 
L 232.90267 31.390493 
z
" style="fill:#8dd3c7;"/>
   </g>
   <g id="patch_58">
    <path clip-path="url(#pf64231d4ba)" d="M 235.946307 224.64 
L 238.989943 224.64 
L 238.989943 34.763783 
L 235.946307 34.763783 
z
" style="fill:#8dd3c7;"/>
   </g>
   <g id="patch_59">
    <path clip-path="url(#pf64231d4ba)" d="M 238.989943 224.64 
L 242.03358 224.64 
L 242.03358 46.313014 
L 238.989943 46.313014 
z
" style="fill:#8dd3c7;"/>
   </g>
   <g id="patch_60">
    <path clip-path="url(#pf64231d4ba)" d="M 242.03358 224.64 
L 245.077216 224.64 
L 245.077216 58.891384 
L 242.03358 58.891384 
z
" style="fill:#8dd3c7;"/>
   </g>
   <g id="patch_61">
    <path clip-path="url(#pf64231d4ba)" d="M 245.077216 224.64 
L 248.120852 224.64 
L 248.120852 68.782557 
L 245.077216 68.782557 
z
" style="fill:#8dd3c7;"/>
   </g>
   <g id="patch_62">
    <path clip-path="url(#pf64231d4ba)" d="M 248.120852 224.64 
L 251.164489 224.64 
L 251.164489 78.387858 
L 248.120852 78.387858 
z
" style="fill:#8dd3c7;"/>
   </g>
   <g id="patch_63">
    <path clip-path="url(#pf64231d4ba)" d="M 251.164489 224.64 
L 254.208125 224.64 
L 254.208125 83.990951 
L 251.164489 83.990951 
z
" style="fill:#8dd3c7;"/>
   </g>
   <g id="patch_64">
    <path clip-path="url(#pf64231d4ba)" d="M 254.208125 224.64 
L 257.251761 224.64 
L 257.251761 93.539077 
L 254.208125 93.539077 
z
" style="fill:#8dd3c7;"/>
   </g>
   <g id="patch_65">
    <path clip-path="url(#pf64231d4ba)" d="M 257.251761 224.64 
L 260.295398 224.64 
L 260.295398 109.490738 
L 257.251761 109.490738 
z
" style="fill:#8dd3c7;"/>
   </g>
   <g id="patch_66">
    <path clip-path="url(#pf64231d4ba)" d="M 260.295398 224.64 
L 263.339034 224.64 
L 263.339034 120.182352 
L 260.295398 120.182352 
z
" style="fill:#8dd3c7;"/>
   </g>
   <g id="patch_67">
    <path clip-path="url(#pf64231d4ba)" d="M 263.339034 224.64 
L 266.38267 224.64 
L 266.38267 124.641956 
L 263.339034 124.641956 
z
" style="fill:#8dd3c7;"/>
   </g>
   <g id="patch_68">
    <path clip-path="url(#pf64231d4ba)" d="M 266.38267 224.64 
L 269.426307 224.64 
L 269.426307 139.907524 
L 266.38267 139.907524 
z
" style="fill:#8dd3c7;"/>
   </g>
   <g id="patch_69">
    <path clip-path="url(#pf64231d4ba)" d="M 269.426307 224.64 
L 272.469943 224.64 
L 272.469943 152.42872 
L 269.426307 152.42872 
z
" style="fill:#8dd3c7;"/>
   </g>
   <g id="patch_70">
    <path clip-path="url(#pf64231d4ba)" d="M 272.469943 224.64 
L 275.51358 224.64 
L 275.51358 164.092299 
L 272.469943 164.092299 
z
" style="fill:#8dd3c7;"/>
   </g>
   <g id="patch_71">
    <path clip-path="url(#pf64231d4ba)" d="M 275.51358 224.64 
L 278.557216 224.64 
L 278.557216 166.893846 
L 275.51358 166.893846 
z
" style="fill:#8dd3c7;"/>
   </g>
   <g id="patch_72">
    <path clip-path="url(#pf64231d4ba)" d="M 278.557216 224.64 
L 281.600852 224.64 
L 281.600852 174.841089 
L 278.557216 174.841089 
z
" style="fill:#8dd3c7;"/>
   </g>
   <g id="patch_73">
    <path clip-path="url(#pf64231d4ba)" d="M 281.600852 224.64 
L 284.644489 224.64 
L 284.644489 183.188552 
L 281.600852 183.188552 
z
" style="fill:#8dd3c7;"/>
   </g>
   <g id="patch_74">
    <path clip-path="url(#pf64231d4ba)" d="M 284.644489 224.64 
L 287.688125 224.64 
L 287.688125 186.561843 
L 284.644489 186.561843 
z
" style="fill:#8dd3c7;"/>
   </g>
   <g id="patch_75">
    <path clip-path="url(#pf64231d4ba)" d="M 287.688125 224.64 
L 290.731761 224.64 
L 290.731761 193.537121 
L 287.688125 193.537121 
z
" style="fill:#8dd3c7;"/>
   </g>
   <g id="patch_76">
    <path clip-path="url(#pf64231d4ba)" d="M 290.731761 224.64 
L 293.775398 224.64 
L 293.775398 197.93955 
L 290.731761 197.93955 
z
" style="fill:#8dd3c7;"/>
   </g>
   <g id="patch_77">
    <path clip-path="url(#pf64231d4ba)" d="M 293.775398 224.64 
L 296.819034 224.64 
L 296.819034 204.743305 
L 293.775398 204.743305 
z
" style="fill:#8dd3c7;"/>
   </g>
   <g id="patch_78">
    <path clip-path="url(#pf64231d4ba)" d="M 296.819034 224.64 
L 299.86267 224.64 
L 299.86267 206.115491 
L 296.819034 206.115491 
z
" style="fill:#8dd3c7;"/>
   </g>
   <g id="patch_79">
    <path clip-path="url(#pf64231d4ba)" d="M 299.86267 224.64 
L 302.906307 224.64 
L 302.906307 209.889002 
L 299.86267 209.889002 
z
" style="fill:#8dd3c7;"/>
   </g>
   <g id="patch_80">
    <path clip-path="url(#pf64231d4ba)" d="M 302.906307 224.64 
L 305.949943 224.64 
L 305.949943 213.147944 
L 302.906307 213.147944 
z
" style="fill:#8dd3c7;"/>
   </g>
   <g id="patch_81">
    <path clip-path="url(#pf64231d4ba)" d="M 305.949943 224.64 
L 308.99358 224.64 
L 308.99358 213.262292 
L 305.949943 213.262292 
z
" style="fill:#8dd3c7;"/>
   </g>
   <g id="patch_82">
    <path clip-path="url(#pf64231d4ba)" d="M 308.99358 224.64 
L 312.037216 224.64 
L 312.037216 217.664722 
L 308.99358 217.664722 
z
" style="fill:#8dd3c7;"/>
   </g>
   <g id="patch_83">
    <path clip-path="url(#pf64231d4ba)" d="M 312.037216 224.64 
L 315.080852 224.64 
L 315.080852 217.836245 
L 312.037216 217.836245 
z
" style="fill:#8dd3c7;"/>
   </g>
   <g id="patch_84">
    <path clip-path="url(#pf64231d4ba)" d="M 315.080852 224.64 
L 318.124489 224.64 
L 318.124489 220.694966 
L 315.080852 220.694966 
z
" style="fill:#8dd3c7;"/>
   </g>
   <g id="patch_85">
    <path clip-path="url(#pf64231d4ba)" d="M 318.124489 224.64 
L 321.168125 224.64 
L 321.168125 221.095187 
L 318.124489 221.095187 
z
" style="fill:#8dd3c7;"/>
   </g>
   <g id="patch_86">
    <path clip-path="url(#pf64231d4ba)" d="M 321.168125 224.64 
L 324.211761 224.64 
L 324.211761 221.952803 
L 321.168125 221.952803 
z
" style="fill:#8dd3c7;"/>
   </g>
   <g id="patch_87">
    <path clip-path="url(#pf64231d4ba)" d="M 324.211761 224.64 
L 327.255398 224.64 
L 327.255398 222.467372 
L 324.211761 222.467372 
z
" style="fill:#8dd3c7;"/>
   </g>
   <g id="patch_88">
    <path clip-path="url(#pf64231d4ba)" d="M 327.255398 224.64 
L 330.299034 224.64 
L 330.299034 222.867593 
L 327.255398 222.867593 
z
" style="fill:#8dd3c7;"/>
   </g>
   <g id="patch_89">
    <path clip-path="url(#pf64231d4ba)" d="M 330.299034 224.64 
L 333.34267 224.64 
L 333.34267 223.496512 
L 330.299034 223.496512 
z
" style="fill:#8dd3c7;"/>
   </g>
   <g id="patch_90">
    <path clip-path="url(#pf64231d4ba)" d="M 333.34267 224.64 
L 336.386307 224.64 
L 336.386307 224.011081 
L 333.34267 224.011081 
z
" style="fill:#8dd3c7;"/>
   </g>
   <g id="patch_91">
    <path clip-path="url(#pf64231d4ba)" d="M 336.386307 224.64 
L 339.429943 224.64 
L 339.429943 224.068256 
L 336.386307 224.068256 
z
" style="fill:#8dd3c7;"/>
   </g>
   <g id="patch_92">
    <path clip-path="url(#pf64231d4ba)" d="M 339.429943 224.64 
L 342.47358 224.64 
L 342.47358 224.354128 
L 339.429943 224.354128 
z
" style="fill:#8dd3c7;"/>
   </g>
   <g id="patch_93">
    <path clip-path="url(#pf64231d4ba)" d="M 342.47358 224.64 
L 345.517216 224.64 
L 345.517216 224.411302 
L 342.47358 224.411302 
z
" style="fill:#8dd3c7;"/>
   </g>
   <g id="patch_94">
    <path clip-path="url(#pf64231d4ba)" d="M 345.517216 224.64 
L 348.560852 224.64 
L 348.560852 224.411302 
L 345.517216 224.411302 
z
" style="fill:#8dd3c7;"/>
   </g>
   <g id="patch_95">
    <path clip-path="url(#pf64231d4ba)" d="M 348.560852 224.64 
L 351.604489 224.64 
L 351.604489 224.239779 
L 348.560852 224.239779 
z
" style="fill:#8dd3c7;"/>
   </g>
   <g id="patch_96">
    <path clip-path="url(#pf64231d4ba)" d="M 351.604489 224.64 
L 354.648125 224.64 
L 354.648125 224.582826 
L 351.604489 224.582826 
z
" style="fill:#8dd3c7;"/>
   </g>
   <g id="patch_97">
    <path clip-path="url(#pf64231d4ba)" d="M 354.648125 224.64 
L 357.691761 224.64 
L 357.691761 224.582826 
L 354.648125 224.582826 
z
" style="fill:#8dd3c7;"/>
   </g>
   <g id="patch_98">
    <path clip-path="url(#pf64231d4ba)" d="M 357.691761 224.64 
L 360.735398 224.64 
L 360.735398 224.468477 
L 357.691761 224.468477 
z
" style="fill:#8dd3c7;"/>
   </g>
   <g id="patch_99">
    <path clip-path="url(#pf64231d4ba)" d="M 360.735398 224.64 
L 363.779034 224.64 
L 363.779034 224.64 
L 360.735398 224.64 
z
" style="fill:#8dd3c7;"/>
   </g>
   <g id="patch_100">
    <path clip-path="url(#pf64231d4ba)" d="M 363.779034 224.64 
L 366.82267 224.64 
L 366.82267 224.64 
L 363.779034 224.64 
z
" style="fill:#8dd3c7;"/>
   </g>
   <g id="patch_101">
    <path clip-path="url(#pf64231d4ba)" d="M 366.82267 224.64 
L 369.866307 224.64 
L 369.866307 224.64 
L 366.82267 224.64 
z
" style="fill:#8dd3c7;"/>
   </g>
   <g id="patch_102">
    <path clip-path="url(#pf64231d4ba)" d="M 369.866307 224.64 
L 372.909943 224.64 
L 372.909943 224.582826 
L 369.866307 224.582826 
z
" style="fill:#8dd3c7;"/>
   </g>
   <g id="matplotlib.axis_1">
    <g id="xtick_1">
     <g id="line2d_1">
      <defs>
       <path d="M 0 0 
L 0 3.5 
" id="m354c977a34" style="stroke:#ffffff;stroke-width:0.8;"/>
      </defs>
      <g>
       <use style="fill:#ffffff;stroke:#ffffff;stroke-width:0.8;" x="74.372009" xlink:href="#m354c977a34" y="224.64"/>
      </g>
     </g>
     <g id="text_1">
      <!-- 55 -->
      <defs>
       <path d="M 10.796875 72.90625 
L 49.515625 72.90625 
L 49.515625 64.59375 
L 19.828125 64.59375 
L 19.828125 46.734375 
Q 21.96875 47.46875 24.109375 47.828125 
Q 26.265625 48.1875 28.421875 48.1875 
Q 40.625 48.1875 47.75 41.5 
Q 54.890625 34.8125 54.890625 23.390625 
Q 54.890625 11.625 47.5625 5.09375 
Q 40.234375 -1.421875 26.90625 -1.421875 
Q 22.3125 -1.421875 17.546875 -0.640625 
Q 12.796875 0.140625 7.71875 1.703125 
L 7.71875 11.625 
Q 12.109375 9.234375 16.796875 8.0625 
Q 21.484375 6.890625 26.703125 6.890625 
Q 35.15625 6.890625 40.078125 11.328125 
Q 45.015625 15.765625 45.015625 23.390625 
Q 45.015625 31 40.078125 35.4375 
Q 35.15625 39.890625 26.703125 39.890625 
Q 22.75 39.890625 18.8125 39.015625 
Q 14.890625 38.140625 10.796875 36.28125 
z
" id="DejaVuSans-53"/>
      </defs>
      <g style="fill:#ffffff;" transform="translate(68.009509 239.238437)scale(0.1 -0.1)">
       <use xlink:href="#DejaVuSans-53"/>
       <use x="63.623047" xlink:href="#DejaVuSans-53"/>
      </g>
     </g>
    </g>
    <g id="xtick_2">
     <g id="line2d_2">
      <g>
       <use style="fill:#ffffff;stroke:#ffffff;stroke-width:0.8;" x="119.821182" xlink:href="#m354c977a34" y="224.64"/>
      </g>
     </g>
     <g id="text_2">
      <!-- 60 -->
      <defs>
       <path d="M 33.015625 40.375 
Q 26.375 40.375 22.484375 35.828125 
Q 18.609375 31.296875 18.609375 23.390625 
Q 18.609375 15.53125 22.484375 10.953125 
Q 26.375 6.390625 33.015625 6.390625 
Q 39.65625 6.390625 43.53125 10.953125 
Q 47.40625 15.53125 47.40625 23.390625 
Q 47.40625 31.296875 43.53125 35.828125 
Q 39.65625 40.375 33.015625 40.375 
z
M 52.59375 71.296875 
L 52.59375 62.3125 
Q 48.875 64.0625 45.09375 64.984375 
Q 41.3125 65.921875 37.59375 65.921875 
Q 27.828125 65.921875 22.671875 59.328125 
Q 17.53125 52.734375 16.796875 39.40625 
Q 19.671875 43.65625 24.015625 45.921875 
Q 28.375 48.1875 33.59375 48.1875 
Q 44.578125 48.1875 50.953125 41.515625 
Q 57.328125 34.859375 57.328125 23.390625 
Q 57.328125 12.15625 50.6875 5.359375 
Q 44.046875 -1.421875 33.015625 -1.421875 
Q 20.359375 -1.421875 13.671875 8.265625 
Q 6.984375 17.96875 6.984375 36.375 
Q 6.984375 53.65625 15.1875 63.9375 
Q 23.390625 74.21875 37.203125 74.21875 
Q 40.921875 74.21875 44.703125 73.484375 
Q 48.484375 72.75 52.59375 71.296875 
z
" id="DejaVuSans-54"/>
       <path d="M 31.78125 66.40625 
Q 24.171875 66.40625 20.328125 58.90625 
Q 16.5 51.421875 16.5 36.375 
Q 16.5 21.390625 20.328125 13.890625 
Q 24.171875 6.390625 31.78125 6.390625 
Q 39.453125 6.390625 43.28125 13.890625 
Q 47.125 21.390625 47.125 36.375 
Q 47.125 51.421875 43.28125 58.90625 
Q 39.453125 66.40625 31.78125 66.40625 
z
M 31.78125 74.21875 
Q 44.046875 74.21875 50.515625 64.515625 
Q 56.984375 54.828125 56.984375 36.375 
Q 56.984375 17.96875 50.515625 8.265625 
Q 44.046875 -1.421875 31.78125 -1.421875 
Q 19.53125 -1.421875 13.0625 8.265625 
Q 6.59375 17.96875 6.59375 36.375 
Q 6.59375 54.828125 13.0625 64.515625 
Q 19.53125 74.21875 31.78125 74.21875 
z
" id="DejaVuSans-48"/>
      </defs>
      <g style="fill:#ffffff;" transform="translate(113.458682 239.238437)scale(0.1 -0.1)">
       <use xlink:href="#DejaVuSans-54"/>
       <use x="63.623047" xlink:href="#DejaVuSans-48"/>
      </g>
     </g>
    </g>
    <g id="xtick_3">
     <g id="line2d_3">
      <g>
       <use style="fill:#ffffff;stroke:#ffffff;stroke-width:0.8;" x="165.270354" xlink:href="#m354c977a34" y="224.64"/>
      </g>
     </g>
     <g id="text_3">
      <!-- 65 -->
      <g style="fill:#ffffff;" transform="translate(158.907854 239.238437)scale(0.1 -0.1)">
       <use xlink:href="#DejaVuSans-54"/>
       <use x="63.623047" xlink:href="#DejaVuSans-53"/>
      </g>
     </g>
    </g>
    <g id="xtick_4">
     <g id="line2d_4">
      <g>
       <use style="fill:#ffffff;stroke:#ffffff;stroke-width:0.8;" x="210.719527" xlink:href="#m354c977a34" y="224.64"/>
      </g>
     </g>
     <g id="text_4">
      <!-- 70 -->
      <defs>
       <path d="M 8.203125 72.90625 
L 55.078125 72.90625 
L 55.078125 68.703125 
L 28.609375 0 
L 18.3125 0 
L 43.21875 64.59375 
L 8.203125 64.59375 
z
" id="DejaVuSans-55"/>
      </defs>
      <g style="fill:#ffffff;" transform="translate(204.357027 239.238437)scale(0.1 -0.1)">
       <use xlink:href="#DejaVuSans-55"/>
       <use x="63.623047" xlink:href="#DejaVuSans-48"/>
      </g>
     </g>
    </g>
    <g id="xtick_5">
     <g id="line2d_5">
      <g>
       <use style="fill:#ffffff;stroke:#ffffff;stroke-width:0.8;" x="256.168699" xlink:href="#m354c977a34" y="224.64"/>
      </g>
     </g>
     <g id="text_5">
      <!-- 75 -->
      <g style="fill:#ffffff;" transform="translate(249.806199 239.238437)scale(0.1 -0.1)">
       <use xlink:href="#DejaVuSans-55"/>
       <use x="63.623047" xlink:href="#DejaVuSans-53"/>
      </g>
     </g>
    </g>
    <g id="xtick_6">
     <g id="line2d_6">
      <g>
       <use style="fill:#ffffff;stroke:#ffffff;stroke-width:0.8;" x="301.617872" xlink:href="#m354c977a34" y="224.64"/>
      </g>
     </g>
     <g id="text_6">
      <!-- 80 -->
      <defs>
       <path d="M 31.78125 34.625 
Q 24.75 34.625 20.71875 30.859375 
Q 16.703125 27.09375 16.703125 20.515625 
Q 16.703125 13.921875 20.71875 10.15625 
Q 24.75 6.390625 31.78125 6.390625 
Q 38.8125 6.390625 42.859375 10.171875 
Q 46.921875 13.96875 46.921875 20.515625 
Q 46.921875 27.09375 42.890625 30.859375 
Q 38.875 34.625 31.78125 34.625 
z
M 21.921875 38.8125 
Q 15.578125 40.375 12.03125 44.71875 
Q 8.5 49.078125 8.5 55.328125 
Q 8.5 64.0625 14.71875 69.140625 
Q 20.953125 74.21875 31.78125 74.21875 
Q 42.671875 74.21875 48.875 69.140625 
Q 55.078125 64.0625 55.078125 55.328125 
Q 55.078125 49.078125 51.53125 44.71875 
Q 48 40.375 41.703125 38.8125 
Q 48.828125 37.15625 52.796875 32.3125 
Q 56.78125 27.484375 56.78125 20.515625 
Q 56.78125 9.90625 50.3125 4.234375 
Q 43.84375 -1.421875 31.78125 -1.421875 
Q 19.734375 -1.421875 13.25 4.234375 
Q 6.78125 9.90625 6.78125 20.515625 
Q 6.78125 27.484375 10.78125 32.3125 
Q 14.796875 37.15625 21.921875 38.8125 
z
M 18.3125 54.390625 
Q 18.3125 48.734375 21.84375 45.5625 
Q 25.390625 42.390625 31.78125 42.390625 
Q 38.140625 42.390625 41.71875 45.5625 
Q 45.3125 48.734375 45.3125 54.390625 
Q 45.3125 60.0625 41.71875 63.234375 
Q 38.140625 66.40625 31.78125 66.40625 
Q 25.390625 66.40625 21.84375 63.234375 
Q 18.3125 60.0625 18.3125 54.390625 
z
" id="DejaVuSans-56"/>
      </defs>
      <g style="fill:#ffffff;" transform="translate(295.255372 239.238437)scale(0.1 -0.1)">
       <use xlink:href="#DejaVuSans-56"/>
       <use x="63.623047" xlink:href="#DejaVuSans-48"/>
      </g>
     </g>
    </g>
    <g id="xtick_7">
     <g id="line2d_7">
      <g>
       <use style="fill:#ffffff;stroke:#ffffff;stroke-width:0.8;" x="347.067044" xlink:href="#m354c977a34" y="224.64"/>
      </g>
     </g>
     <g id="text_7">
      <!-- 85 -->
      <g style="fill:#ffffff;" transform="translate(340.704544 239.238437)scale(0.1 -0.1)">
       <use xlink:href="#DejaVuSans-56"/>
       <use x="63.623047" xlink:href="#DejaVuSans-53"/>
      </g>
     </g>
    </g>
    <g id="text_8">
     <!-- Calore latente di fusione [Cal/g] -->
     <defs>
      <path d="M 64.40625 67.28125 
L 64.40625 56.890625 
Q 59.421875 61.53125 53.78125 63.8125 
Q 48.140625 66.109375 41.796875 66.109375 
Q 29.296875 66.109375 22.65625 58.46875 
Q 16.015625 50.828125 16.015625 36.375 
Q 16.015625 21.96875 22.65625 14.328125 
Q 29.296875 6.6875 41.796875 6.6875 
Q 48.140625 6.6875 53.78125 8.984375 
Q 59.421875 11.28125 64.40625 15.921875 
L 64.40625 5.609375 
Q 59.234375 2.09375 53.4375 0.328125 
Q 47.65625 -1.421875 41.21875 -1.421875 
Q 24.65625 -1.421875 15.125 8.703125 
Q 5.609375 18.84375 5.609375 36.375 
Q 5.609375 53.953125 15.125 64.078125 
Q 24.65625 74.21875 41.21875 74.21875 
Q 47.75 74.21875 53.53125 72.484375 
Q 59.328125 70.75 64.40625 67.28125 
z
" id="DejaVuSans-67"/>
      <path d="M 34.28125 27.484375 
Q 23.390625 27.484375 19.1875 25 
Q 14.984375 22.515625 14.984375 16.5 
Q 14.984375 11.71875 18.140625 8.90625 
Q 21.296875 6.109375 26.703125 6.109375 
Q 34.1875 6.109375 38.703125 11.40625 
Q 43.21875 16.703125 43.21875 25.484375 
L 43.21875 27.484375 
z
M 52.203125 31.203125 
L 52.203125 0 
L 43.21875 0 
L 43.21875 8.296875 
Q 40.140625 3.328125 35.546875 0.953125 
Q 30.953125 -1.421875 24.3125 -1.421875 
Q 15.921875 -1.421875 10.953125 3.296875 
Q 6 8.015625 6 15.921875 
Q 6 25.140625 12.171875 29.828125 
Q 18.359375 34.515625 30.609375 34.515625 
L 43.21875 34.515625 
L 43.21875 35.40625 
Q 43.21875 41.609375 39.140625 45 
Q 35.0625 48.390625 27.6875 48.390625 
Q 23 48.390625 18.546875 47.265625 
Q 14.109375 46.140625 10.015625 43.890625 
L 10.015625 52.203125 
Q 14.9375 54.109375 19.578125 55.046875 
Q 24.21875 56 28.609375 56 
Q 40.484375 56 46.34375 49.84375 
Q 52.203125 43.703125 52.203125 31.203125 
z
" id="DejaVuSans-97"/>
      <path d="M 9.421875 75.984375 
L 18.40625 75.984375 
L 18.40625 0 
L 9.421875 0 
z
" id="DejaVuSans-108"/>
      <path d="M 30.609375 48.390625 
Q 23.390625 48.390625 19.1875 42.75 
Q 14.984375 37.109375 14.984375 27.296875 
Q 14.984375 17.484375 19.15625 11.84375 
Q 23.34375 6.203125 30.609375 6.203125 
Q 37.796875 6.203125 41.984375 11.859375 
Q 46.1875 17.53125 46.1875 27.296875 
Q 46.1875 37.015625 41.984375 42.703125 
Q 37.796875 48.390625 30.609375 48.390625 
z
M 30.609375 56 
Q 42.328125 56 49.015625 48.375 
Q 55.71875 40.765625 55.71875 27.296875 
Q 55.71875 13.875 49.015625 6.21875 
Q 42.328125 -1.421875 30.609375 -1.421875 
Q 18.84375 -1.421875 12.171875 6.21875 
Q 5.515625 13.875 5.515625 27.296875 
Q 5.515625 40.765625 12.171875 48.375 
Q 18.84375 56 30.609375 56 
z
" id="DejaVuSans-111"/>
      <path d="M 41.109375 46.296875 
Q 39.59375 47.171875 37.8125 47.578125 
Q 36.03125 48 33.890625 48 
Q 26.265625 48 22.1875 43.046875 
Q 18.109375 38.09375 18.109375 28.8125 
L 18.109375 0 
L 9.078125 0 
L 9.078125 54.6875 
L 18.109375 54.6875 
L 18.109375 46.1875 
Q 20.953125 51.171875 25.484375 53.578125 
Q 30.03125 56 36.53125 56 
Q 37.453125 56 38.578125 55.875 
Q 39.703125 55.765625 41.0625 55.515625 
z
" id="DejaVuSans-114"/>
      <path d="M 56.203125 29.59375 
L 56.203125 25.203125 
L 14.890625 25.203125 
Q 15.484375 15.921875 20.484375 11.0625 
Q 25.484375 6.203125 34.421875 6.203125 
Q 39.59375 6.203125 44.453125 7.46875 
Q 49.3125 8.734375 54.109375 11.28125 
L 54.109375 2.78125 
Q 49.265625 0.734375 44.1875 -0.34375 
Q 39.109375 -1.421875 33.890625 -1.421875 
Q 20.796875 -1.421875 13.15625 6.1875 
Q 5.515625 13.8125 5.515625 26.8125 
Q 5.515625 40.234375 12.765625 48.109375 
Q 20.015625 56 32.328125 56 
Q 43.359375 56 49.78125 48.890625 
Q 56.203125 41.796875 56.203125 29.59375 
z
M 47.21875 32.234375 
Q 47.125 39.59375 43.09375 43.984375 
Q 39.0625 48.390625 32.421875 48.390625 
Q 24.90625 48.390625 20.390625 44.140625 
Q 15.875 39.890625 15.1875 32.171875 
z
" id="DejaVuSans-101"/>
      <path id="DejaVuSans-32"/>
      <path d="M 18.3125 70.21875 
L 18.3125 54.6875 
L 36.8125 54.6875 
L 36.8125 47.703125 
L 18.3125 47.703125 
L 18.3125 18.015625 
Q 18.3125 11.328125 20.140625 9.421875 
Q 21.96875 7.515625 27.59375 7.515625 
L 36.8125 7.515625 
L 36.8125 0 
L 27.59375 0 
Q 17.1875 0 13.234375 3.875 
Q 9.28125 7.765625 9.28125 18.015625 
L 9.28125 47.703125 
L 2.6875 47.703125 
L 2.6875 54.6875 
L 9.28125 54.6875 
L 9.28125 70.21875 
z
" id="DejaVuSans-116"/>
      <path d="M 54.890625 33.015625 
L 54.890625 0 
L 45.90625 0 
L 45.90625 32.71875 
Q 45.90625 40.484375 42.875 44.328125 
Q 39.84375 48.1875 33.796875 48.1875 
Q 26.515625 48.1875 22.3125 43.546875 
Q 18.109375 38.921875 18.109375 30.90625 
L 18.109375 0 
L 9.078125 0 
L 9.078125 54.6875 
L 18.109375 54.6875 
L 18.109375 46.1875 
Q 21.34375 51.125 25.703125 53.5625 
Q 30.078125 56 35.796875 56 
Q 45.21875 56 50.046875 50.171875 
Q 54.890625 44.34375 54.890625 33.015625 
z
" id="DejaVuSans-110"/>
      <path d="M 45.40625 46.390625 
L 45.40625 75.984375 
L 54.390625 75.984375 
L 54.390625 0 
L 45.40625 0 
L 45.40625 8.203125 
Q 42.578125 3.328125 38.25 0.953125 
Q 33.9375 -1.421875 27.875 -1.421875 
Q 17.96875 -1.421875 11.734375 6.484375 
Q 5.515625 14.40625 5.515625 27.296875 
Q 5.515625 40.1875 11.734375 48.09375 
Q 17.96875 56 27.875 56 
Q 33.9375 56 38.25 53.625 
Q 42.578125 51.265625 45.40625 46.390625 
z
M 14.796875 27.296875 
Q 14.796875 17.390625 18.875 11.75 
Q 22.953125 6.109375 30.078125 6.109375 
Q 37.203125 6.109375 41.296875 11.75 
Q 45.40625 17.390625 45.40625 27.296875 
Q 45.40625 37.203125 41.296875 42.84375 
Q 37.203125 48.484375 30.078125 48.484375 
Q 22.953125 48.484375 18.875 42.84375 
Q 14.796875 37.203125 14.796875 27.296875 
z
" id="DejaVuSans-100"/>
      <path d="M 9.421875 54.6875 
L 18.40625 54.6875 
L 18.40625 0 
L 9.421875 0 
z
M 9.421875 75.984375 
L 18.40625 75.984375 
L 18.40625 64.59375 
L 9.421875 64.59375 
z
" id="DejaVuSans-105"/>
      <path d="M 37.109375 75.984375 
L 37.109375 68.5 
L 28.515625 68.5 
Q 23.6875 68.5 21.796875 66.546875 
Q 19.921875 64.59375 19.921875 59.515625 
L 19.921875 54.6875 
L 34.71875 54.6875 
L 34.71875 47.703125 
L 19.921875 47.703125 
L 19.921875 0 
L 10.890625 0 
L 10.890625 47.703125 
L 2.296875 47.703125 
L 2.296875 54.6875 
L 10.890625 54.6875 
L 10.890625 58.5 
Q 10.890625 67.625 15.140625 71.796875 
Q 19.390625 75.984375 28.609375 75.984375 
z
" id="DejaVuSans-102"/>
      <path d="M 8.5 21.578125 
L 8.5 54.6875 
L 17.484375 54.6875 
L 17.484375 21.921875 
Q 17.484375 14.15625 20.5 10.265625 
Q 23.53125 6.390625 29.59375 6.390625 
Q 36.859375 6.390625 41.078125 11.03125 
Q 45.3125 15.671875 45.3125 23.6875 
L 45.3125 54.6875 
L 54.296875 54.6875 
L 54.296875 0 
L 45.3125 0 
L 45.3125 8.40625 
Q 42.046875 3.421875 37.71875 1 
Q 33.40625 -1.421875 27.6875 -1.421875 
Q 18.265625 -1.421875 13.375 4.4375 
Q 8.5 10.296875 8.5 21.578125 
z
M 31.109375 56 
z
" id="DejaVuSans-117"/>
      <path d="M 44.28125 53.078125 
L 44.28125 44.578125 
Q 40.484375 46.53125 36.375 47.5 
Q 32.28125 48.484375 27.875 48.484375 
Q 21.1875 48.484375 17.84375 46.4375 
Q 14.5 44.390625 14.5 40.28125 
Q 14.5 37.15625 16.890625 35.375 
Q 19.28125 33.59375 26.515625 31.984375 
L 29.59375 31.296875 
Q 39.15625 29.25 43.1875 25.515625 
Q 47.21875 21.78125 47.21875 15.09375 
Q 47.21875 7.46875 41.1875 3.015625 
Q 35.15625 -1.421875 24.609375 -1.421875 
Q 20.21875 -1.421875 15.453125 -0.5625 
Q 10.6875 0.296875 5.421875 2 
L 5.421875 11.28125 
Q 10.40625 8.6875 15.234375 7.390625 
Q 20.0625 6.109375 24.8125 6.109375 
Q 31.15625 6.109375 34.5625 8.28125 
Q 37.984375 10.453125 37.984375 14.40625 
Q 37.984375 18.0625 35.515625 20.015625 
Q 33.0625 21.96875 24.703125 23.78125 
L 21.578125 24.515625 
Q 13.234375 26.265625 9.515625 29.90625 
Q 5.8125 33.546875 5.8125 39.890625 
Q 5.8125 47.609375 11.28125 51.796875 
Q 16.75 56 26.8125 56 
Q 31.78125 56 36.171875 55.265625 
Q 40.578125 54.546875 44.28125 53.078125 
z
" id="DejaVuSans-115"/>
      <path d="M 8.59375 75.984375 
L 29.296875 75.984375 
L 29.296875 69 
L 17.578125 69 
L 17.578125 -6.203125 
L 29.296875 -6.203125 
L 29.296875 -13.1875 
L 8.59375 -13.1875 
z
" id="DejaVuSans-91"/>
      <path d="M 25.390625 72.90625 
L 33.6875 72.90625 
L 8.296875 -9.28125 
L 0 -9.28125 
z
" id="DejaVuSans-47"/>
      <path d="M 45.40625 27.984375 
Q 45.40625 37.75 41.375 43.109375 
Q 37.359375 48.484375 30.078125 48.484375 
Q 22.859375 48.484375 18.828125 43.109375 
Q 14.796875 37.75 14.796875 27.984375 
Q 14.796875 18.265625 18.828125 12.890625 
Q 22.859375 7.515625 30.078125 7.515625 
Q 37.359375 7.515625 41.375 12.890625 
Q 45.40625 18.265625 45.40625 27.984375 
z
M 54.390625 6.78125 
Q 54.390625 -7.171875 48.1875 -13.984375 
Q 42 -20.796875 29.203125 -20.796875 
Q 24.46875 -20.796875 20.265625 -20.09375 
Q 16.0625 -19.390625 12.109375 -17.921875 
L 12.109375 -9.1875 
Q 16.0625 -11.328125 19.921875 -12.34375 
Q 23.78125 -13.375 27.78125 -13.375 
Q 36.625 -13.375 41.015625 -8.765625 
Q 45.40625 -4.15625 45.40625 5.171875 
L 45.40625 9.625 
Q 42.625 4.78125 38.28125 2.390625 
Q 33.9375 0 27.875 0 
Q 17.828125 0 11.671875 7.65625 
Q 5.515625 15.328125 5.515625 27.984375 
Q 5.515625 40.671875 11.671875 48.328125 
Q 17.828125 56 27.875 56 
Q 33.9375 56 38.28125 53.609375 
Q 42.625 51.21875 45.40625 46.390625 
L 45.40625 54.6875 
L 54.390625 54.6875 
z
" id="DejaVuSans-103"/>
      <path d="M 30.421875 75.984375 
L 30.421875 -13.1875 
L 9.71875 -13.1875 
L 9.71875 -6.203125 
L 21.390625 -6.203125 
L 21.390625 69 
L 9.71875 69 
L 9.71875 75.984375 
z
" id="DejaVuSans-93"/>
     </defs>
     <g style="fill:#ffffff;" transform="translate(141.046875 252.916562)scale(0.1 -0.1)">
      <use xlink:href="#DejaVuSans-67"/>
      <use x="69.824219" xlink:href="#DejaVuSans-97"/>
      <use x="131.103516" xlink:href="#DejaVuSans-108"/>
      <use x="158.886719" xlink:href="#DejaVuSans-111"/>
      <use x="220.068359" xlink:href="#DejaVuSans-114"/>
      <use x="261.150391" xlink:href="#DejaVuSans-101"/>
      <use x="322.673828" xlink:href="#DejaVuSans-32"/>
      <use x="354.460938" xlink:href="#DejaVuSans-108"/>
      <use x="382.244141" xlink:href="#DejaVuSans-97"/>
      <use x="443.523438" xlink:href="#DejaVuSans-116"/>
      <use x="482.732422" xlink:href="#DejaVuSans-101"/>
      <use x="544.255859" xlink:href="#DejaVuSans-110"/>
      <use x="607.634766" xlink:href="#DejaVuSans-116"/>
      <use x="646.84375" xlink:href="#DejaVuSans-101"/>
      <use x="708.367188" xlink:href="#DejaVuSans-32"/>
      <use x="740.154297" xlink:href="#DejaVuSans-100"/>
      <use x="803.630859" xlink:href="#DejaVuSans-105"/>
      <use x="831.414062" xlink:href="#DejaVuSans-32"/>
      <use x="863.201172" xlink:href="#DejaVuSans-102"/>
      <use x="898.40625" xlink:href="#DejaVuSans-117"/>
      <use x="961.785156" xlink:href="#DejaVuSans-115"/>
      <use x="1013.884766" xlink:href="#DejaVuSans-105"/>
      <use x="1041.667969" xlink:href="#DejaVuSans-111"/>
      <use x="1102.849609" xlink:href="#DejaVuSans-110"/>
      <use x="1166.228516" xlink:href="#DejaVuSans-101"/>
      <use x="1227.751953" xlink:href="#DejaVuSans-32"/>
      <use x="1259.539062" xlink:href="#DejaVuSans-91"/>
      <use x="1298.552734" xlink:href="#DejaVuSans-67"/>
      <use x="1368.376953" xlink:href="#DejaVuSans-97"/>
      <use x="1429.65625" xlink:href="#DejaVuSans-108"/>
      <use x="1457.439453" xlink:href="#DejaVuSans-47"/>
      <use x="1491.130859" xlink:href="#DejaVuSans-103"/>
      <use x="1554.607422" xlink:href="#DejaVuSans-93"/>
     </g>
    </g>
   </g>
   <g id="matplotlib.axis_2">
    <g id="ytick_1">
     <g id="line2d_8">
      <defs>
       <path d="M 0 0 
L -3.5 0 
" id="m1f4b35fce3" style="stroke:#ffffff;stroke-width:0.8;"/>
      </defs>
      <g>
       <use style="fill:#ffffff;stroke:#ffffff;stroke-width:0.8;" x="53.328125" xlink:href="#m1f4b35fce3" y="224.64"/>
      </g>
     </g>
     <g id="text_9">
      <!-- 0 -->
      <g style="fill:#ffffff;" transform="translate(39.965625 228.439219)scale(0.1 -0.1)">
       <use xlink:href="#DejaVuSans-48"/>
      </g>
     </g>
    </g>
    <g id="ytick_2">
     <g id="line2d_9">
      <g>
       <use style="fill:#ffffff;stroke:#ffffff;stroke-width:0.8;" x="53.328125" xlink:href="#m1f4b35fce3" y="196.052795"/>
      </g>
     </g>
     <g id="text_10">
      <!-- 500 -->
      <g style="fill:#ffffff;" transform="translate(27.240625 199.852014)scale(0.1 -0.1)">
       <use xlink:href="#DejaVuSans-53"/>
       <use x="63.623047" xlink:href="#DejaVuSans-48"/>
       <use x="127.246094" xlink:href="#DejaVuSans-48"/>
      </g>
     </g>
    </g>
    <g id="ytick_3">
     <g id="line2d_10">
      <g>
       <use style="fill:#ffffff;stroke:#ffffff;stroke-width:0.8;" x="53.328125" xlink:href="#m1f4b35fce3" y="167.46559"/>
      </g>
     </g>
     <g id="text_11">
      <!-- 1000 -->
      <defs>
       <path d="M 12.40625 8.296875 
L 28.515625 8.296875 
L 28.515625 63.921875 
L 10.984375 60.40625 
L 10.984375 69.390625 
L 28.421875 72.90625 
L 38.28125 72.90625 
L 38.28125 8.296875 
L 54.390625 8.296875 
L 54.390625 0 
L 12.40625 0 
z
" id="DejaVuSans-49"/>
      </defs>
      <g style="fill:#ffffff;" transform="translate(20.878125 171.264808)scale(0.1 -0.1)">
       <use xlink:href="#DejaVuSans-49"/>
       <use x="63.623047" xlink:href="#DejaVuSans-48"/>
       <use x="127.246094" xlink:href="#DejaVuSans-48"/>
       <use x="190.869141" xlink:href="#DejaVuSans-48"/>
      </g>
     </g>
    </g>
    <g id="ytick_4">
     <g id="line2d_11">
      <g>
       <use style="fill:#ffffff;stroke:#ffffff;stroke-width:0.8;" x="53.328125" xlink:href="#m1f4b35fce3" y="138.878384"/>
      </g>
     </g>
     <g id="text_12">
      <!-- 1500 -->
      <g style="fill:#ffffff;" transform="translate(20.878125 142.677603)scale(0.1 -0.1)">
       <use xlink:href="#DejaVuSans-49"/>
       <use x="63.623047" xlink:href="#DejaVuSans-53"/>
       <use x="127.246094" xlink:href="#DejaVuSans-48"/>
       <use x="190.869141" xlink:href="#DejaVuSans-48"/>
      </g>
     </g>
    </g>
    <g id="ytick_5">
     <g id="line2d_12">
      <g>
       <use style="fill:#ffffff;stroke:#ffffff;stroke-width:0.8;" x="53.328125" xlink:href="#m1f4b35fce3" y="110.291179"/>
      </g>
     </g>
     <g id="text_13">
      <!-- 2000 -->
      <defs>
       <path d="M 19.1875 8.296875 
L 53.609375 8.296875 
L 53.609375 0 
L 7.328125 0 
L 7.328125 8.296875 
Q 12.9375 14.109375 22.625 23.890625 
Q 32.328125 33.6875 34.8125 36.53125 
Q 39.546875 41.84375 41.421875 45.53125 
Q 43.3125 49.21875 43.3125 52.78125 
Q 43.3125 58.59375 39.234375 62.25 
Q 35.15625 65.921875 28.609375 65.921875 
Q 23.96875 65.921875 18.8125 64.3125 
Q 13.671875 62.703125 7.8125 59.421875 
L 7.8125 69.390625 
Q 13.765625 71.78125 18.9375 73 
Q 24.125 74.21875 28.421875 74.21875 
Q 39.75 74.21875 46.484375 68.546875 
Q 53.21875 62.890625 53.21875 53.421875 
Q 53.21875 48.921875 51.53125 44.890625 
Q 49.859375 40.875 45.40625 35.40625 
Q 44.1875 33.984375 37.640625 27.21875 
Q 31.109375 20.453125 19.1875 8.296875 
z
" id="DejaVuSans-50"/>
      </defs>
      <g style="fill:#ffffff;" transform="translate(20.878125 114.090398)scale(0.1 -0.1)">
       <use xlink:href="#DejaVuSans-50"/>
       <use x="63.623047" xlink:href="#DejaVuSans-48"/>
       <use x="127.246094" xlink:href="#DejaVuSans-48"/>
       <use x="190.869141" xlink:href="#DejaVuSans-48"/>
      </g>
     </g>
    </g>
    <g id="ytick_6">
     <g id="line2d_13">
      <g>
       <use style="fill:#ffffff;stroke:#ffffff;stroke-width:0.8;" x="53.328125" xlink:href="#m1f4b35fce3" y="81.703974"/>
      </g>
     </g>
     <g id="text_14">
      <!-- 2500 -->
      <g style="fill:#ffffff;" transform="translate(20.878125 85.503193)scale(0.1 -0.1)">
       <use xlink:href="#DejaVuSans-50"/>
       <use x="63.623047" xlink:href="#DejaVuSans-53"/>
       <use x="127.246094" xlink:href="#DejaVuSans-48"/>
       <use x="190.869141" xlink:href="#DejaVuSans-48"/>
      </g>
     </g>
    </g>
    <g id="ytick_7">
     <g id="line2d_14">
      <g>
       <use style="fill:#ffffff;stroke:#ffffff;stroke-width:0.8;" x="53.328125" xlink:href="#m1f4b35fce3" y="53.116769"/>
      </g>
     </g>
     <g id="text_15">
      <!-- 3000 -->
      <defs>
       <path d="M 40.578125 39.3125 
Q 47.65625 37.796875 51.625 33 
Q 55.609375 28.21875 55.609375 21.1875 
Q 55.609375 10.40625 48.1875 4.484375 
Q 40.765625 -1.421875 27.09375 -1.421875 
Q 22.515625 -1.421875 17.65625 -0.515625 
Q 12.796875 0.390625 7.625 2.203125 
L 7.625 11.71875 
Q 11.71875 9.328125 16.59375 8.109375 
Q 21.484375 6.890625 26.8125 6.890625 
Q 36.078125 6.890625 40.9375 10.546875 
Q 45.796875 14.203125 45.796875 21.1875 
Q 45.796875 27.640625 41.28125 31.265625 
Q 36.765625 34.90625 28.71875 34.90625 
L 20.21875 34.90625 
L 20.21875 43.015625 
L 29.109375 43.015625 
Q 36.375 43.015625 40.234375 45.921875 
Q 44.09375 48.828125 44.09375 54.296875 
Q 44.09375 59.90625 40.109375 62.90625 
Q 36.140625 65.921875 28.71875 65.921875 
Q 24.65625 65.921875 20.015625 65.03125 
Q 15.375 64.15625 9.8125 62.3125 
L 9.8125 71.09375 
Q 15.4375 72.65625 20.34375 73.4375 
Q 25.25 74.21875 29.59375 74.21875 
Q 40.828125 74.21875 47.359375 69.109375 
Q 53.90625 64.015625 53.90625 55.328125 
Q 53.90625 49.265625 50.4375 45.09375 
Q 46.96875 40.921875 40.578125 39.3125 
z
" id="DejaVuSans-51"/>
      </defs>
      <g style="fill:#ffffff;" transform="translate(20.878125 56.915988)scale(0.1 -0.1)">
       <use xlink:href="#DejaVuSans-51"/>
       <use x="63.623047" xlink:href="#DejaVuSans-48"/>
       <use x="127.246094" xlink:href="#DejaVuSans-48"/>
       <use x="190.869141" xlink:href="#DejaVuSans-48"/>
      </g>
     </g>
    </g>
    <g id="ytick_8">
     <g id="line2d_15">
      <g>
       <use style="fill:#ffffff;stroke:#ffffff;stroke-width:0.8;" x="53.328125" xlink:href="#m1f4b35fce3" y="24.529564"/>
      </g>
     </g>
     <g id="text_16">
      <!-- 3500 -->
      <g style="fill:#ffffff;" transform="translate(20.878125 28.328783)scale(0.1 -0.1)">
       <use xlink:href="#DejaVuSans-51"/>
       <use x="63.623047" xlink:href="#DejaVuSans-53"/>
       <use x="127.246094" xlink:href="#DejaVuSans-48"/>
       <use x="190.869141" xlink:href="#DejaVuSans-48"/>
      </g>
     </g>
    </g>
    <g id="text_17">
     <!-- Frequenza -->
     <defs>
      <path d="M 9.8125 72.90625 
L 51.703125 72.90625 
L 51.703125 64.59375 
L 19.671875 64.59375 
L 19.671875 43.109375 
L 48.578125 43.109375 
L 48.578125 34.8125 
L 19.671875 34.8125 
L 19.671875 0 
L 9.8125 0 
z
" id="DejaVuSans-70"/>
      <path d="M 14.796875 27.296875 
Q 14.796875 17.390625 18.875 11.75 
Q 22.953125 6.109375 30.078125 6.109375 
Q 37.203125 6.109375 41.296875 11.75 
Q 45.40625 17.390625 45.40625 27.296875 
Q 45.40625 37.203125 41.296875 42.84375 
Q 37.203125 48.484375 30.078125 48.484375 
Q 22.953125 48.484375 18.875 42.84375 
Q 14.796875 37.203125 14.796875 27.296875 
z
M 45.40625 8.203125 
Q 42.578125 3.328125 38.25 0.953125 
Q 33.9375 -1.421875 27.875 -1.421875 
Q 17.96875 -1.421875 11.734375 6.484375 
Q 5.515625 14.40625 5.515625 27.296875 
Q 5.515625 40.1875 11.734375 48.09375 
Q 17.96875 56 27.875 56 
Q 33.9375 56 38.25 53.625 
Q 42.578125 51.265625 45.40625 46.390625 
L 45.40625 54.6875 
L 54.390625 54.6875 
L 54.390625 -20.796875 
L 45.40625 -20.796875 
z
" id="DejaVuSans-113"/>
      <path d="M 5.515625 54.6875 
L 48.1875 54.6875 
L 48.1875 46.484375 
L 14.40625 7.171875 
L 48.1875 7.171875 
L 48.1875 0 
L 4.296875 0 
L 4.296875 8.203125 
L 38.09375 47.515625 
L 5.515625 47.515625 
z
" id="DejaVuSans-122"/>
     </defs>
     <g style="fill:#ffffff;" transform="translate(14.798438 142.197344)rotate(-90)scale(0.1 -0.1)">
      <use xlink:href="#DejaVuSans-70"/>
      <use x="57.410156" xlink:href="#DejaVuSans-114"/>
      <use x="98.492188" xlink:href="#DejaVuSans-101"/>
      <use x="160.015625" xlink:href="#DejaVuSans-113"/>
      <use x="223.492188" xlink:href="#DejaVuSans-117"/>
      <use x="286.871094" xlink:href="#DejaVuSans-101"/>
      <use x="348.394531" xlink:href="#DejaVuSans-110"/>
      <use x="411.773438" xlink:href="#DejaVuSans-122"/>
      <use x="464.263672" xlink:href="#DejaVuSans-97"/>
     </g>
    </g>
   </g>
   <g id="patch_103">
    <path d="M 53.328125 224.64 
L 53.328125 7.2 
" style="fill:none;stroke:#ffffff;stroke-linecap:square;stroke-linejoin:miter;stroke-width:0.8;"/>
   </g>
   <g id="patch_104">
    <path d="M 388.128125 224.64 
L 388.128125 7.2 
" style="fill:none;stroke:#ffffff;stroke-linecap:square;stroke-linejoin:miter;stroke-width:0.8;"/>
   </g>
   <g id="patch_105">
    <path d="M 53.328125 224.64 
L 388.128125 224.64 
" style="fill:none;stroke:#ffffff;stroke-linecap:square;stroke-linejoin:miter;stroke-width:0.8;"/>
   </g>
   <g id="patch_106">
    <path d="M 53.328125 7.2 
L 388.128125 7.2 
" style="fill:none;stroke:#ffffff;stroke-linecap:square;stroke-linejoin:miter;stroke-width:0.8;"/>
   </g>
  </g>
 </g>
 <defs>
  <clipPath id="pf64231d4ba">
   <rect height="217.44" width="334.8" x="53.328125" y="7.2"/>
  </clipPath>
 </defs>
</svg>
