<?xml version="1.0" encoding="utf-8" standalone="no"?>
<!DOCTYPE svg PUBLIC "-//W3C//DTD SVG 1.1//EN"
  "http://www.w3.org/Graphics/SVG/1.1/DTD/svg11.dtd">
<!-- Created with matplotlib (https://matplotlib.org/) -->
<svg height="262.19625pt" version="1.1" viewBox="0 0 382.603125 262.19625" width="382.603125pt" xmlns="http://www.w3.org/2000/svg" xmlns:xlink="http://www.w3.org/1999/xlink">
 <defs>
  <style type="text/css">
*{stroke-linecap:butt;stroke-linejoin:round;}
  </style>
 </defs>
 <g id="figure_1">
  <g id="patch_1">
   <path d="M 0 262.19625 
L 382.603125 262.19625 
L 382.603125 0 
L 0 0 
z
"/>
  </g>
  <g id="axes_1">
   <g id="patch_2">
    <path d="M 40.603125 224.64 
L 375.403125 224.64 
L 375.403125 7.2 
L 40.603125 7.2 
z
"/>
   </g>
   <g id="matplotlib.axis_1">
    <g id="xtick_1">
     <g id="line2d_1">
      <defs>
       <path d="M 0 0 
L 0 3.5 
" id="m187e8cbb4c" style="stroke:#ffffff;stroke-width:0.8;"/>
      </defs>
      <g>
       <use style="fill:#ffffff;stroke:#ffffff;stroke-width:0.8;" x="55.821307" xlink:href="#m187e8cbb4c" y="224.64"/>
      </g>
     </g>
     <g id="text_1">
      <!-- 0 -->
      <defs>
       <path d="M 31.78125 66.40625 
Q 24.171875 66.40625 20.328125 58.90625 
Q 16.5 51.421875 16.5 36.375 
Q 16.5 21.390625 20.328125 13.890625 
Q 24.171875 6.390625 31.78125 6.390625 
Q 39.453125 6.390625 43.28125 13.890625 
Q 47.125 21.390625 47.125 36.375 
Q 47.125 51.421875 43.28125 58.90625 
Q 39.453125 66.40625 31.78125 66.40625 
z
M 31.78125 74.21875 
Q 44.046875 74.21875 50.515625 64.515625 
Q 56.984375 54.828125 56.984375 36.375 
Q 56.984375 17.96875 50.515625 8.265625 
Q 44.046875 -1.421875 31.78125 -1.421875 
Q 19.53125 -1.421875 13.0625 8.265625 
Q 6.59375 17.96875 6.59375 36.375 
Q 6.59375 54.828125 13.0625 64.515625 
Q 19.53125 74.21875 31.78125 74.21875 
z
" id="DejaVuSans-48"/>
      </defs>
      <g style="fill:#ffffff;" transform="translate(52.640057 239.238437)scale(0.1 -0.1)">
       <use xlink:href="#DejaVuSans-48"/>
      </g>
     </g>
    </g>
    <g id="xtick_2">
     <g id="line2d_2">
      <g>
       <use style="fill:#ffffff;stroke:#ffffff;stroke-width:0.8;" x="101.937009" xlink:href="#m187e8cbb4c" y="224.64"/>
      </g>
     </g>
     <g id="text_2">
      <!-- 10 -->
      <defs>
       <path d="M 12.40625 8.296875 
L 28.515625 8.296875 
L 28.515625 63.921875 
L 10.984375 60.40625 
L 10.984375 69.390625 
L 28.421875 72.90625 
L 38.28125 72.90625 
L 38.28125 8.296875 
L 54.390625 8.296875 
L 54.390625 0 
L 12.40625 0 
z
" id="DejaVuSans-49"/>
      </defs>
      <g style="fill:#ffffff;" transform="translate(95.574509 239.238437)scale(0.1 -0.1)">
       <use xlink:href="#DejaVuSans-49"/>
       <use x="63.623047" xlink:href="#DejaVuSans-48"/>
      </g>
     </g>
    </g>
    <g id="xtick_3">
     <g id="line2d_3">
      <g>
       <use style="fill:#ffffff;stroke:#ffffff;stroke-width:0.8;" x="148.052712" xlink:href="#m187e8cbb4c" y="224.64"/>
      </g>
     </g>
     <g id="text_3">
      <!-- 20 -->
      <defs>
       <path d="M 19.1875 8.296875 
L 53.609375 8.296875 
L 53.609375 0 
L 7.328125 0 
L 7.328125 8.296875 
Q 12.9375 14.109375 22.625 23.890625 
Q 32.328125 33.6875 34.8125 36.53125 
Q 39.546875 41.84375 41.421875 45.53125 
Q 43.3125 49.21875 43.3125 52.78125 
Q 43.3125 58.59375 39.234375 62.25 
Q 35.15625 65.921875 28.609375 65.921875 
Q 23.96875 65.921875 18.8125 64.3125 
Q 13.671875 62.703125 7.8125 59.421875 
L 7.8125 69.390625 
Q 13.765625 71.78125 18.9375 73 
Q 24.125 74.21875 28.421875 74.21875 
Q 39.75 74.21875 46.484375 68.546875 
Q 53.21875 62.890625 53.21875 53.421875 
Q 53.21875 48.921875 51.53125 44.890625 
Q 49.859375 40.875 45.40625 35.40625 
Q 44.1875 33.984375 37.640625 27.21875 
Q 31.109375 20.453125 19.1875 8.296875 
z
" id="DejaVuSans-50"/>
      </defs>
      <g style="fill:#ffffff;" transform="translate(141.690212 239.238437)scale(0.1 -0.1)">
       <use xlink:href="#DejaVuSans-50"/>
       <use x="63.623047" xlink:href="#DejaVuSans-48"/>
      </g>
     </g>
    </g>
    <g id="xtick_4">
     <g id="line2d_4">
      <g>
       <use style="fill:#ffffff;stroke:#ffffff;stroke-width:0.8;" x="194.168414" xlink:href="#m187e8cbb4c" y="224.64"/>
      </g>
     </g>
     <g id="text_4">
      <!-- 30 -->
      <defs>
       <path d="M 40.578125 39.3125 
Q 47.65625 37.796875 51.625 33 
Q 55.609375 28.21875 55.609375 21.1875 
Q 55.609375 10.40625 48.1875 4.484375 
Q 40.765625 -1.421875 27.09375 -1.421875 
Q 22.515625 -1.421875 17.65625 -0.515625 
Q 12.796875 0.390625 7.625 2.203125 
L 7.625 11.71875 
Q 11.71875 9.328125 16.59375 8.109375 
Q 21.484375 6.890625 26.8125 6.890625 
Q 36.078125 6.890625 40.9375 10.546875 
Q 45.796875 14.203125 45.796875 21.1875 
Q 45.796875 27.640625 41.28125 31.265625 
Q 36.765625 34.90625 28.71875 34.90625 
L 20.21875 34.90625 
L 20.21875 43.015625 
L 29.109375 43.015625 
Q 36.375 43.015625 40.234375 45.921875 
Q 44.09375 48.828125 44.09375 54.296875 
Q 44.09375 59.90625 40.109375 62.90625 
Q 36.140625 65.921875 28.71875 65.921875 
Q 24.65625 65.921875 20.015625 65.03125 
Q 15.375 64.15625 9.8125 62.3125 
L 9.8125 71.09375 
Q 15.4375 72.65625 20.34375 73.4375 
Q 25.25 74.21875 29.59375 74.21875 
Q 40.828125 74.21875 47.359375 69.109375 
Q 53.90625 64.015625 53.90625 55.328125 
Q 53.90625 49.265625 50.4375 45.09375 
Q 46.96875 40.921875 40.578125 39.3125 
z
" id="DejaVuSans-51"/>
      </defs>
      <g style="fill:#ffffff;" transform="translate(187.805914 239.238437)scale(0.1 -0.1)">
       <use xlink:href="#DejaVuSans-51"/>
       <use x="63.623047" xlink:href="#DejaVuSans-48"/>
      </g>
     </g>
    </g>
    <g id="xtick_5">
     <g id="line2d_5">
      <g>
       <use style="fill:#ffffff;stroke:#ffffff;stroke-width:0.8;" x="240.284117" xlink:href="#m187e8cbb4c" y="224.64"/>
      </g>
     </g>
     <g id="text_5">
      <!-- 40 -->
      <defs>
       <path d="M 37.796875 64.3125 
L 12.890625 25.390625 
L 37.796875 25.390625 
z
M 35.203125 72.90625 
L 47.609375 72.90625 
L 47.609375 25.390625 
L 58.015625 25.390625 
L 58.015625 17.1875 
L 47.609375 17.1875 
L 47.609375 0 
L 37.796875 0 
L 37.796875 17.1875 
L 4.890625 17.1875 
L 4.890625 26.703125 
z
" id="DejaVuSans-52"/>
      </defs>
      <g style="fill:#ffffff;" transform="translate(233.921617 239.238437)scale(0.1 -0.1)">
       <use xlink:href="#DejaVuSans-52"/>
       <use x="63.623047" xlink:href="#DejaVuSans-48"/>
      </g>
     </g>
    </g>
    <g id="xtick_6">
     <g id="line2d_6">
      <g>
       <use style="fill:#ffffff;stroke:#ffffff;stroke-width:0.8;" x="286.399819" xlink:href="#m187e8cbb4c" y="224.64"/>
      </g>
     </g>
     <g id="text_6">
      <!-- 50 -->
      <defs>
       <path d="M 10.796875 72.90625 
L 49.515625 72.90625 
L 49.515625 64.59375 
L 19.828125 64.59375 
L 19.828125 46.734375 
Q 21.96875 47.46875 24.109375 47.828125 
Q 26.265625 48.1875 28.421875 48.1875 
Q 40.625 48.1875 47.75 41.5 
Q 54.890625 34.8125 54.890625 23.390625 
Q 54.890625 11.625 47.5625 5.09375 
Q 40.234375 -1.421875 26.90625 -1.421875 
Q 22.3125 -1.421875 17.546875 -0.640625 
Q 12.796875 0.140625 7.71875 1.703125 
L 7.71875 11.625 
Q 12.109375 9.234375 16.796875 8.0625 
Q 21.484375 6.890625 26.703125 6.890625 
Q 35.15625 6.890625 40.078125 11.328125 
Q 45.015625 15.765625 45.015625 23.390625 
Q 45.015625 31 40.078125 35.4375 
Q 35.15625 39.890625 26.703125 39.890625 
Q 22.75 39.890625 18.8125 39.015625 
Q 14.890625 38.140625 10.796875 36.28125 
z
" id="DejaVuSans-53"/>
      </defs>
      <g style="fill:#ffffff;" transform="translate(280.037319 239.238437)scale(0.1 -0.1)">
       <use xlink:href="#DejaVuSans-53"/>
       <use x="63.623047" xlink:href="#DejaVuSans-48"/>
      </g>
     </g>
    </g>
    <g id="xtick_7">
     <g id="line2d_7">
      <g>
       <use style="fill:#ffffff;stroke:#ffffff;stroke-width:0.8;" x="332.515522" xlink:href="#m187e8cbb4c" y="224.64"/>
      </g>
     </g>
     <g id="text_7">
      <!-- 60 -->
      <defs>
       <path d="M 33.015625 40.375 
Q 26.375 40.375 22.484375 35.828125 
Q 18.609375 31.296875 18.609375 23.390625 
Q 18.609375 15.53125 22.484375 10.953125 
Q 26.375 6.390625 33.015625 6.390625 
Q 39.65625 6.390625 43.53125 10.953125 
Q 47.40625 15.53125 47.40625 23.390625 
Q 47.40625 31.296875 43.53125 35.828125 
Q 39.65625 40.375 33.015625 40.375 
z
M 52.59375 71.296875 
L 52.59375 62.3125 
Q 48.875 64.0625 45.09375 64.984375 
Q 41.3125 65.921875 37.59375 65.921875 
Q 27.828125 65.921875 22.671875 59.328125 
Q 17.53125 52.734375 16.796875 39.40625 
Q 19.671875 43.65625 24.015625 45.921875 
Q 28.375 48.1875 33.59375 48.1875 
Q 44.578125 48.1875 50.953125 41.515625 
Q 57.328125 34.859375 57.328125 23.390625 
Q 57.328125 12.15625 50.6875 5.359375 
Q 44.046875 -1.421875 33.015625 -1.421875 
Q 20.359375 -1.421875 13.671875 8.265625 
Q 6.984375 17.96875 6.984375 36.375 
Q 6.984375 53.65625 15.1875 63.9375 
Q 23.390625 74.21875 37.203125 74.21875 
Q 40.921875 74.21875 44.703125 73.484375 
Q 48.484375 72.75 52.59375 71.296875 
z
" id="DejaVuSans-54"/>
      </defs>
      <g style="fill:#ffffff;" transform="translate(326.153022 239.238437)scale(0.1 -0.1)">
       <use xlink:href="#DejaVuSans-54"/>
       <use x="63.623047" xlink:href="#DejaVuSans-48"/>
      </g>
     </g>
    </g>
    <g id="text_8">
     <!-- t (s) -->
     <defs>
      <path d="M 18.3125 70.21875 
L 18.3125 54.6875 
L 36.8125 54.6875 
L 36.8125 47.703125 
L 18.3125 47.703125 
L 18.3125 18.015625 
Q 18.3125 11.328125 20.140625 9.421875 
Q 21.96875 7.515625 27.59375 7.515625 
L 36.8125 7.515625 
L 36.8125 0 
L 27.59375 0 
Q 17.1875 0 13.234375 3.875 
Q 9.28125 7.765625 9.28125 18.015625 
L 9.28125 47.703125 
L 2.6875 47.703125 
L 2.6875 54.6875 
L 9.28125 54.6875 
L 9.28125 70.21875 
z
" id="DejaVuSans-116"/>
      <path id="DejaVuSans-32"/>
      <path d="M 31 75.875 
Q 24.46875 64.65625 21.28125 53.65625 
Q 18.109375 42.671875 18.109375 31.390625 
Q 18.109375 20.125 21.3125 9.0625 
Q 24.515625 -2 31 -13.1875 
L 23.1875 -13.1875 
Q 15.875 -1.703125 12.234375 9.375 
Q 8.59375 20.453125 8.59375 31.390625 
Q 8.59375 42.28125 12.203125 53.3125 
Q 15.828125 64.359375 23.1875 75.875 
z
" id="DejaVuSans-40"/>
      <path d="M 44.28125 53.078125 
L 44.28125 44.578125 
Q 40.484375 46.53125 36.375 47.5 
Q 32.28125 48.484375 27.875 48.484375 
Q 21.1875 48.484375 17.84375 46.4375 
Q 14.5 44.390625 14.5 40.28125 
Q 14.5 37.15625 16.890625 35.375 
Q 19.28125 33.59375 26.515625 31.984375 
L 29.59375 31.296875 
Q 39.15625 29.25 43.1875 25.515625 
Q 47.21875 21.78125 47.21875 15.09375 
Q 47.21875 7.46875 41.1875 3.015625 
Q 35.15625 -1.421875 24.609375 -1.421875 
Q 20.21875 -1.421875 15.453125 -0.5625 
Q 10.6875 0.296875 5.421875 2 
L 5.421875 11.28125 
Q 10.40625 8.6875 15.234375 7.390625 
Q 20.0625 6.109375 24.8125 6.109375 
Q 31.15625 6.109375 34.5625 8.28125 
Q 37.984375 10.453125 37.984375 14.40625 
Q 37.984375 18.0625 35.515625 20.015625 
Q 33.0625 21.96875 24.703125 23.78125 
L 21.578125 24.515625 
Q 13.234375 26.265625 9.515625 29.90625 
Q 5.8125 33.546875 5.8125 39.890625 
Q 5.8125 47.609375 11.28125 51.796875 
Q 16.75 56 26.8125 56 
Q 31.78125 56 36.171875 55.265625 
Q 40.578125 54.546875 44.28125 53.078125 
z
" id="DejaVuSans-115"/>
      <path d="M 8.015625 75.875 
L 15.828125 75.875 
Q 23.140625 64.359375 26.78125 53.3125 
Q 30.421875 42.28125 30.421875 31.390625 
Q 30.421875 20.453125 26.78125 9.375 
Q 23.140625 -1.703125 15.828125 -13.1875 
L 8.015625 -13.1875 
Q 14.5 -2 17.703125 9.0625 
Q 20.90625 20.125 20.90625 31.390625 
Q 20.90625 42.671875 17.703125 53.65625 
Q 14.5 64.65625 8.015625 75.875 
z
" id="DejaVuSans-41"/>
     </defs>
     <g style="fill:#ffffff;" transform="translate(197.947656 252.916562)scale(0.1 -0.1)">
      <use xlink:href="#DejaVuSans-116"/>
      <use x="39.208984" xlink:href="#DejaVuSans-32"/>
      <use x="70.996094" xlink:href="#DejaVuSans-40"/>
      <use x="110.009766" xlink:href="#DejaVuSans-115"/>
      <use x="162.109375" xlink:href="#DejaVuSans-41"/>
     </g>
    </g>
   </g>
   <g id="matplotlib.axis_2">
    <g id="ytick_1">
     <g id="line2d_8">
      <defs>
       <path d="M 0 0 
L -3.5 0 
" id="m0eca4aaa95" style="stroke:#ffffff;stroke-width:0.8;"/>
      </defs>
      <g>
       <use style="fill:#ffffff;stroke:#ffffff;stroke-width:0.8;" x="40.603125" xlink:href="#m0eca4aaa95" y="201.175795"/>
      </g>
     </g>
     <g id="text_9">
      <!-- 30 -->
      <g style="fill:#ffffff;" transform="translate(20.878125 204.975013)scale(0.1 -0.1)">
       <use xlink:href="#DejaVuSans-51"/>
       <use x="63.623047" xlink:href="#DejaVuSans-48"/>
      </g>
     </g>
    </g>
    <g id="ytick_2">
     <g id="line2d_9">
      <g>
       <use style="fill:#ffffff;stroke:#ffffff;stroke-width:0.8;" x="40.603125" xlink:href="#m0eca4aaa95" y="163.451992"/>
      </g>
     </g>
     <g id="text_10">
      <!-- 35 -->
      <g style="fill:#ffffff;" transform="translate(20.878125 167.25121)scale(0.1 -0.1)">
       <use xlink:href="#DejaVuSans-51"/>
       <use x="63.623047" xlink:href="#DejaVuSans-53"/>
      </g>
     </g>
    </g>
    <g id="ytick_3">
     <g id="line2d_10">
      <g>
       <use style="fill:#ffffff;stroke:#ffffff;stroke-width:0.8;" x="40.603125" xlink:href="#m0eca4aaa95" y="125.728189"/>
      </g>
     </g>
     <g id="text_11">
      <!-- 40 -->
      <g style="fill:#ffffff;" transform="translate(20.878125 129.527408)scale(0.1 -0.1)">
       <use xlink:href="#DejaVuSans-52"/>
       <use x="63.623047" xlink:href="#DejaVuSans-48"/>
      </g>
     </g>
    </g>
    <g id="ytick_4">
     <g id="line2d_11">
      <g>
       <use style="fill:#ffffff;stroke:#ffffff;stroke-width:0.8;" x="40.603125" xlink:href="#m0eca4aaa95" y="88.004386"/>
      </g>
     </g>
     <g id="text_12">
      <!-- 45 -->
      <g style="fill:#ffffff;" transform="translate(20.878125 91.803605)scale(0.1 -0.1)">
       <use xlink:href="#DejaVuSans-52"/>
       <use x="63.623047" xlink:href="#DejaVuSans-53"/>
      </g>
     </g>
    </g>
    <g id="ytick_5">
     <g id="line2d_12">
      <g>
       <use style="fill:#ffffff;stroke:#ffffff;stroke-width:0.8;" x="40.603125" xlink:href="#m0eca4aaa95" y="50.280583"/>
      </g>
     </g>
     <g id="text_13">
      <!-- 50 -->
      <g style="fill:#ffffff;" transform="translate(20.878125 54.079802)scale(0.1 -0.1)">
       <use xlink:href="#DejaVuSans-53"/>
       <use x="63.623047" xlink:href="#DejaVuSans-48"/>
      </g>
     </g>
    </g>
    <g id="ytick_6">
     <g id="line2d_13">
      <g>
       <use style="fill:#ffffff;stroke:#ffffff;stroke-width:0.8;" x="40.603125" xlink:href="#m0eca4aaa95" y="12.55678"/>
      </g>
     </g>
     <g id="text_14">
      <!-- 55 -->
      <g style="fill:#ffffff;" transform="translate(20.878125 16.355999)scale(0.1 -0.1)">
       <use xlink:href="#DejaVuSans-53"/>
       <use x="63.623047" xlink:href="#DejaVuSans-53"/>
      </g>
     </g>
    </g>
    <g id="text_15">
     <!-- T ($^\circ$C) -->
     <defs>
      <path d="M -0.296875 72.90625 
L 61.375 72.90625 
L 61.375 64.59375 
L 35.5 64.59375 
L 35.5 0 
L 25.59375 0 
L 25.59375 64.59375 
L -0.296875 64.59375 
z
" id="DejaVuSans-84"/>
      <path d="M 31.296875 40.671875 
Q 27.390625 40.671875 24.703125 37.953125 
Q 22.015625 35.25 22.015625 31.34375 
Q 22.015625 27.484375 24.703125 24.828125 
Q 27.390625 22.171875 31.296875 22.171875 
Q 35.203125 22.171875 37.890625 24.828125 
Q 40.578125 27.484375 40.578125 31.34375 
Q 40.578125 35.203125 37.859375 37.9375 
Q 35.15625 40.671875 31.296875 40.671875 
z
M 31.296875 46.96875 
Q 34.421875 46.96875 37.296875 45.765625 
Q 40.1875 44.578125 42.28125 42.328125 
Q 44.53125 40.140625 45.65625 37.34375 
Q 46.78125 34.5625 46.78125 31.34375 
Q 46.78125 24.90625 42.265625 20.4375 
Q 37.75 15.96875 31.203125 15.96875 
Q 24.609375 15.96875 20.21875 20.359375 
Q 15.828125 24.75 15.828125 31.34375 
Q 15.828125 37.890625 20.3125 42.421875 
Q 24.8125 46.96875 31.296875 46.96875 
z
" id="DejaVuSans-8728"/>
      <path d="M 64.40625 67.28125 
L 64.40625 56.890625 
Q 59.421875 61.53125 53.78125 63.8125 
Q 48.140625 66.109375 41.796875 66.109375 
Q 29.296875 66.109375 22.65625 58.46875 
Q 16.015625 50.828125 16.015625 36.375 
Q 16.015625 21.96875 22.65625 14.328125 
Q 29.296875 6.6875 41.796875 6.6875 
Q 48.140625 6.6875 53.78125 8.984375 
Q 59.421875 11.28125 64.40625 15.921875 
L 64.40625 5.609375 
Q 59.234375 2.09375 53.4375 0.328125 
Q 47.65625 -1.421875 41.21875 -1.421875 
Q 24.65625 -1.421875 15.125 8.703125 
Q 5.609375 18.84375 5.609375 36.375 
Q 5.609375 53.953125 15.125 64.078125 
Q 24.65625 74.21875 41.21875 74.21875 
Q 47.75 74.21875 53.53125 72.484375 
Q 59.328125 70.75 64.40625 67.28125 
z
" id="DejaVuSans-67"/>
     </defs>
     <g style="fill:#ffffff;" transform="translate(14.798438 131.72)rotate(-90)scale(0.1 -0.1)">
      <use transform="translate(0 0.125)" xlink:href="#DejaVuSans-84"/>
      <use transform="translate(61.083984 0.125)" xlink:href="#DejaVuSans-32"/>
      <use transform="translate(92.871094 0.125)" xlink:href="#DejaVuSans-40"/>
      <use transform="translate(146.479492 38.40625)scale(0.7)" xlink:href="#DejaVuSans-8728"/>
      <use transform="translate(206.669922 0.125)" xlink:href="#DejaVuSans-67"/>
      <use transform="translate(276.494141 0.125)" xlink:href="#DejaVuSans-41"/>
     </g>
    </g>
   </g>
   <g id="line2d_14">
    <defs>
     <path d="M 0 3 
C 0.795609 3 1.55874 2.683901 2.12132 2.12132 
C 2.683901 1.55874 3 0.795609 3 0 
C 3 -0.795609 2.683901 -1.55874 2.12132 -2.12132 
C 1.55874 -2.683901 0.795609 -3 0 -3 
C -0.795609 -3 -1.55874 -2.683901 -2.12132 -2.12132 
C -2.683901 -1.55874 -3 -0.795609 -3 0 
C -3 0.795609 -2.683901 1.55874 -2.12132 2.12132 
C -1.55874 2.683901 -0.795609 3 0 3 
z
" id="m6d912b2f52" style="stroke:#8dd3c7;"/>
    </defs>
    <g clip-path="url(#pdd8eaf8538)">
     <use style="fill:#8dd3c7;stroke:#8dd3c7;" x="55.821307" xlink:href="#m6d912b2f52" y="214.756364"/>
     <use style="fill:#8dd3c7;stroke:#8dd3c7;" x="60.432877" xlink:href="#m6d912b2f52" y="195.894462"/>
     <use style="fill:#8dd3c7;stroke:#8dd3c7;" x="65.044447" xlink:href="#m6d912b2f52" y="179.295989"/>
     <use style="fill:#8dd3c7;stroke:#8dd3c7;" x="69.656018" xlink:href="#m6d912b2f52" y="161.94304"/>
     <use style="fill:#8dd3c7;stroke:#8dd3c7;" x="74.267588" xlink:href="#m6d912b2f52" y="143.835614"/>
     <use style="fill:#8dd3c7;stroke:#8dd3c7;" x="78.879158" xlink:href="#m6d912b2f52" y="131.763997"/>
     <use style="fill:#8dd3c7;stroke:#8dd3c7;" x="83.490728" xlink:href="#m6d912b2f52" y="121.201332"/>
     <use style="fill:#8dd3c7;stroke:#8dd3c7;" x="88.102299" xlink:href="#m6d912b2f52" y="112.14762"/>
     <use style="fill:#8dd3c7;stroke:#8dd3c7;" x="92.713869" xlink:href="#m6d912b2f52" y="103.093907"/>
     <use style="fill:#8dd3c7;stroke:#8dd3c7;" x="97.325439" xlink:href="#m6d912b2f52" y="95.549146"/>
     <use style="fill:#8dd3c7;stroke:#8dd3c7;" x="101.937009" xlink:href="#m6d912b2f52" y="88.004386"/>
     <use style="fill:#8dd3c7;stroke:#8dd3c7;" x="106.54858" xlink:href="#m6d912b2f52" y="80.459625"/>
     <use style="fill:#8dd3c7;stroke:#8dd3c7;" x="111.16015" xlink:href="#m6d912b2f52" y="75.932769"/>
     <use style="fill:#8dd3c7;stroke:#8dd3c7;" x="115.77172" xlink:href="#m6d912b2f52" y="69.89696"/>
     <use style="fill:#8dd3c7;stroke:#8dd3c7;" x="120.38329" xlink:href="#m6d912b2f52" y="65.370104"/>
     <use style="fill:#8dd3c7;stroke:#8dd3c7;" x="124.994861" xlink:href="#m6d912b2f52" y="60.843248"/>
     <use style="fill:#8dd3c7;stroke:#8dd3c7;" x="129.606431" xlink:href="#m6d912b2f52" y="56.316391"/>
     <use style="fill:#8dd3c7;stroke:#8dd3c7;" x="134.218001" xlink:href="#m6d912b2f52" y="53.298487"/>
     <use style="fill:#8dd3c7;stroke:#8dd3c7;" x="138.829571" xlink:href="#m6d912b2f52" y="50.280583"/>
     <use style="fill:#8dd3c7;stroke:#8dd3c7;" x="143.441142" xlink:href="#m6d912b2f52" y="47.262679"/>
     <use style="fill:#8dd3c7;stroke:#8dd3c7;" x="148.052712" xlink:href="#m6d912b2f52" y="45.753727"/>
     <use style="fill:#8dd3c7;stroke:#8dd3c7;" x="152.664282" xlink:href="#m6d912b2f52" y="42.735822"/>
     <use style="fill:#8dd3c7;stroke:#8dd3c7;" x="157.275852" xlink:href="#m6d912b2f52" y="41.22687"/>
     <use style="fill:#8dd3c7;stroke:#8dd3c7;" x="161.887423" xlink:href="#m6d912b2f52" y="38.208966"/>
     <use style="fill:#8dd3c7;stroke:#8dd3c7;" x="166.498993" xlink:href="#m6d912b2f52" y="36.700014"/>
     <use style="fill:#8dd3c7;stroke:#8dd3c7;" x="171.110563" xlink:href="#m6d912b2f52" y="35.191062"/>
     <use style="fill:#8dd3c7;stroke:#8dd3c7;" x="175.722133" xlink:href="#m6d912b2f52" y="35.191062"/>
     <use style="fill:#8dd3c7;stroke:#8dd3c7;" x="180.333704" xlink:href="#m6d912b2f52" y="33.68211"/>
     <use style="fill:#8dd3c7;stroke:#8dd3c7;" x="184.945274" xlink:href="#m6d912b2f52" y="32.173158"/>
     <use style="fill:#8dd3c7;stroke:#8dd3c7;" x="189.556844" xlink:href="#m6d912b2f52" y="30.664205"/>
     <use style="fill:#8dd3c7;stroke:#8dd3c7;" x="194.168414" xlink:href="#m6d912b2f52" y="29.155253"/>
     <use style="fill:#8dd3c7;stroke:#8dd3c7;" x="198.779985" xlink:href="#m6d912b2f52" y="29.155253"/>
     <use style="fill:#8dd3c7;stroke:#8dd3c7;" x="203.391555" xlink:href="#m6d912b2f52" y="27.646301"/>
     <use style="fill:#8dd3c7;stroke:#8dd3c7;" x="208.003125" xlink:href="#m6d912b2f52" y="27.646301"/>
     <use style="fill:#8dd3c7;stroke:#8dd3c7;" x="212.614695" xlink:href="#m6d912b2f52" y="26.137349"/>
     <use style="fill:#8dd3c7;stroke:#8dd3c7;" x="217.226265" xlink:href="#m6d912b2f52" y="26.137349"/>
     <use style="fill:#8dd3c7;stroke:#8dd3c7;" x="221.837836" xlink:href="#m6d912b2f52" y="24.628397"/>
     <use style="fill:#8dd3c7;stroke:#8dd3c7;" x="226.449406" xlink:href="#m6d912b2f52" y="24.628397"/>
     <use style="fill:#8dd3c7;stroke:#8dd3c7;" x="231.060976" xlink:href="#m6d912b2f52" y="24.628397"/>
     <use style="fill:#8dd3c7;stroke:#8dd3c7;" x="235.672546" xlink:href="#m6d912b2f52" y="23.119445"/>
     <use style="fill:#8dd3c7;stroke:#8dd3c7;" x="240.284117" xlink:href="#m6d912b2f52" y="23.119445"/>
     <use style="fill:#8dd3c7;stroke:#8dd3c7;" x="244.895687" xlink:href="#m6d912b2f52" y="23.119445"/>
     <use style="fill:#8dd3c7;stroke:#8dd3c7;" x="249.507257" xlink:href="#m6d912b2f52" y="23.119445"/>
     <use style="fill:#8dd3c7;stroke:#8dd3c7;" x="254.118827" xlink:href="#m6d912b2f52" y="21.610493"/>
     <use style="fill:#8dd3c7;stroke:#8dd3c7;" x="258.730398" xlink:href="#m6d912b2f52" y="21.610493"/>
     <use style="fill:#8dd3c7;stroke:#8dd3c7;" x="263.341968" xlink:href="#m6d912b2f52" y="21.610493"/>
     <use style="fill:#8dd3c7;stroke:#8dd3c7;" x="267.953538" xlink:href="#m6d912b2f52" y="21.610493"/>
     <use style="fill:#8dd3c7;stroke:#8dd3c7;" x="272.565108" xlink:href="#m6d912b2f52" y="21.610493"/>
     <use style="fill:#8dd3c7;stroke:#8dd3c7;" x="277.176679" xlink:href="#m6d912b2f52" y="20.101541"/>
     <use style="fill:#8dd3c7;stroke:#8dd3c7;" x="281.788249" xlink:href="#m6d912b2f52" y="20.101541"/>
     <use style="fill:#8dd3c7;stroke:#8dd3c7;" x="286.399819" xlink:href="#m6d912b2f52" y="20.101541"/>
     <use style="fill:#8dd3c7;stroke:#8dd3c7;" x="291.011389" xlink:href="#m6d912b2f52" y="20.101541"/>
     <use style="fill:#8dd3c7;stroke:#8dd3c7;" x="295.62296" xlink:href="#m6d912b2f52" y="20.101541"/>
     <use style="fill:#8dd3c7;stroke:#8dd3c7;" x="300.23453" xlink:href="#m6d912b2f52" y="20.101541"/>
     <use style="fill:#8dd3c7;stroke:#8dd3c7;" x="304.8461" xlink:href="#m6d912b2f52" y="20.101541"/>
     <use style="fill:#8dd3c7;stroke:#8dd3c7;" x="309.45767" xlink:href="#m6d912b2f52" y="20.101541"/>
     <use style="fill:#8dd3c7;stroke:#8dd3c7;" x="314.069241" xlink:href="#m6d912b2f52" y="20.101541"/>
     <use style="fill:#8dd3c7;stroke:#8dd3c7;" x="318.680811" xlink:href="#m6d912b2f52" y="18.592588"/>
     <use style="fill:#8dd3c7;stroke:#8dd3c7;" x="323.292381" xlink:href="#m6d912b2f52" y="18.592588"/>
     <use style="fill:#8dd3c7;stroke:#8dd3c7;" x="327.903951" xlink:href="#m6d912b2f52" y="18.592588"/>
     <use style="fill:#8dd3c7;stroke:#8dd3c7;" x="332.515522" xlink:href="#m6d912b2f52" y="18.592588"/>
     <use style="fill:#8dd3c7;stroke:#8dd3c7;" x="337.127092" xlink:href="#m6d912b2f52" y="18.592588"/>
     <use style="fill:#8dd3c7;stroke:#8dd3c7;" x="341.738662" xlink:href="#m6d912b2f52" y="18.592588"/>
     <use style="fill:#8dd3c7;stroke:#8dd3c7;" x="346.350232" xlink:href="#m6d912b2f52" y="18.592588"/>
     <use style="fill:#8dd3c7;stroke:#8dd3c7;" x="350.961803" xlink:href="#m6d912b2f52" y="18.592588"/>
     <use style="fill:#8dd3c7;stroke:#8dd3c7;" x="355.573373" xlink:href="#m6d912b2f52" y="18.592588"/>
     <use style="fill:#8dd3c7;stroke:#8dd3c7;" x="360.184943" xlink:href="#m6d912b2f52" y="17.083636"/>
    </g>
   </g>
   <g id="line2d_15">
    <path clip-path="url(#pdd8eaf8538)" d="M 55.821307 212.807644 
L 60.432877 193.883868 
L 65.044447 176.813681 
L 69.656018 161.415525 
L 74.267588 147.525623 
L 78.879158 134.996242 
L 83.490728 123.694118 
L 88.102299 113.499041 
L 92.713869 104.302575 
L 97.325439 96.006905 
L 101.937009 88.5238 
L 106.54858 81.773667 
L 111.16015 75.684711 
L 115.77172 70.192171 
L 120.38329 65.237627 
L 124.994861 60.768383 
L 129.606431 56.736902 
L 134.218001 53.100306 
L 138.829571 49.819916 
L 143.441142 46.860841 
L 148.052712 44.191609 
L 152.664282 41.783828 
L 157.275852 39.611891 
L 161.887423 37.652696 
L 166.498993 35.885404 
L 171.110563 34.291219 
L 175.722133 32.853185 
L 180.333704 31.556007 
L 184.945274 30.385889 
L 189.556844 29.330383 
L 194.168414 28.378265 
L 198.779985 27.519407 
L 203.391555 26.744674 
L 208.003125 26.045827 
L 212.614695 25.415432 
L 217.226265 24.846784 
L 221.837836 24.333836 
L 226.449406 23.871131 
L 231.060976 23.453749 
L 235.672546 23.077249 
L 240.284117 22.737627 
L 244.895687 22.431271 
L 249.507257 22.154923 
L 254.118827 21.905644 
L 258.730398 21.680781 
L 263.341968 21.477944 
L 267.953538 21.294974 
L 272.565108 21.129927 
L 277.176679 20.981046 
L 281.788249 20.846748 
L 286.399819 20.725605 
L 291.011389 20.616327 
L 295.62296 20.517754 
L 300.23453 20.428835 
L 304.8461 20.348627 
L 309.45767 20.276274 
L 314.069241 20.211009 
L 318.680811 20.152136 
L 323.292381 20.09903 
L 327.903951 20.051126 
L 332.515522 20.007914 
L 337.127092 19.968935 
L 341.738662 19.933773 
L 346.350232 19.902056 
L 350.961803 19.873446 
L 355.573373 19.847637 
L 360.184943 19.824357 
" style="fill:none;stroke:#feffb3;stroke-linecap:square;stroke-width:1.5;"/>
   </g>
   <g id="patch_3">
    <path d="M 40.603125 224.64 
L 40.603125 7.2 
" style="fill:none;stroke:#ffffff;stroke-linecap:square;stroke-linejoin:miter;stroke-width:0.8;"/>
   </g>
   <g id="patch_4">
    <path d="M 375.403125 224.64 
L 375.403125 7.2 
" style="fill:none;stroke:#ffffff;stroke-linecap:square;stroke-linejoin:miter;stroke-width:0.8;"/>
   </g>
   <g id="patch_5">
    <path d="M 40.603125 224.64 
L 375.403125 224.64 
" style="fill:none;stroke:#ffffff;stroke-linecap:square;stroke-linejoin:miter;stroke-width:0.8;"/>
   </g>
   <g id="patch_6">
    <path d="M 40.603125 7.2 
L 375.403125 7.2 
" style="fill:none;stroke:#ffffff;stroke-linecap:square;stroke-linejoin:miter;stroke-width:0.8;"/>
   </g>
  </g>
 </g>
 <defs>
  <clipPath id="pdd8eaf8538">
   <rect height="217.44" width="334.8" x="40.603125" y="7.2"/>
  </clipPath>
 </defs>
</svg>
