<?xml version="1.0" encoding="utf-8" standalone="no"?>
<!DOCTYPE svg PUBLIC "-//W3C//DTD SVG 1.1//EN"
  "http://www.w3.org/Graphics/SVG/1.1/DTD/svg11.dtd">
<!-- Created with matplotlib (https://matplotlib.org/) -->
<svg height="262.19625pt" version="1.1" viewBox="0 0 392.14375 262.19625" width="392.14375pt" xmlns="http://www.w3.org/2000/svg" xmlns:xlink="http://www.w3.org/1999/xlink">
 <defs>
  <style type="text/css">
*{stroke-linecap:butt;stroke-linejoin:round;}
  </style>
 </defs>
 <g id="figure_1">
  <g id="patch_1">
   <path d="M 0 262.19625 
L 392.14375 262.19625 
L 392.14375 0 
L 0 0 
z
"/>
  </g>
  <g id="axes_1">
   <g id="patch_2">
    <path d="M 50.14375 224.64 
L 384.94375 224.64 
L 384.94375 7.2 
L 50.14375 7.2 
z
"/>
   </g>
   <g id="matplotlib.axis_1">
    <g id="xtick_1">
     <g id="line2d_1">
      <defs>
       <path d="M 0 0 
L 0 3.5 
" id="m0f53e04d5d" style="stroke:#ffffff;stroke-width:0.8;"/>
      </defs>
      <g>
       <use style="fill:#ffffff;stroke:#ffffff;stroke-width:0.8;" x="53.187386" xlink:href="#m0f53e04d5d" y="224.64"/>
      </g>
     </g>
     <g id="text_1">
      <!-- 0 -->
      <defs>
       <path d="M 31.78125 66.40625 
Q 24.171875 66.40625 20.328125 58.90625 
Q 16.5 51.421875 16.5 36.375 
Q 16.5 21.390625 20.328125 13.890625 
Q 24.171875 6.390625 31.78125 6.390625 
Q 39.453125 6.390625 43.28125 13.890625 
Q 47.125 21.390625 47.125 36.375 
Q 47.125 51.421875 43.28125 58.90625 
Q 39.453125 66.40625 31.78125 66.40625 
z
M 31.78125 74.21875 
Q 44.046875 74.21875 50.515625 64.515625 
Q 56.984375 54.828125 56.984375 36.375 
Q 56.984375 17.96875 50.515625 8.265625 
Q 44.046875 -1.421875 31.78125 -1.421875 
Q 19.53125 -1.421875 13.0625 8.265625 
Q 6.59375 17.96875 6.59375 36.375 
Q 6.59375 54.828125 13.0625 64.515625 
Q 19.53125 74.21875 31.78125 74.21875 
z
" id="DejaVuSans-48"/>
      </defs>
      <g style="fill:#ffffff;" transform="translate(50.006136 239.238438)scale(0.1 -0.1)">
       <use xlink:href="#DejaVuSans-48"/>
      </g>
     </g>
    </g>
    <g id="xtick_2">
     <g id="line2d_2">
      <g>
       <use style="fill:#ffffff;stroke:#ffffff;stroke-width:0.8;" x="114.060114" xlink:href="#m0f53e04d5d" y="224.64"/>
      </g>
     </g>
     <g id="text_2">
      <!-- 10 -->
      <defs>
       <path d="M 12.40625 8.296875 
L 28.515625 8.296875 
L 28.515625 63.921875 
L 10.984375 60.40625 
L 10.984375 69.390625 
L 28.421875 72.90625 
L 38.28125 72.90625 
L 38.28125 8.296875 
L 54.390625 8.296875 
L 54.390625 0 
L 12.40625 0 
z
" id="DejaVuSans-49"/>
      </defs>
      <g style="fill:#ffffff;" transform="translate(107.697614 239.238438)scale(0.1 -0.1)">
       <use xlink:href="#DejaVuSans-49"/>
       <use x="63.623047" xlink:href="#DejaVuSans-48"/>
      </g>
     </g>
    </g>
    <g id="xtick_3">
     <g id="line2d_3">
      <g>
       <use style="fill:#ffffff;stroke:#ffffff;stroke-width:0.8;" x="174.932841" xlink:href="#m0f53e04d5d" y="224.64"/>
      </g>
     </g>
     <g id="text_3">
      <!-- 20 -->
      <defs>
       <path d="M 19.1875 8.296875 
L 53.609375 8.296875 
L 53.609375 0 
L 7.328125 0 
L 7.328125 8.296875 
Q 12.9375 14.109375 22.625 23.890625 
Q 32.328125 33.6875 34.8125 36.53125 
Q 39.546875 41.84375 41.421875 45.53125 
Q 43.3125 49.21875 43.3125 52.78125 
Q 43.3125 58.59375 39.234375 62.25 
Q 35.15625 65.921875 28.609375 65.921875 
Q 23.96875 65.921875 18.8125 64.3125 
Q 13.671875 62.703125 7.8125 59.421875 
L 7.8125 69.390625 
Q 13.765625 71.78125 18.9375 73 
Q 24.125 74.21875 28.421875 74.21875 
Q 39.75 74.21875 46.484375 68.546875 
Q 53.21875 62.890625 53.21875 53.421875 
Q 53.21875 48.921875 51.53125 44.890625 
Q 49.859375 40.875 45.40625 35.40625 
Q 44.1875 33.984375 37.640625 27.21875 
Q 31.109375 20.453125 19.1875 8.296875 
z
" id="DejaVuSans-50"/>
      </defs>
      <g style="fill:#ffffff;" transform="translate(168.570341 239.238438)scale(0.1 -0.1)">
       <use xlink:href="#DejaVuSans-50"/>
       <use x="63.623047" xlink:href="#DejaVuSans-48"/>
      </g>
     </g>
    </g>
    <g id="xtick_4">
     <g id="line2d_4">
      <g>
       <use style="fill:#ffffff;stroke:#ffffff;stroke-width:0.8;" x="235.805568" xlink:href="#m0f53e04d5d" y="224.64"/>
      </g>
     </g>
     <g id="text_4">
      <!-- 30 -->
      <defs>
       <path d="M 40.578125 39.3125 
Q 47.65625 37.796875 51.625 33 
Q 55.609375 28.21875 55.609375 21.1875 
Q 55.609375 10.40625 48.1875 4.484375 
Q 40.765625 -1.421875 27.09375 -1.421875 
Q 22.515625 -1.421875 17.65625 -0.515625 
Q 12.796875 0.390625 7.625 2.203125 
L 7.625 11.71875 
Q 11.71875 9.328125 16.59375 8.109375 
Q 21.484375 6.890625 26.8125 6.890625 
Q 36.078125 6.890625 40.9375 10.546875 
Q 45.796875 14.203125 45.796875 21.1875 
Q 45.796875 27.640625 41.28125 31.265625 
Q 36.765625 34.90625 28.71875 34.90625 
L 20.21875 34.90625 
L 20.21875 43.015625 
L 29.109375 43.015625 
Q 36.375 43.015625 40.234375 45.921875 
Q 44.09375 48.828125 44.09375 54.296875 
Q 44.09375 59.90625 40.109375 62.90625 
Q 36.140625 65.921875 28.71875 65.921875 
Q 24.65625 65.921875 20.015625 65.03125 
Q 15.375 64.15625 9.8125 62.3125 
L 9.8125 71.09375 
Q 15.4375 72.65625 20.34375 73.4375 
Q 25.25 74.21875 29.59375 74.21875 
Q 40.828125 74.21875 47.359375 69.109375 
Q 53.90625 64.015625 53.90625 55.328125 
Q 53.90625 49.265625 50.4375 45.09375 
Q 46.96875 40.921875 40.578125 39.3125 
z
" id="DejaVuSans-51"/>
      </defs>
      <g style="fill:#ffffff;" transform="translate(229.443068 239.238438)scale(0.1 -0.1)">
       <use xlink:href="#DejaVuSans-51"/>
       <use x="63.623047" xlink:href="#DejaVuSans-48"/>
      </g>
     </g>
    </g>
    <g id="xtick_5">
     <g id="line2d_5">
      <g>
       <use style="fill:#ffffff;stroke:#ffffff;stroke-width:0.8;" x="296.678295" xlink:href="#m0f53e04d5d" y="224.64"/>
      </g>
     </g>
     <g id="text_5">
      <!-- 40 -->
      <defs>
       <path d="M 37.796875 64.3125 
L 12.890625 25.390625 
L 37.796875 25.390625 
z
M 35.203125 72.90625 
L 47.609375 72.90625 
L 47.609375 25.390625 
L 58.015625 25.390625 
L 58.015625 17.1875 
L 47.609375 17.1875 
L 47.609375 0 
L 37.796875 0 
L 37.796875 17.1875 
L 4.890625 17.1875 
L 4.890625 26.703125 
z
" id="DejaVuSans-52"/>
      </defs>
      <g style="fill:#ffffff;" transform="translate(290.315795 239.238438)scale(0.1 -0.1)">
       <use xlink:href="#DejaVuSans-52"/>
       <use x="63.623047" xlink:href="#DejaVuSans-48"/>
      </g>
     </g>
    </g>
    <g id="xtick_6">
     <g id="line2d_6">
      <g>
       <use style="fill:#ffffff;stroke:#ffffff;stroke-width:0.8;" x="357.551023" xlink:href="#m0f53e04d5d" y="224.64"/>
      </g>
     </g>
     <g id="text_6">
      <!-- 50 -->
      <defs>
       <path d="M 10.796875 72.90625 
L 49.515625 72.90625 
L 49.515625 64.59375 
L 19.828125 64.59375 
L 19.828125 46.734375 
Q 21.96875 47.46875 24.109375 47.828125 
Q 26.265625 48.1875 28.421875 48.1875 
Q 40.625 48.1875 47.75 41.5 
Q 54.890625 34.8125 54.890625 23.390625 
Q 54.890625 11.625 47.5625 5.09375 
Q 40.234375 -1.421875 26.90625 -1.421875 
Q 22.3125 -1.421875 17.546875 -0.640625 
Q 12.796875 0.140625 7.71875 1.703125 
L 7.71875 11.625 
Q 12.109375 9.234375 16.796875 8.0625 
Q 21.484375 6.890625 26.703125 6.890625 
Q 35.15625 6.890625 40.078125 11.328125 
Q 45.015625 15.765625 45.015625 23.390625 
Q 45.015625 31 40.078125 35.4375 
Q 35.15625 39.890625 26.703125 39.890625 
Q 22.75 39.890625 18.8125 39.015625 
Q 14.890625 38.140625 10.796875 36.28125 
z
" id="DejaVuSans-53"/>
      </defs>
      <g style="fill:#ffffff;" transform="translate(351.188523 239.238438)scale(0.1 -0.1)">
       <use xlink:href="#DejaVuSans-53"/>
       <use x="63.623047" xlink:href="#DejaVuSans-48"/>
      </g>
     </g>
    </g>
    <g id="text_7">
     <!-- t (s) -->
     <defs>
      <path d="M 18.3125 70.21875 
L 18.3125 54.6875 
L 36.8125 54.6875 
L 36.8125 47.703125 
L 18.3125 47.703125 
L 18.3125 18.015625 
Q 18.3125 11.328125 20.140625 9.421875 
Q 21.96875 7.515625 27.59375 7.515625 
L 36.8125 7.515625 
L 36.8125 0 
L 27.59375 0 
Q 17.1875 0 13.234375 3.875 
Q 9.28125 7.765625 9.28125 18.015625 
L 9.28125 47.703125 
L 2.6875 47.703125 
L 2.6875 54.6875 
L 9.28125 54.6875 
L 9.28125 70.21875 
z
" id="DejaVuSans-116"/>
      <path id="DejaVuSans-32"/>
      <path d="M 31 75.875 
Q 24.46875 64.65625 21.28125 53.65625 
Q 18.109375 42.671875 18.109375 31.390625 
Q 18.109375 20.125 21.3125 9.0625 
Q 24.515625 -2 31 -13.1875 
L 23.1875 -13.1875 
Q 15.875 -1.703125 12.234375 9.375 
Q 8.59375 20.453125 8.59375 31.390625 
Q 8.59375 42.28125 12.203125 53.3125 
Q 15.828125 64.359375 23.1875 75.875 
z
" id="DejaVuSans-40"/>
      <path d="M 44.28125 53.078125 
L 44.28125 44.578125 
Q 40.484375 46.53125 36.375 47.5 
Q 32.28125 48.484375 27.875 48.484375 
Q 21.1875 48.484375 17.84375 46.4375 
Q 14.5 44.390625 14.5 40.28125 
Q 14.5 37.15625 16.890625 35.375 
Q 19.28125 33.59375 26.515625 31.984375 
L 29.59375 31.296875 
Q 39.15625 29.25 43.1875 25.515625 
Q 47.21875 21.78125 47.21875 15.09375 
Q 47.21875 7.46875 41.1875 3.015625 
Q 35.15625 -1.421875 24.609375 -1.421875 
Q 20.21875 -1.421875 15.453125 -0.5625 
Q 10.6875 0.296875 5.421875 2 
L 5.421875 11.28125 
Q 10.40625 8.6875 15.234375 7.390625 
Q 20.0625 6.109375 24.8125 6.109375 
Q 31.15625 6.109375 34.5625 8.28125 
Q 37.984375 10.453125 37.984375 14.40625 
Q 37.984375 18.0625 35.515625 20.015625 
Q 33.0625 21.96875 24.703125 23.78125 
L 21.578125 24.515625 
Q 13.234375 26.265625 9.515625 29.90625 
Q 5.8125 33.546875 5.8125 39.890625 
Q 5.8125 47.609375 11.28125 51.796875 
Q 16.75 56 26.8125 56 
Q 31.78125 56 36.171875 55.265625 
Q 40.578125 54.546875 44.28125 53.078125 
z
" id="DejaVuSans-115"/>
      <path d="M 8.015625 75.875 
L 15.828125 75.875 
Q 23.140625 64.359375 26.78125 53.3125 
Q 30.421875 42.28125 30.421875 31.390625 
Q 30.421875 20.453125 26.78125 9.375 
Q 23.140625 -1.703125 15.828125 -13.1875 
L 8.015625 -13.1875 
Q 14.5 -2 17.703125 9.0625 
Q 20.90625 20.125 20.90625 31.390625 
Q 20.90625 42.671875 17.703125 53.65625 
Q 14.5 64.65625 8.015625 75.875 
z
" id="DejaVuSans-41"/>
     </defs>
     <g style="fill:#ffffff;" transform="translate(207.488281 252.916563)scale(0.1 -0.1)">
      <use xlink:href="#DejaVuSans-116"/>
      <use x="39.208984" xlink:href="#DejaVuSans-32"/>
      <use x="70.996094" xlink:href="#DejaVuSans-40"/>
      <use x="110.009766" xlink:href="#DejaVuSans-115"/>
      <use x="162.109375" xlink:href="#DejaVuSans-41"/>
     </g>
    </g>
   </g>
   <g id="matplotlib.axis_2">
    <g id="ytick_1">
     <g id="line2d_7">
      <defs>
       <path d="M 0 0 
L -3.5 0 
" id="meefbba82e9" style="stroke:#ffffff;stroke-width:0.8;"/>
      </defs>
      <g>
       <use style="fill:#ffffff;stroke:#ffffff;stroke-width:0.8;" x="50.14375" xlink:href="#meefbba82e9" y="206.927741"/>
      </g>
     </g>
     <g id="text_8">
      <!-- 35.0 -->
      <defs>
       <path d="M 10.6875 12.40625 
L 21 12.40625 
L 21 0 
L 10.6875 0 
z
" id="DejaVuSans-46"/>
      </defs>
      <g style="fill:#ffffff;" transform="translate(20.878125 210.72696)scale(0.1 -0.1)">
       <use xlink:href="#DejaVuSans-51"/>
       <use x="63.623047" xlink:href="#DejaVuSans-53"/>
       <use x="127.246094" xlink:href="#DejaVuSans-46"/>
       <use x="159.033203" xlink:href="#DejaVuSans-48"/>
      </g>
     </g>
    </g>
    <g id="ytick_2">
     <g id="line2d_8">
      <g>
       <use style="fill:#ffffff;stroke:#ffffff;stroke-width:0.8;" x="50.14375" xlink:href="#meefbba82e9" y="182.463294"/>
      </g>
     </g>
     <g id="text_9">
      <!-- 37.5 -->
      <defs>
       <path d="M 8.203125 72.90625 
L 55.078125 72.90625 
L 55.078125 68.703125 
L 28.609375 0 
L 18.3125 0 
L 43.21875 64.59375 
L 8.203125 64.59375 
z
" id="DejaVuSans-55"/>
      </defs>
      <g style="fill:#ffffff;" transform="translate(20.878125 186.262513)scale(0.1 -0.1)">
       <use xlink:href="#DejaVuSans-51"/>
       <use x="63.623047" xlink:href="#DejaVuSans-55"/>
       <use x="127.246094" xlink:href="#DejaVuSans-46"/>
       <use x="159.033203" xlink:href="#DejaVuSans-53"/>
      </g>
     </g>
    </g>
    <g id="ytick_3">
     <g id="line2d_9">
      <g>
       <use style="fill:#ffffff;stroke:#ffffff;stroke-width:0.8;" x="50.14375" xlink:href="#meefbba82e9" y="157.998848"/>
      </g>
     </g>
     <g id="text_10">
      <!-- 40.0 -->
      <g style="fill:#ffffff;" transform="translate(20.878125 161.798067)scale(0.1 -0.1)">
       <use xlink:href="#DejaVuSans-52"/>
       <use x="63.623047" xlink:href="#DejaVuSans-48"/>
       <use x="127.246094" xlink:href="#DejaVuSans-46"/>
       <use x="159.033203" xlink:href="#DejaVuSans-48"/>
      </g>
     </g>
    </g>
    <g id="ytick_4">
     <g id="line2d_10">
      <g>
       <use style="fill:#ffffff;stroke:#ffffff;stroke-width:0.8;" x="50.14375" xlink:href="#meefbba82e9" y="133.534401"/>
      </g>
     </g>
     <g id="text_11">
      <!-- 42.5 -->
      <g style="fill:#ffffff;" transform="translate(20.878125 137.33362)scale(0.1 -0.1)">
       <use xlink:href="#DejaVuSans-52"/>
       <use x="63.623047" xlink:href="#DejaVuSans-50"/>
       <use x="127.246094" xlink:href="#DejaVuSans-46"/>
       <use x="159.033203" xlink:href="#DejaVuSans-53"/>
      </g>
     </g>
    </g>
    <g id="ytick_5">
     <g id="line2d_11">
      <g>
       <use style="fill:#ffffff;stroke:#ffffff;stroke-width:0.8;" x="50.14375" xlink:href="#meefbba82e9" y="109.069955"/>
      </g>
     </g>
     <g id="text_12">
      <!-- 45.0 -->
      <g style="fill:#ffffff;" transform="translate(20.878125 112.869174)scale(0.1 -0.1)">
       <use xlink:href="#DejaVuSans-52"/>
       <use x="63.623047" xlink:href="#DejaVuSans-53"/>
       <use x="127.246094" xlink:href="#DejaVuSans-46"/>
       <use x="159.033203" xlink:href="#DejaVuSans-48"/>
      </g>
     </g>
    </g>
    <g id="ytick_6">
     <g id="line2d_12">
      <g>
       <use style="fill:#ffffff;stroke:#ffffff;stroke-width:0.8;" x="50.14375" xlink:href="#meefbba82e9" y="84.605509"/>
      </g>
     </g>
     <g id="text_13">
      <!-- 47.5 -->
      <g style="fill:#ffffff;" transform="translate(20.878125 88.404727)scale(0.1 -0.1)">
       <use xlink:href="#DejaVuSans-52"/>
       <use x="63.623047" xlink:href="#DejaVuSans-55"/>
       <use x="127.246094" xlink:href="#DejaVuSans-46"/>
       <use x="159.033203" xlink:href="#DejaVuSans-53"/>
      </g>
     </g>
    </g>
    <g id="ytick_7">
     <g id="line2d_13">
      <g>
       <use style="fill:#ffffff;stroke:#ffffff;stroke-width:0.8;" x="50.14375" xlink:href="#meefbba82e9" y="60.141062"/>
      </g>
     </g>
     <g id="text_14">
      <!-- 50.0 -->
      <g style="fill:#ffffff;" transform="translate(20.878125 63.940281)scale(0.1 -0.1)">
       <use xlink:href="#DejaVuSans-53"/>
       <use x="63.623047" xlink:href="#DejaVuSans-48"/>
       <use x="127.246094" xlink:href="#DejaVuSans-46"/>
       <use x="159.033203" xlink:href="#DejaVuSans-48"/>
      </g>
     </g>
    </g>
    <g id="ytick_8">
     <g id="line2d_14">
      <g>
       <use style="fill:#ffffff;stroke:#ffffff;stroke-width:0.8;" x="50.14375" xlink:href="#meefbba82e9" y="35.676616"/>
      </g>
     </g>
     <g id="text_15">
      <!-- 52.5 -->
      <g style="fill:#ffffff;" transform="translate(20.878125 39.475834)scale(0.1 -0.1)">
       <use xlink:href="#DejaVuSans-53"/>
       <use x="63.623047" xlink:href="#DejaVuSans-50"/>
       <use x="127.246094" xlink:href="#DejaVuSans-46"/>
       <use x="159.033203" xlink:href="#DejaVuSans-53"/>
      </g>
     </g>
    </g>
    <g id="ytick_9">
     <g id="line2d_15">
      <g>
       <use style="fill:#ffffff;stroke:#ffffff;stroke-width:0.8;" x="50.14375" xlink:href="#meefbba82e9" y="11.212169"/>
      </g>
     </g>
     <g id="text_16">
      <!-- 55.0 -->
      <g style="fill:#ffffff;" transform="translate(20.878125 15.011388)scale(0.1 -0.1)">
       <use xlink:href="#DejaVuSans-53"/>
       <use x="63.623047" xlink:href="#DejaVuSans-53"/>
       <use x="127.246094" xlink:href="#DejaVuSans-46"/>
       <use x="159.033203" xlink:href="#DejaVuSans-48"/>
      </g>
     </g>
    </g>
    <g id="text_17">
     <!-- T ($^\circ$C) -->
     <defs>
      <path d="M -0.296875 72.90625 
L 61.375 72.90625 
L 61.375 64.59375 
L 35.5 64.59375 
L 35.5 0 
L 25.59375 0 
L 25.59375 64.59375 
L -0.296875 64.59375 
z
" id="DejaVuSans-84"/>
      <path d="M 31.296875 40.671875 
Q 27.390625 40.671875 24.703125 37.953125 
Q 22.015625 35.25 22.015625 31.34375 
Q 22.015625 27.484375 24.703125 24.828125 
Q 27.390625 22.171875 31.296875 22.171875 
Q 35.203125 22.171875 37.890625 24.828125 
Q 40.578125 27.484375 40.578125 31.34375 
Q 40.578125 35.203125 37.859375 37.9375 
Q 35.15625 40.671875 31.296875 40.671875 
z
M 31.296875 46.96875 
Q 34.421875 46.96875 37.296875 45.765625 
Q 40.1875 44.578125 42.28125 42.328125 
Q 44.53125 40.140625 45.65625 37.34375 
Q 46.78125 34.5625 46.78125 31.34375 
Q 46.78125 24.90625 42.265625 20.4375 
Q 37.75 15.96875 31.203125 15.96875 
Q 24.609375 15.96875 20.21875 20.359375 
Q 15.828125 24.75 15.828125 31.34375 
Q 15.828125 37.890625 20.3125 42.421875 
Q 24.8125 46.96875 31.296875 46.96875 
z
" id="DejaVuSans-8728"/>
      <path d="M 64.40625 67.28125 
L 64.40625 56.890625 
Q 59.421875 61.53125 53.78125 63.8125 
Q 48.140625 66.109375 41.796875 66.109375 
Q 29.296875 66.109375 22.65625 58.46875 
Q 16.015625 50.828125 16.015625 36.375 
Q 16.015625 21.96875 22.65625 14.328125 
Q 29.296875 6.6875 41.796875 6.6875 
Q 48.140625 6.6875 53.78125 8.984375 
Q 59.421875 11.28125 64.40625 15.921875 
L 64.40625 5.609375 
Q 59.234375 2.09375 53.4375 0.328125 
Q 47.65625 -1.421875 41.21875 -1.421875 
Q 24.65625 -1.421875 15.125 8.703125 
Q 5.609375 18.84375 5.609375 36.375 
Q 5.609375 53.953125 15.125 64.078125 
Q 24.65625 74.21875 41.21875 74.21875 
Q 47.75 74.21875 53.53125 72.484375 
Q 59.328125 70.75 64.40625 67.28125 
z
" id="DejaVuSans-67"/>
     </defs>
     <g style="fill:#ffffff;" transform="translate(14.798438 131.72)rotate(-90)scale(0.1 -0.1)">
      <use transform="translate(0 0.125)" xlink:href="#DejaVuSans-84"/>
      <use transform="translate(61.083984 0.125)" xlink:href="#DejaVuSans-32"/>
      <use transform="translate(92.871094 0.125)" xlink:href="#DejaVuSans-40"/>
      <use transform="translate(146.479492 38.40625)scale(0.7)" xlink:href="#DejaVuSans-8728"/>
      <use transform="translate(206.669922 0.125)" xlink:href="#DejaVuSans-67"/>
      <use transform="translate(276.494141 0.125)" xlink:href="#DejaVuSans-41"/>
     </g>
    </g>
   </g>
   <g id="line2d_16">
    <defs>
     <path d="M 0 3 
C 0.795609 3 1.55874 2.683901 2.12132 2.12132 
C 2.683901 1.55874 3 0.795609 3 0 
C 3 -0.795609 2.683901 -1.55874 2.12132 -2.12132 
C 1.55874 -2.683901 0.795609 -3 0 -3 
C -0.795609 -3 -1.55874 -2.683901 -2.12132 -2.12132 
C -2.683901 -1.55874 -3 -0.795609 -3 0 
C -3 0.795609 -2.683901 1.55874 -2.12132 2.12132 
C -1.55874 2.683901 -0.795609 3 0 3 
z
" id="mb975bd4cf5" style="stroke:#8dd3c7;"/>
    </defs>
    <g clip-path="url(#p8d88ea5dd1)">
     <use style="fill:#8dd3c7;stroke:#8dd3c7;" x="65.361932" xlink:href="#mb975bd4cf5" y="214.756364"/>
     <use style="fill:#8dd3c7;stroke:#8dd3c7;" x="71.449205" xlink:href="#mb975bd4cf5" y="195.184806"/>
     <use style="fill:#8dd3c7;stroke:#8dd3c7;" x="77.536477" xlink:href="#mb975bd4cf5" y="177.570405"/>
     <use style="fill:#8dd3c7;stroke:#8dd3c7;" x="83.62375" xlink:href="#mb975bd4cf5" y="161.913159"/>
     <use style="fill:#8dd3c7;stroke:#8dd3c7;" x="89.711023" xlink:href="#mb975bd4cf5" y="148.213069"/>
     <use style="fill:#8dd3c7;stroke:#8dd3c7;" x="95.798295" xlink:href="#mb975bd4cf5" y="136.470135"/>
     <use style="fill:#8dd3c7;stroke:#8dd3c7;" x="101.885568" xlink:href="#mb975bd4cf5" y="124.727201"/>
     <use style="fill:#8dd3c7;stroke:#8dd3c7;" x="107.972841" xlink:href="#mb975bd4cf5" y="114.941422"/>
     <use style="fill:#8dd3c7;stroke:#8dd3c7;" x="114.060114" xlink:href="#mb975bd4cf5" y="105.155644"/>
     <use style="fill:#8dd3c7;stroke:#8dd3c7;" x="120.147386" xlink:href="#mb975bd4cf5" y="97.327021"/>
     <use style="fill:#8dd3c7;stroke:#8dd3c7;" x="126.234659" xlink:href="#mb975bd4cf5" y="89.498398"/>
     <use style="fill:#8dd3c7;stroke:#8dd3c7;" x="132.321932" xlink:href="#mb975bd4cf5" y="83.626931"/>
     <use style="fill:#8dd3c7;stroke:#8dd3c7;" x="138.409205" xlink:href="#mb975bd4cf5" y="77.755464"/>
     <use style="fill:#8dd3c7;stroke:#8dd3c7;" x="144.496477" xlink:href="#mb975bd4cf5" y="71.883996"/>
     <use style="fill:#8dd3c7;stroke:#8dd3c7;" x="150.58375" xlink:href="#mb975bd4cf5" y="66.012529"/>
     <use style="fill:#8dd3c7;stroke:#8dd3c7;" x="156.671023" xlink:href="#mb975bd4cf5" y="62.098218"/>
     <use style="fill:#8dd3c7;stroke:#8dd3c7;" x="162.758295" xlink:href="#mb975bd4cf5" y="58.183906"/>
     <use style="fill:#8dd3c7;stroke:#8dd3c7;" x="168.845568" xlink:href="#mb975bd4cf5" y="54.269595"/>
     <use style="fill:#8dd3c7;stroke:#8dd3c7;" x="174.932841" xlink:href="#mb975bd4cf5" y="50.355284"/>
     <use style="fill:#8dd3c7;stroke:#8dd3c7;" x="181.020114" xlink:href="#mb975bd4cf5" y="48.398128"/>
     <use style="fill:#8dd3c7;stroke:#8dd3c7;" x="187.107386" xlink:href="#mb975bd4cf5" y="44.483816"/>
     <use style="fill:#8dd3c7;stroke:#8dd3c7;" x="193.194659" xlink:href="#mb975bd4cf5" y="42.526661"/>
     <use style="fill:#8dd3c7;stroke:#8dd3c7;" x="199.281932" xlink:href="#mb975bd4cf5" y="38.612349"/>
     <use style="fill:#8dd3c7;stroke:#8dd3c7;" x="205.369205" xlink:href="#mb975bd4cf5" y="36.655194"/>
     <use style="fill:#8dd3c7;stroke:#8dd3c7;" x="211.456477" xlink:href="#mb975bd4cf5" y="34.698038"/>
     <use style="fill:#8dd3c7;stroke:#8dd3c7;" x="217.54375" xlink:href="#mb975bd4cf5" y="34.698038"/>
     <use style="fill:#8dd3c7;stroke:#8dd3c7;" x="223.631023" xlink:href="#mb975bd4cf5" y="32.740882"/>
     <use style="fill:#8dd3c7;stroke:#8dd3c7;" x="229.718295" xlink:href="#mb975bd4cf5" y="30.783726"/>
     <use style="fill:#8dd3c7;stroke:#8dd3c7;" x="235.805568" xlink:href="#mb975bd4cf5" y="30.783726"/>
     <use style="fill:#8dd3c7;stroke:#8dd3c7;" x="241.892841" xlink:href="#mb975bd4cf5" y="28.826571"/>
     <use style="fill:#8dd3c7;stroke:#8dd3c7;" x="247.980114" xlink:href="#mb975bd4cf5" y="26.869415"/>
     <use style="fill:#8dd3c7;stroke:#8dd3c7;" x="254.067386" xlink:href="#mb975bd4cf5" y="26.869415"/>
     <use style="fill:#8dd3c7;stroke:#8dd3c7;" x="260.154659" xlink:href="#mb975bd4cf5" y="24.912259"/>
     <use style="fill:#8dd3c7;stroke:#8dd3c7;" x="266.241932" xlink:href="#mb975bd4cf5" y="24.912259"/>
     <use style="fill:#8dd3c7;stroke:#8dd3c7;" x="272.329205" xlink:href="#mb975bd4cf5" y="24.912259"/>
     <use style="fill:#8dd3c7;stroke:#8dd3c7;" x="278.416477" xlink:href="#mb975bd4cf5" y="22.955104"/>
     <use style="fill:#8dd3c7;stroke:#8dd3c7;" x="284.50375" xlink:href="#mb975bd4cf5" y="22.955104"/>
     <use style="fill:#8dd3c7;stroke:#8dd3c7;" x="290.591023" xlink:href="#mb975bd4cf5" y="22.955104"/>
     <use style="fill:#8dd3c7;stroke:#8dd3c7;" x="296.678295" xlink:href="#mb975bd4cf5" y="20.997948"/>
     <use style="fill:#8dd3c7;stroke:#8dd3c7;" x="308.852841" xlink:href="#mb975bd4cf5" y="20.997948"/>
     <use style="fill:#8dd3c7;stroke:#8dd3c7;" x="314.940114" xlink:href="#mb975bd4cf5" y="20.997948"/>
     <use style="fill:#8dd3c7;stroke:#8dd3c7;" x="321.027386" xlink:href="#mb975bd4cf5" y="20.997948"/>
     <use style="fill:#8dd3c7;stroke:#8dd3c7;" x="327.114659" xlink:href="#mb975bd4cf5" y="19.040792"/>
     <use style="fill:#8dd3c7;stroke:#8dd3c7;" x="333.201932" xlink:href="#mb975bd4cf5" y="19.040792"/>
     <use style="fill:#8dd3c7;stroke:#8dd3c7;" x="339.289205" xlink:href="#mb975bd4cf5" y="19.040792"/>
     <use style="fill:#8dd3c7;stroke:#8dd3c7;" x="345.376477" xlink:href="#mb975bd4cf5" y="19.040792"/>
     <use style="fill:#8dd3c7;stroke:#8dd3c7;" x="351.46375" xlink:href="#mb975bd4cf5" y="19.040792"/>
     <use style="fill:#8dd3c7;stroke:#8dd3c7;" x="357.551023" xlink:href="#mb975bd4cf5" y="17.083636"/>
     <use style="fill:#8dd3c7;stroke:#8dd3c7;" x="363.638295" xlink:href="#mb975bd4cf5" y="17.083636"/>
     <use style="fill:#8dd3c7;stroke:#8dd3c7;" x="369.725568" xlink:href="#mb975bd4cf5" y="17.083636"/>
    </g>
   </g>
   <g id="line2d_17">
    <path clip-path="url(#p8d88ea5dd1)" d="M 65.361932 212.988656 
L 71.449205 194.602966 
L 77.536477 177.941941 
L 83.62375 162.843799 
L 89.711023 149.161934 
L 95.798295 136.763493 
L 101.885568 125.528085 
L 107.972841 115.346611 
L 114.060114 106.120208 
L 120.147386 97.759285 
L 126.234659 90.182656 
L 132.321932 83.316751 
L 138.409205 77.0949 
L 144.496477 71.456689 
L 150.58375 66.347368 
L 156.671023 61.717326 
L 162.758295 57.521604 
L 168.845568 53.71946 
L 174.932841 50.273976 
L 181.020114 47.151694 
L 187.107386 44.322297 
L 193.194659 41.758311 
L 199.281932 39.434839 
L 205.369205 37.32932 
L 211.456477 35.421308 
L 217.54375 33.692277 
L 223.631023 32.125437 
L 229.718295 30.705574 
L 235.805568 29.418901 
L 241.892841 28.252924 
L 247.980114 27.196322 
L 254.067386 26.238833 
L 260.154659 25.371162 
L 266.241932 24.584882 
L 272.329205 23.872359 
L 278.416477 23.226674 
L 284.50375 22.641557 
L 290.591023 22.111328 
L 296.678295 21.630836 
L 308.852841 20.800841 
L 314.940114 20.443279 
L 321.027386 20.119258 
L 327.114659 19.825632 
L 333.201932 19.559549 
L 339.289205 19.318426 
L 345.376477 19.099922 
L 351.46375 18.901914 
L 357.551023 18.72248 
L 363.638295 18.559878 
L 369.725568 18.412529 
" style="fill:none;stroke:#feffb3;stroke-linecap:square;stroke-width:1.5;"/>
   </g>
   <g id="patch_3">
    <path d="M 50.14375 224.64 
L 50.14375 7.2 
" style="fill:none;stroke:#ffffff;stroke-linecap:square;stroke-linejoin:miter;stroke-width:0.8;"/>
   </g>
   <g id="patch_4">
    <path d="M 384.94375 224.64 
L 384.94375 7.2 
" style="fill:none;stroke:#ffffff;stroke-linecap:square;stroke-linejoin:miter;stroke-width:0.8;"/>
   </g>
   <g id="patch_5">
    <path d="M 50.14375 224.64 
L 384.94375 224.64 
" style="fill:none;stroke:#ffffff;stroke-linecap:square;stroke-linejoin:miter;stroke-width:0.8;"/>
   </g>
   <g id="patch_6">
    <path d="M 50.14375 7.2 
L 384.94375 7.2 
" style="fill:none;stroke:#ffffff;stroke-linecap:square;stroke-linejoin:miter;stroke-width:0.8;"/>
   </g>
  </g>
 </g>
 <defs>
  <clipPath id="p8d88ea5dd1">
   <rect height="217.44" width="334.8" x="50.14375" y="7.2"/>
  </clipPath>
 </defs>
</svg>
